<svg id="Capa_1" enable-background="new 0 0 504 504" height="512" viewBox="0 0 504 504" width="512" xmlns="http://www.w3.org/2000/svg"><g><path d="m160.089 332.56v-182.414c-95.944-34.972-104.772 78.323-154.921 94.726-3.083 1.008-5.168 3.884-5.168 7.128s2.085 6.12 5.168 7.128c25.028 8.186 39.765 40.505 60.175 66.483 20.691 21.111 67.831 38.775 94.746 6.949z" fill="#cde2ff"/><path d="m160.089 353.854v-21.294c-48.458 17.108-78.129 6.297-94.746-6.949 20.485 26.075 46.686 45.762 94.746 28.243z" fill="#9ec8fc"/><path d="m343.911 337.037c73.381 32.979 97.085-59.646 138.089-85.037-27.358-24.775-44.09-68.617-66.656-96.631-17.347-12.095-39.589-16.83-71.433-5.223v203.708z" fill="#cde2ff"/><path d="m498.832 259.128c3.083-1.008 5.168-3.884 5.168-7.128s-2.085-6.12-5.168-7.128c-33.504-10.958-48.57-65.156-83.488-89.503 17.073 29.674 21.423 68.685 46.029 93.67 1.498 1.521 1.358 4.025-.369 5.279-37.962 27.566-45.838 102.104-117.093 82.72v16.817c95.944 34.971 104.772-78.324 154.921-94.727z" fill="#9ec8fc"/><path d="m381.196 244c0-31.575-11.465-68.034-37.286-93.854-24.326-21.965-56.555-35.342-91.911-35.342-75.771 0-137.196 61.425-137.196 137.196 0 32.261 11.14 61.916 29.776 85.342 31.881 31.881 64.785 43.854 99.42 43.854 75.772 0 137.197-61.425 137.197-137.196z" fill="#938dc8"/><path d="m343.911 150.146c17.926 23.186 29.286 54.279 29.286 85.854 0 75.771-61.425 137.196-137.196 137.196-34.634 0-67.276-14.682-91.42-35.854 25.135 31.595 63.909 51.854 107.42 51.854 75.771 0 137.196-61.425 137.196-137.196-.001-40.416-17.479-76.746-45.286-101.854z" fill="#7f78bd"/><path d="m365.928 191.866c4.898-8.483 4.898-8.483-3.111-8.483h-229.643l109.494 189.65c9.332 16.164 9.332 16.164 20.079-2.451z" fill="#a9a4d3"/><path d="m370.823 183.389c-.001-.002-.002-.004-.004-.006h-8.002c1.12 2.785 2.159 5.615 3.111 8.483z" fill="#938dc8"/><path d="m242.668 373.033 9.332 16.163 10.747-18.614c-6.539 1.292-13.242 2.123-20.079 2.451z" fill="#938dc8"/><path d="m373.196 236c0-13.367-2.042-26.644-5.75-39.275l-99.75 172.784c60.489-14.306 105.5-68.648 105.5-133.509z" fill="none"/><path d="m351.333 194.634h-198.674l99.341 172.062z" fill="none"/><path d="m367.446 196.725c3.372-5.841-3.123-17.091-6.195-17.091h-221.582c-2.68 0-5.155 1.43-6.495 3.75s-1.34 5.18 0 7.5l105.241 182.282c5.585 8.031 22.534 8.031 29.281-3.656zm-16.113-2.091-99.333 172.062-99.341-172.062z" fill="#edf6ff"/><g fill="#cde2ff"><path d="m370.818 190.884c1.34-2.321 1.34-5.18 0-7.5-1.34-2.321-3.816-3.75-6.495-3.75h-3.072c2.401 5.52 4.476 11.236 6.195 17.091z"/><path d="m252 389.196c2.68 0 5.156-1.43 6.495-3.75l9.201-15.937c-9.422 2.228-19.219 3.482-29.281 3.656l7.09 12.281c1.34 2.321 3.816 3.75 6.495 3.75z"/></g></g></svg>