<svg id="Capa_1" enable-background="new 0 0 512 512" height="512" viewBox="0 0 512 512" width="512" xmlns="http://www.w3.org/2000/svg"><g><path d="m503.708 242.584c-11.156-5.578-21.172-13.675-28.964-23.415-12.626-15.782-29.865-27.437-49.002-33.479 9.261-17.805 13.209-38.235 10.977-58.322-1.378-12.397-.021-25.204 3.925-37.037 1.797-5.391.394-11.333-3.624-15.351-4.017-4.019-9.959-5.418-15.351-3.624-11.831 3.945-24.637 5.301-37.037 3.925-20.087-2.23-40.517 1.717-58.322 10.977-6.042-19.138-17.696-36.377-33.479-49.003-9.74-7.792-17.837-17.808-23.415-28.964-2.54-5.081-7.734-8.291-13.416-8.291s-10.876 3.21-13.416 8.292c-5.578 11.156-13.675 21.172-23.415 28.964-15.782 12.626-27.437 29.865-33.479 49.002-17.805-9.261-38.236-13.21-58.321-10.977-12.398 1.375-25.206.021-37.038-3.925-5.39-1.794-11.333-.395-15.351 3.624-4.018 4.018-5.421 9.96-3.624 15.351 3.945 11.833 5.303 24.64 3.925 37.037-2.233 20.087 1.716 40.517 10.977 58.322-19.138 6.042-36.376 17.696-49.002 33.479-7.792 9.74-17.808 17.837-28.964 23.415-5.082 2.54-8.292 7.734-8.292 13.416s3.21 10.876 8.292 13.416c11.156 5.578 21.172 13.675 28.964 23.415 12.626 15.782 29.865 27.437 49.002 33.479-9.261 17.805-13.209 38.235-10.977 58.321 1.377 12.399.02 25.207-3.925 37.038-1.797 5.391-.394 11.333 3.624 15.351 2.858 2.859 6.692 4.394 10.608 4.394 1.587 0 3.188-.252 4.742-.77 11.832-3.945 24.637-5.305 37.037-3.925 20.088 2.232 40.517-1.717 58.322-10.977 6.042 19.138 17.696 36.377 33.479 49.003 9.74 7.792 17.837 17.808 23.415 28.964 2.541 5.081 7.735 8.291 13.417 8.291s10.876-3.21 13.416-8.292c5.578-11.156 13.675-21.172 23.415-28.964 15.782-12.626 27.437-29.865 33.479-49.003 17.804 9.259 38.234 13.206 58.322 10.977 12.399-1.378 25.204-.021 37.037 3.925 1.555.518 3.155.771 4.742.77 3.915 0 7.75-1.534 10.608-4.394 4.018-4.018 5.421-9.96 3.624-15.351-3.944-11.831-5.302-24.639-3.925-37.037 2.233-20.087-1.716-40.517-10.977-58.322 19.137-6.042 36.376-17.696 49.002-33.479 7.792-9.74 17.808-17.837 28.964-23.415 5.083-2.539 8.293-7.733 8.293-13.415s-3.21-10.876-8.292-13.416z" fill="#ccfc5c"/><path d="m503.708 242.584c-11.156-5.578-21.172-13.675-28.964-23.415-12.626-15.782-29.865-27.437-49.002-33.479 9.261-17.805 13.209-38.235 10.977-58.322-1.378-12.397-.021-25.204 3.925-37.037 1.797-5.391.394-11.333-3.624-15.351-4.017-4.019-9.959-5.418-15.351-3.624-11.831 3.945-24.637 5.301-37.037 3.925-20.087-2.23-40.517 1.717-58.322 10.977-6.042-19.138-17.696-36.377-33.479-49.003-9.74-7.792-17.837-17.808-23.415-28.964-2.54-5.081-7.734-8.291-13.416-8.291v512c5.682 0 10.876-3.21 13.416-8.292 5.578-11.156 13.675-21.172 23.415-28.964 15.782-12.626 27.437-29.865 33.479-49.003 17.804 9.259 38.234 13.206 58.322 10.977 12.399-1.378 25.204-.021 37.037 3.925 1.555.518 3.155.771 4.742.77 3.915 0 7.75-1.534 10.608-4.394 4.018-4.018 5.421-9.96 3.624-15.351-3.944-11.831-5.302-24.639-3.925-37.037 2.233-20.087-1.716-40.517-10.977-58.322 19.137-6.042 36.376-17.696 49.002-33.479 7.792-9.74 17.808-17.837 28.964-23.415 5.083-2.539 8.293-7.733 8.293-13.415s-3.21-10.876-8.292-13.416z" fill="#70da40"/><circle cx="256" cy="256" fill="#70da40" r="175"/><path d="m431 256c0-96.65-78.35-175-175-175v350c96.65 0 175-78.35 175-175z" fill="#56c225"/><path d="m256 431c-5.359 0-10.311-2.859-12.99-7.5l-138.564-240c-2.68-4.641-2.68-10.359 0-15s7.631-7.5 12.99-7.5h277.129c5.359 0 10.311 2.859 12.99 7.5s2.68 10.359 0 15l-138.564 240c-2.68 4.641-7.632 7.5-12.991 7.5zm-112.584-240 112.584 195 112.584-195z" fill="#e2dff4"/><path d="m394.564 161h-138.564v30h112.584l-112.584 195v45c5.359 0 10.311-2.859 12.99-7.5l138.564-240c2.68-4.641 2.68-10.359 0-15s-7.63-7.5-12.99-7.5z" fill="#bebcdd"/><path d="m394.564 351h-277.128c-5.359 0-10.311-2.859-12.99-7.5s-2.68-10.359 0-15l138.564-240c2.68-4.641 7.631-7.5 12.99-7.5s10.311 2.859 12.99 7.5l138.564 240c2.68 4.641 2.68 10.359 0 15s-7.63 7.5-12.99 7.5zm-251.148-30h225.168l-112.584-195z" fill="#f9f9f9"/><path d="m368.584 321h-112.584v30h138.564c5.359 0 10.311-2.859 12.99-7.5s2.68-10.359 0-15l-138.564-240c-2.68-4.641-7.631-7.5-12.99-7.5v45z" fill="#e2dff4"/></g></svg>