<svg id="Layer_3" enable-background="new 0 0 64 64" height="512" viewBox="0 0 64 64" width="512" xmlns="http://www.w3.org/2000/svg"><path d="m32 48c7.3 0 13.454-7.384 15.375-14h-6.786c-2.999 0-5.937.843-8.48 2.432l-.218.136c-2.543 1.589-5.481 2.432-8.48 2.432h-4.588c2.887 4.858 7.711 9 13.177 9z" fill="#f4b2b0"/><g fill="#b3404a"><path d="m44.094 42.319c3.026-3.766 4.906-8.486 4.906-12.319 0-8.305-8.398-9-17-9s-17 .695-17 9c0 3.833 1.88 8.553 4.906 12.319 3.463 4.308 7.758 6.681 12.094 6.681s8.631-2.373 12.094-6.681zm-12.094-19.319c9.729 0 15 1.116 15 7 0 1.025-.126 2.024-.326 3h-6.085c-3.189 0-6.306.894-9.011 2.584l-.217.135c-2.387 1.492-5.136 2.28-7.95 2.28h-4.178c-1.367-2.384-2.233-5.106-2.233-7.999 0-5.884 5.271-7 15-7zm0 24c-3.562 0-8.252-2.765-11.435-7h2.846c3.189 0 6.306-.894 9.011-2.584l.217-.135c2.387-1.492 5.136-2.28 7.95-2.28h5.55c-2.399 6.945-9.314 11.999-14.139 11.999z"/><path d="m51 10v.687c0 1.87-.729 3.627-2.05 4.95l-3.434 3.433c-3.358-1.377-7.841-2.07-13.516-2.07s-10.158.693-13.516 2.07l-3.434-3.433c-1.321-1.322-2.05-3.08-2.05-4.95v-.687c0-4.962-4.037-9-9-9h-3v2h3c3.859 0 7 3.14 7 7v.687c0 2.404.936 4.664 2.636 6.364l2.941 2.941c-.688.394-1.311.828-1.87 1.301l-4.535-4.536c-.756-.755-1.172-1.759-1.172-2.828v-2.929c0-3.309-2.691-6-6-6h-2v2h2c2.206 0 4 1.794 4 4v2.929c0 1.604.624 3.11 1.758 4.243l4.552 4.552c-1.533 1.909-2.31 4.29-2.31 7.176 0 7.53 5.237 16.353 12.184 20.523 2.97 1.785 4.816 5.058 4.816 8.544v4.033h2v-4.033c0-4.184-2.218-8.115-5.787-10.258-6.287-3.776-11.213-12.038-11.213-18.809 0-7.437 6.037-10.9 19-10.9s19 3.463 19 10.9c0 6.771-4.926 15.033-11.213 18.809-3.569 2.143-5.787 6.074-5.787 10.258v4.033h2v-4.033c0-3.486 1.846-6.759 4.816-8.543 6.947-4.172 12.184-12.994 12.184-20.524 0-2.886-.777-5.267-2.31-7.176l4.552-4.552c1.134-1.133 1.758-2.64 1.758-4.243v-2.929c0-2.206 1.794-4 4-4h2v-2h-2c-3.309 0-6 2.691-6 6v2.929c0 1.069-.416 2.073-1.172 2.829l-4.535 4.535c-.559-.473-1.183-.907-1.87-1.301l2.941-2.941c1.7-1.7 2.636-3.96 2.636-6.364v-.687c0-3.86 3.141-7 7-7h3v-2h-3c-4.963 0-9 4.038-9 9z"/></g></svg>