<svg height="512" viewBox="0 0 64 64" width="512" xmlns="http://www.w3.org/2000/svg"><g id="Filled_outline" data-name="Filled outline"><path d="m38 16s1-5-6-5-7 8-10 11-13 5-13 16 20 17 23-2c0 0 1-12 4-16z" fill="#55b56a"/><path d="m55 3h-5s-2 2-3 7c-2-4-7-7-7-7l-2 4c6 4 9 11 9 11v33a15.1 15.1 0 0 1 -4 10h5a17.935 17.935 0 0 0 3-10v-38a15.1 15.1 0 0 1 4-10z" fill="#55b56a"/><path d="m38 16s8 3 9 9v9s-2-10-11-14z" fill="#3e8051"/><path d="m28 25.022c-4.668 0-4.332 2.986-9 2.986a8.509 8.509 0 0 1 -4.4-1.175 13.146 13.146 0 0 0 -5.6 11.167c0 11 20 17 23-2a76.179 76.179 0 0 1 1.356-8.908c-1.465-.883-2.423-2.07-5.356-2.07z" fill="#fcf05a"/><path d="m37.952 12.177c-1.184-1.445-3.187-2.177-5.952-2.177-5.345 0-7.131 4.137-8.566 7.461a12.875 12.875 0 0 1 -2.141 3.832 16.514 16.514 0 0 1 -3.154 2.1c-4.039 2.317-10.139 5.823-10.139 14.607 0 5.714 5.143 10.766 11.463 11.261q.471.038.948.038c5.242 0 11.042-3.421 12.586-13.216.253-3.041 1.327-11.195 3.354-14.784 7.4 3.772 9.463 11.993 9.649 12.812v16.909a14.108 14.108 0 0 1 -3.707 9.273 1 1 0 0 0 .707 1.707h5a1 1 0 0 0 .8-.4 18.825 18.825 0 0 0 3.2-10.6v-38.02a14.108 14.108 0 0 1 3.707-9.273 1 1 0 0 0 -.707-1.707h-5a1 1 0 0 0 -.707.293 13.15 13.15 0 0 0 -2.693 5.213 24.471 24.471 0 0 0 -6.083-5.363.991.991 0 0 0 -.8-.1 1 1 0 0 0 -.615.513l-2 4a1 1 0 0 0 .34 1.279c5.158 3.431 8.049 9.286 8.558 10.381v2.284a18.925 18.925 0 0 0 -6.953-5.145 5.019 5.019 0 0 0 -1.095-3.178zm-18.332 35.091c-4.627-.368-9.62-4.01-9.62-9.268a12.022 12.022 0 0 1 4.705-9.984 9.2 9.2 0 0 0 4.3.992 7.829 7.829 0 0 0 5.067-1.669 5.906 5.906 0 0 1 3.928-1.317 5.879 5.879 0 0 1 3.932 1.326c.1.068.2.132.3.2a75.431 75.431 0 0 0 -1.223 8.3c-1.78 11.286-9.164 11.592-11.389 11.42zm13.1-21.8a7.585 7.585 0 0 0 -4.72-1.446 7.829 7.829 0 0 0 -5.067 1.669 5.906 5.906 0 0 1 -3.933 1.317 7.437 7.437 0 0 1 -2.393-.366c.85-.551 1.709-1.047 2.528-1.518a17.569 17.569 0 0 0 3.572-2.417 14.118 14.118 0 0 0 2.563-4.453c1.389-3.216 2.7-6.254 6.73-6.254 2.124 0 3.6.48 4.391 1.428a3.147 3.147 0 0 1 .642 2.271l-1.889 3.777a18.664 18.664 0 0 0 -2.424 5.987zm6.56-18.793 1.11-2.218c1.475 1.031 4.368 3.294 5.715 5.99a1 1 0 0 0 1.875-.247 15.215 15.215 0 0 1 2.486-6.2h2.387a16.474 16.474 0 0 0 -2.853 9v38a17.448 17.448 0 0 1 -2.534 9h-2.319a16.474 16.474 0 0 0 2.853-9v-33a.985.985 0 0 0 -.081-.394 29.362 29.362 0 0 0 -8.639-10.931zm6.72 18.434v3.351a20.255 20.255 0 0 0 -8.651-8.921l1.122-2.246c1.953.907 6.78 3.556 7.529 7.816z"/><path d="m26 31h2v2h-2z"/><path d="m20 34h2v2h-2z"/><path d="m25 37h2v2h-2z"/><path d="m14.71 40.634c-1.779-2.754.181-7.177.2-7.222l-1.821-.826c-.1.221-2.431 5.45-.065 9.126 1.406 2.182 4.089 3.288 7.976 3.288v-2c-3.16 0-5.276-.8-6.29-2.366z"/></g></svg>