<svg height="512pt" viewBox="-7 0 512 512.0005" width="512pt" xmlns="http://www.w3.org/2000/svg"><path d="m322.796875 84.816406c0-30.640625-14.242187-57.957031-36.472656-75.695312-2.671875-2.132813-6.472657-2.132813-9.144531 0-22.230469 17.738281-36.472657 45.054687-36.472657 75.695312 0 29.363282 13.078125 55.671875 33.730469 73.425782 4.21875 3.628906 10.410156 3.628906 14.628906 0 20.652344-17.753907 33.730469-44.0625 33.730469-73.425782zm0 0" fill="#badb47"/><path d="m445.878906 179.582031c21.675782-21.667969 30.925782-51.050781 27.753906-79.308593-.382812-3.394532-3.070312-6.082032-6.46875-6.460938-28.261718-3.171875-57.65625 6.074219-79.332031 27.742188-20.773437 20.761718-30.132812 48.609374-28.085937 75.761718.417968 5.546875 4.792968 9.921875 10.34375 10.339844 27.160156 2.046875 55.019531-7.3125 75.789062-28.074219zm0 0" fill="#badb47"/><path d="m118.882812 179.582031c-21.675781-21.667969-30.925781-51.050781-27.753906-79.308593.382813-3.394532 3.070313-6.082032 6.46875-6.460938 28.265625-3.171875 57.65625 6.074219 79.332032 27.742188 20.773437 20.761718 30.132812 48.609374 28.085937 75.761718-.417969 5.546875-4.792969 9.921875-10.34375 10.339844-27.160156 2.046875-55.019531-7.3125-75.789063-28.074219zm0 0" fill="#badb47"/><path d="m75.097656 352.949219 49.332032-47.695313c18.582031-17.957031 43.414062-27.992187 69.25-27.992187h126.167968c6.597656 0 12.558594 2.671875 16.878906 6.980469 4.3125 4.320312 6.984376 10.277343 6.984376 16.871093 0 13.171875-10.679688 23.84375-23.863282 23.84375h-50.824218c-4.148438 0-7.894532 1.679688-10.613282 4.394531-2.714844 2.71875-4.394531 6.460938-4.394531 10.609376 0 8.296874 6.722656 15.011718 15.007813 15.011718h71.144531c2.660156 0 5.230469-.949218 7.253906-2.679687l94.824219-87.304688c6.113281-5.21875 13.632812-7.789062 21.121094-7.789062 8.570312 0 17.121093 3.378906 23.496093 10.015625 3.585938 3.734375 3.726563 9.578125.324219 13.472656l-111.035156 127.074219c-6.363282 7.28125-15.574219 11.460937-25.25 11.460937h-144.894532c-15.292968 0-29.984374 6-40.90625 16.699219l-3.542968 3.472656" fill="#fedfc5"/><g fill="#fecbaa"><path d="m239.085938 354.972656h29.9375c-8.289063 0-15.007813-6.714844-15.007813-15.011718 0-4.148438 1.679687-7.890626 4.390625-10.609376 2.722656-2.710937 6.46875-4.394531 10.617188-4.394531h-29.9375c-4.148438 0-7.894532 1.679688-10.617188 4.394531-2.710938 2.71875-4.390625 6.460938-4.390625 10.609376 0 8.296874 6.71875 15.011718 15.007813 15.011718zm0 0"/><path d="m313.769531 301.113281c0 13.171875-10.675781 23.84375-23.859375 23.84375h29.9375c13.183594 0 23.859375-10.671875 23.859375-23.84375 0-6.59375-2.671875-12.554687-6.980469-16.871093-4.320312-4.3125-10.28125-6.980469-16.882812-6.980469h-29.9375c6.597656 0 12.558594 2.671875 16.882812 6.980469 4.3125 4.320312 6.980469 10.277343 6.980469 16.871093zm0 0"/><path d="m486.863281 267.214844c-6.375-6.636719-14.925781-10.015625-23.496093-10.015625-5.132813 0-10.277344 1.207031-14.972657 3.648437 3.097657 1.601563 5.992188 3.722656 8.535157 6.367188 3.578124 3.734375 3.722656 9.582031.320312 13.476562l-111.035156 127.070313c-6.363282 7.28125-15.574219 11.460937-25.246094 11.460937h29.933594c9.675781 0 18.886718-4.179687 25.25-11.460937l111.035156-127.070313c3.402344-3.894531 3.261719-9.742187-.324219-13.476562zm0 0"/><path d="m148.375 426.214844 13.183594 13.179687 3.542968-3.472656c10.921876-10.699219 25.613282-16.699219 40.90625-16.699219h-29.9375c-9.75 0-19.253906 2.449219-27.695312 6.992188zm0 0"/></g><path d="m164.496094 453.324219-48.9375 48.921875c-3.039063 3.035156-7.960938 3.035156-10.996094 0l-94.800781-94.769532c-3.039063-3.035156-3.039063-7.960937 0-11l48.9375-48.921874c3.039062-3.035157 7.960937-3.035157 10.996093 0l94.800782 94.769531c3.039062 3.035156 3.039062 7.960937 0 11zm0 0" fill="#25bed3"/><path d="m164.5 442.324219-94.800781-94.765625c-3.039063-3.039063-7.964844-3.039063-11 0l-12.359375 12.351562 45.859375 45.847656c23.242187 23.230469 23.242187 60.898438 0 84.128907l12.359375 12.355469c3.039062 3.039062 7.964844 3.039062 11 0l48.941406-48.921876c3.039062-3.035156 3.039062-7.957031 0-10.996093zm0 0" fill="#11a6bf"/><path d="m269.546875 163.925781c1.453125 1.25 3.042969 2.226563 4.707031 2.960938v28.453125c0 4.144531 3.355469 7.5 7.5 7.5 4.140625 0 7.5-3.355469 7.5-7.5v-28.453125c1.664063-.734375 3.253906-1.710938 4.703125-2.960938 23.097657-19.851562 36.339844-48.6875 36.339844-79.109375 0-8.375-.996094-16.710937-2.960937-24.777344-.980469-4.023437-5.039063-6.480468-9.0625-5.511718-4.023438.984375-6.492188 5.039062-5.511719 9.0625 1.683593 6.90625 2.539062 14.046875 2.539062 21.226562 0 23.730469-9.417969 46.328125-26.046875 63.019532v-78.433594c0-4.144532-3.359375-7.5-7.5-7.5-4.144531 0-7.5 3.355468-7.5 7.5v78.433594c-16.628906-16.691407-26.046875-39.289063-26.046875-63.019532 0-27.269531 12.226563-52.683594 33.546875-69.75 7.074219 5.664063 13.230469 12.339844 18.296875 19.835938 2.320313 3.433594 6.984375 4.335937 10.414063 2.015625 3.433594-2.316407 4.335937-6.980469 2.015625-10.414063-5.941407-8.792968-13.167969-16.613281-21.476563-23.246094-5.449218-4.34375-13.054687-4.34375-18.5 0-24.976562 19.929688-39.296875 49.65625-39.296875 81.558594 0 30.421875 13.246094 59.257813 36.339844 79.109375zm0 0"/><path d="m338.675781 236.21875c1.917969 0 3.835938-.730469 5.300781-2.191406l20.132813-20.125c1.695313.65625 3.511719 1.089844 5.417969 1.234375 2.632812.195312 5.261718.296875 7.878906.296875 27.59375 0 54.121094-10.902344 73.777344-30.546875 22.566406-22.5625 33.464844-53.707031 29.902344-85.445313-.777344-6.925781-6.15625-12.308594-13.085938-13.082031-31.75-3.5625-62.90625 7.332031-85.472656 29.890625-21.519532 21.511719-32.546875 51.265625-30.261719 81.628906.144531 1.90625.578125 3.71875 1.230469 5.417969l-20.125 20.121094c-2.929688 2.929687-2.929688 7.679687-.003906 10.605469 1.46875 1.464843 3.386718 2.195312 5.308593 2.195312zm54.457031-109.359375c16.914063-16.910156 39.460938-26.164063 63.0625-26.164063 3.316407 0 6.65625.183594 10 .554688 3.007813 27.132812-6.328124 53.742188-25.617187 73.027344-16.785156 16.777344-39.429687 26.09375-62.988281 26.148437l55.472656-55.453125c2.929688-2.929687 2.929688-7.675781.003906-10.605468-2.929687-2.929688-7.675781-2.929688-10.609375-.003907l-55.480469 55.464844c.046876-23.554687 9.375-46.191406 26.15625-62.96875zm0 0"/><path d="m113.578125 184.886719c19.65625 19.644531 46.183594 30.546875 73.777344 30.546875 2.617187 0 5.25-.101563 7.878906-.296875 1.90625-.144531 3.722656-.578125 5.421875-1.234375l20.128906 20.125c1.464844 1.460937 3.382813 2.191406 5.300782 2.191406 1.921874 0 3.839843-.730469 5.304687-2.195312 2.929687-2.929688 2.929687-7.679688 0-10.605469l-20.128906-20.121094c.65625-1.699219 1.089843-3.511719 1.230469-5.417969 2.289062-30.367187-8.742188-60.117187-30.261719-81.628906-22.566407-22.558594-53.71875-33.453125-85.472657-29.894531-6.925781.777343-12.308593 6.15625-13.082031 13.082031-3.5625 31.742188 7.335938 62.886719 29.902344 85.449219zm-15.011719-83.636719c27.15625-3.003906 53.769532 6.324219 73.0625 25.609375 16.785156 16.773437 26.109375 39.410156 26.160156 62.964844l-55.484374-55.460938c-2.929688-2.929687-7.679688-2.929687-10.605469 0-2.929688 2.929688-2.929688 7.679688 0 10.609375l55.476562 55.453125c-23.570312-.054687-46.207031-9.371093-62.988281-26.148437-19.292969-19.28125-28.625-45.894532-25.621094-73.027344zm0 0"/><path d="m492.273438 262.019531c-7.519532-7.832031-18.058594-12.320312-28.90625-12.320312-9.519532 0-18.753907 3.402343-25.988282 9.585937-.070312.0625-.140625.121094-.210937.1875l-94.6875 87.179688c-.652344.527344-1.46875.816406-2.308594.816406h-71.136719c-4.140625 0-7.507812-3.371094-7.507812-7.511719 0-2.003906.78125-3.890625 2.183594-5.300781 1.425781-1.417969 3.316406-2.203125 5.324218-2.203125h50.816406c17.292969 0 31.363282-14.058594 31.363282-31.34375 0-8.371094-3.257813-16.242187-9.1875-22.183594-5.929688-5.910156-13.804688-9.167969-22.175782-9.167969h-126.15625c-27.9375 0-54.378906 10.6875-74.460937 30.097657l-44.035156 42.574219-.183594-.183594c-5.957031-5.953125-15.644531-5.953125-21.601563 0l-48.9375 48.921875c-2.886718 2.882812-4.476562 6.71875-4.476562 10.800781s1.589844 7.917969 4.476562 10.800781l94.796876 94.765625c2.980468 2.976563 6.890624 4.464844 10.800781 4.464844 3.914062 0 7.828125-1.488281 10.804687-4.464844l48.9375-48.921875c2.886719-2.882812 4.476563-6.71875 4.476563-10.800781 0-2.894531-.8125-5.65625-2.308594-8.054688 9.363281-8.425781 21.363281-13.042968 34.035156-13.042968h144.890625c11.84375 0 23.105469-5.113282 30.894532-14.027344l111.035156-127.066406c5.996094-6.871094 5.753906-17.015625-.566406-23.601563zm-10.730469 13.734375-111.03125 127.0625c-4.941407 5.652344-12.085938 8.894532-19.601563 8.894532h-144.890625c-16.539062 0-32.183593 6.085937-44.34375 17.160156l-46.363281-46.347656c-2.933594-2.929688-7.679688-2.925782-10.609375.003906-2.925781 2.929687-2.925781 7.675781.003906 10.605468l51.46875 51.449219c.015625.015625.027344.035157.042969.050781.023438.023438.050781.042969.074219.066407l2.917969 2.921875c.027343.023437.082031.078125.082031.191406s-.054688.167969-.082031.195312l-48.933594 48.917969c-.109375.109375-.289063.109375-.398438 0l-94.800781-94.765625c-.023437-.023437-.078125-.078125-.078125-.191406s.054688-.167969.082031-.191406l48.933594-48.921875c.109375-.109375.289063-.109375.398437 0l17.441407 17.433593c2.929687 2.929688 7.679687 2.929688 10.605469 0 2.929687-2.929687 2.925781-7.679687 0-10.605468l-6.652344-6.648438 43.847656-42.394531c17.273438-16.691406 40.011719-25.882813 64.035156-25.882813h126.160156c4.371094 0 8.484376 1.703126 11.570313 4.777344 3.089844 3.097656 4.792969 7.207032 4.792969 11.574219 0 9.011719-7.339844 16.34375-16.363282 16.34375h-50.820312c-6 0-11.648438 2.335937-15.925781 6.597656-4.242188 4.253907-6.582031 9.902344-6.582031 15.90625 0 12.410157 10.097656 22.511719 22.507812 22.511719h71.140625c4.441406 0 8.75-1.59375 12.128906-4.480469.070313-.058593.140625-.121093.207031-.183593l94.710938-87.199219c4.507812-3.808594 10.238281-5.90625 16.148438-5.90625 6.886718 0 13.3125 2.738281 18.085937 7.707031.898437.933594.9375 2.375.089844 3.347656zm0 0"/></svg>