<svg id="Capa_1" enable-background="new 0 0 512 512" height="512" viewBox="0 0 512 512" width="512" xmlns="http://www.w3.org/2000/svg"><g><g><g><path d="m444.915 213.95v-161.478c0-12.89-10.106-23.806-22.991-24.138-13.327-.343-24.237 10.357-24.237 23.606v-28.287c0-13.249-10.911-23.95-24.238-23.606-12.885.332-22.99 11.248-22.991 24.137l-.001 13.758c0-13.249-10.911-23.949-24.237-23.606-12.886.332-22.991 11.248-22.991 24.138v76.077c0-13.249-10.911-23.949-24.237-23.606-12.886.331-22.992 11.247-22.992 24.137v129.295c0 29.161 16.499 51.922 39.195 66.755 5.042 3.295 8.03 8.957 8.03 14.98v185.848h105.819s0-181.89 0-181.913c0-6.684 2.238-13.556 6.12-18.993 3.407-4.771 8.196-8.337 12.978-11.623 13.536-9.299 26.736-19.362 37.888-31.523 16.187-17.652 30.074-37.226 44.09-56.597 3.146-4.348 2.258-10.408-2.006-13.667-15.529-11.869-37.485-10.234-51.085 3.804z" fill="#ffcebf"/><g fill="#ffb09e"><path d="m410.67 30.848c3.364-1.702 7.202-2.621 11.257-2.518 12.877.34 22.989 11.257 22.989 24.145v161.475c-11.664.003-21.121-9.452-21.121-21.116v-140.359c0-9.338-5.304-17.634-13.125-21.627z"/><path d="m363.44 2.564c3.364-1.702 7.202-2.621 11.257-2.518 12.877.34 22.989 11.257 22.989 24.145v165.269c-11.664.003-21.121-9.452-21.121-21.116v-144.153c0-9.338-5.304-17.634-13.125-21.627z"/><path d="m350.133 36.316v153.144c-5.83 0-11.113-2.363-14.93-6.181-3.828-3.828-6.191-9.101-6.191-14.93v-132.033c0-8.399-4.292-15.952-10.844-20.296 2.497-1.021 5.2-1.61 8.048-1.682 11.525-.299 21.235 7.656 23.649 18.377.01.01.01.021.01.031.165 1.166.258 2.363.258 3.57z"/><path d="m303.206 113.734v75.726c-5.83 0-11.113-2.363-14.93-6.181-3.828-3.828-6.191-9.101-6.191-14.93v-56.162c0-8.152-4.045-15.508-10.277-19.894 2.249-.815 4.664-1.29 7.181-1.352 13.052-.33 23.784 9.926 24.217 22.793z"/><path d="m510.117 211.313c-14.012 19.367-27.901 38.941-44.09 56.595-11.154 12.155-24.351 22.225-37.888 31.522-4.777 3.281-9.565 6.851-12.98 11.618-3.88 5.438-6.119 12.31-6.119 18.996v181.916h-17.933v-193.72c0-6.686 2.229-13.558 6.119-18.996 3.405-4.767 8.193-8.337 12.97-11.618 13.538-9.297 26.745-19.367 37.888-31.522 16.189-17.655 30.078-37.228 44.09-56.596 1.898-2.621 2.332-5.871 1.424-8.74 5.138 1.197 10.081 3.488 14.518 6.872 4.261 3.262 5.148 9.319 2.001 13.673z"/></g></g><g><path d="m67.085 213.95v-161.478c0-12.89 10.106-23.806 22.991-24.138 13.327-.343 24.237 10.357 24.237 23.606v-28.287c0-13.249 10.911-23.95 24.238-23.606 12.885.332 22.99 11.248 22.991 24.137l.001 13.758c0-13.249 10.911-23.949 24.237-23.606 12.886.332 22.991 11.248 22.991 24.138l.001 76.077c0-13.249 10.911-23.949 24.237-23.606 12.885.331 22.991 11.247 22.991 24.137v129.295c0 29.161-16.499 51.922-39.195 66.755-5.042 3.295-8.03 8.957-8.03 14.98v185.848h-105.818s0-181.89 0-181.913c0-6.684-2.238-13.556-6.12-18.993-3.407-4.771-8.196-8.337-12.978-11.623-13.536-9.299-26.736-19.362-37.888-31.523-16.187-17.652-30.074-37.226-44.089-56.597-3.146-4.348-2.258-10.408 2.006-13.667 15.529-11.869 37.485-10.234 51.085 3.804z" fill="#ffcebf"/><g fill="#ffb09e"><path d="m101.33 30.848c-3.364-1.702-7.202-2.621-11.257-2.518-12.877.34-22.989 11.257-22.989 24.145v161.475c11.664.003 21.121-9.452 21.121-21.116v-140.359c0-9.338 5.304-17.634 13.125-21.627z"/><path d="m148.56 2.564c-3.364-1.702-7.202-2.621-11.257-2.518-12.877.34-22.989 11.257-22.989 24.145v165.269c11.664.003 21.121-9.452 21.121-21.116v-144.153c0-9.338 5.304-17.634 13.125-21.627z"/><path d="m161.867 36.316v153.144c5.83 0 11.113-2.363 14.93-6.181 3.828-3.828 6.191-9.101 6.191-14.93v-132.033c0-8.399 4.292-15.952 10.844-20.296-2.497-1.021-5.2-1.61-8.048-1.682-11.525-.299-21.235 7.656-23.649 18.377-.01.01-.01.021-.01.031-.165 1.166-.258 2.363-.258 3.57z"/><path d="m208.794 113.734v75.726c5.83 0 11.113-2.363 14.93-6.181 3.828-3.828 6.191-9.101 6.191-14.93v-56.162c0-8.152 4.045-15.508 10.277-19.894-2.249-.815-4.664-1.29-7.181-1.352-13.052-.33-23.784 9.926-24.217 22.793z"/><path d="m1.883 211.313c14.012 19.367 27.901 38.941 44.09 56.595 11.154 12.155 24.351 22.225 37.888 31.522 4.777 3.281 9.565 6.851 12.98 11.618 3.88 5.438 6.119 12.31 6.119 18.996v181.916h17.933v-193.72c0-6.686-2.229-13.558-6.119-18.996-3.405-4.767-8.193-8.337-12.97-11.618-13.538-9.297-26.745-19.367-37.888-31.522-16.189-17.655-30.078-37.228-44.09-56.596-1.898-2.621-2.332-5.871-1.424-8.74-5.138 1.197-10.081 3.488-14.518 6.872-4.261 3.262-5.148 9.319-2.001 13.673z"/></g></g></g><g><g><g><path d="m264.139 189.451c-7.526-4.243-16.364-1.619-21.967 4.18-6.887 7.128-10.445 16.919-9.81 26.799 1.312 20.409 15.845 35.003 15.845 35.003h7.806 7.806s14.505-14.565 15.841-34.943c.672-10.241-5.507-25.394-15.521-31.039z" fill="#fe4fb7"/><path d="m279.66 220.492c-1.336 20.379-15.841 34.937-15.841 34.937h-15.615s-.106-.106-.31-.325c2.099-2.235 14.309-15.992 15.532-34.612.672-10.246-5.512-25.393-15.524-31.041-.015-.008-.03-.015-.045-.023 5.014-2.545 10.979-2.967 16.279.023 10.019 5.648 16.196 20.795 15.524 31.041z" fill="#fe2aa8"/></g><g><path d="m247.861 351.364c7.526 4.243 16.364 1.619 21.967-4.18 6.887-7.128 10.445-16.919 9.81-26.799-1.312-20.409-15.845-35.003-15.845-35.003h-7.806-7.806s-14.505 14.565-15.841 34.943c-.672 10.24 5.507 25.393 15.521 31.039z" fill="#feaee1"/><path d="m232.34 320.322c1.336-20.379 15.841-34.937 15.841-34.937h15.615s.106.106.31.325c-2.099 2.235-14.309 15.992-15.532 34.612-.672 10.246 5.512 25.393 15.524 31.041.015.008.03.015.045.023-5.014 2.544-10.979 2.967-16.279-.023-10.019-5.647-16.196-20.794-15.524-31.041z" fill="#fe93d3"/></g></g><g><g><path d="m189.609 223.173c-7.437 4.396-9.584 13.362-7.364 21.114 2.729 9.528 9.43 17.505 18.304 21.895 18.331 9.068 38.236 3.779 38.236 3.779l3.903-6.76 3.903-6.76s-5.361-19.844-22.341-31.191c-8.532-5.702-24.745-7.927-34.641-2.077z" fill="#feaee1"/><path d="m224.252 225.252c16.981 11.347 22.336 31.188 22.336 31.188l-7.807 13.523s-.144.039-.436.106c-.886-2.935-6.696-20.388-22.209-30.757-8.538-5.705-24.747-7.923-34.645-2.076-.014.009-.028.019-.042.028.303-5.614 2.92-10.992 8.159-14.087 9.901-5.854 26.107-3.63 34.644 2.075z" fill="#fe93d3"/></g><g><path d="m322.391 317.642c7.437-4.396 9.584-13.362 7.364-21.114-2.729-9.528-9.43-17.505-18.304-21.895-18.331-9.068-38.236-3.779-38.236-3.779l-3.903 6.76-3.903 6.76s5.361 19.844 22.341 31.191c8.532 5.701 24.745 7.926 34.641 2.077z" fill="#fe4fb7"/><path d="m287.748 315.562c-16.981-11.347-22.336-31.188-22.336-31.188l7.807-13.523s.144-.039.436-.106c.886 2.935 6.696 20.388 22.209 30.757 8.538 5.705 24.747 7.923 34.645 2.076.014-.009.028-.019.042-.028-.303 5.614-2.92 10.992-8.159 14.087-9.901 5.855-26.107 3.631-34.644-2.075z" fill="#fe2aa8"/></g></g><g><g><path d="m181.47 303.544c.089 8.639 6.78 14.981 14.604 16.934 9.616 2.4 19.875.586 28.114-4.904 17.019-11.341 22.391-31.224 22.391-31.224l-3.903-6.76-3.903-6.76s-19.866-5.279-38.182 3.752c-9.205 4.539-19.239 17.467-19.121 28.962z" fill="#fe4fb7"/><path d="m200.592 274.582c18.317-9.032 38.177-3.749 38.177-3.749l7.807 13.523s-.039.144-.126.43c-2.985-.7-21.004-4.395-37.741 3.855-9.21 4.541-19.235 17.47-19.12 28.965.001.017.002.034.003.051-4.71-3.07-8.059-8.024-8.12-14.11-.118-11.501 9.911-24.423 19.12-28.965z" fill="#fe2aa8"/></g><g><path d="m330.53 237.27c-.089-8.639-6.78-14.981-14.604-16.934-9.616-2.4-19.875-.586-28.114 4.904-17.019 11.341-22.391 31.224-22.391 31.224l3.903 6.76 3.903 6.76s19.866 5.279 38.182-3.752c9.205-4.539 19.239-17.467 19.121-28.962z" fill="#feaee1"/><path d="m311.408 266.232c-18.317 9.032-38.177 3.749-38.177 3.749l-7.807-13.523s.039-.144.126-.43c2.985.7 21.004 4.395 37.741-3.855 9.21-4.541 19.235-17.47 19.12-28.965-.001-.017-.002-.034-.003-.051 4.71 3.07 8.059 8.024 8.12 14.11.118 11.502-9.911 24.424-19.12 28.965z" fill="#fe93d3"/></g></g><circle cx="256" cy="270.407" fill="#eaf6ff" r="24.079"/><path d="m280.083 270.409c0 13.297-10.782 24.079-24.079 24.079-6.977 0-13.259-2.967-17.654-7.709 1.352.242 2.741.362 4.153.362 13.297 0 24.079-10.782 24.079-24.079 0-6.32-2.439-12.074-6.426-16.37 11.319 1.964 19.927 11.833 19.927 23.717z" fill="#d8ecfe"/></g></g></svg>