<svg id="Capa_1" enable-background="new 0 0 496.428 496.428" height="512" viewBox="0 0 496.428 496.428" width="512" xmlns="http://www.w3.org/2000/svg"><g><path d="m165.832 204.825c1.479 8.159 3.752 16.149 6.702 23.898 2.688 7.06 4.086 14.579 4.086 22.2v22.231c0 35.07-28.879 63.679-63.927 62.44-.705-.025-1.417-.059-2.137-.101-51.811-3.048-91.431-49.373-103.013-82.898-9.242-26.754-19.501-133.863 32.28-189.668 26.279-28.321 67.615-37.668 103.311-22.886 4.341 1.798 8.723 3.985 13.038 6.642 7.873 4.848 14.315 11.709 18.809 19.789l.004.007c4.516 8.12 6.887 17.258 6.887 26.55v24.16c0 6.523-1.176 12.946-3.414 18.983l-14.799 39.384v17.288z" fill="#f07281"/><path d="m46.209 252.596c-9.242-26.754-19.501-133.863 32.28-189.668 13.334-14.37 30.547-23.844 48.931-27.771-31.578-6.795-65.102 3.529-87.597 27.771-51.781 55.805-41.523 162.914-32.28 189.668 11.581 33.525 51.202 79.85 103.013 82.898.72.042 1.432.076 2.137.101 6.933.245 13.618-.694 19.893-2.604-43.553-10.584-76.07-50.559-86.377-80.395z" fill="#eb5569"/><g><path d="m232.92 433.453v-205.72c0-35.214-28.547-63.76-63.76-63.76h-24.713c-7.773 0-14.462 5.974-14.828 13.738-.39 8.29 6.216 15.134 14.42 15.134h25.121c19.268 0 34.888 15.62 34.888 34.888v205.72c0 2.9 2.351 5.251 5.251 5.251h18.371c2.899 0 5.25-2.351 5.25-5.251z" fill="#62dbfb"/><g><g><path d="m114.595 217.632c-1.827 0-3.658-.663-5.102-2.005-10.336-9.599-16.264-23.165-16.264-37.219s5.928-27.62 16.264-37.219c3.036-2.82 7.782-2.645 10.6.392 2.819 3.035 2.644 7.78-.392 10.599-7.291 6.771-11.472 16.331-11.472 26.229s4.181 19.457 11.472 26.229c3.035 2.818 3.21 7.563.392 10.599-1.478 1.589-3.485 2.395-5.498 2.395z" fill="#eb5569"/></g></g></g><path d="m330.573 204.269c-1.495 8.608-3.956 17.001-6.959 25.205-2.505 6.841-3.806 14.098-3.806 21.45v22.231c0 35.07 28.879 63.679 63.927 62.44.705-.025 1.418-.059 2.137-.101 51.811-3.048 91.431-49.373 103.013-82.898 9.242-26.754 19.501-133.863-32.28-189.668-26.279-28.321-67.615-37.668-103.311-22.886-4.341 1.798-8.723 3.985-13.038 6.642-7.873 4.848-14.315 11.709-18.809 19.789l-.004.007c-4.516 8.12-6.887 17.258-6.887 26.55v24.16c0 6.523 1.176 12.946 3.414 18.983l15.235 36.909v16.034z" fill="#f07281"/><path d="m350.118 273.161v-22.23c0-7.352 1.301-14.609 3.806-21.45 3.004-8.204 5.464-16.597 6.959-25.205l2.631-15.153v-16.034l-15.235-36.909c-2.238-6.037-3.414-12.46-3.414-18.983v-24.16c0-9.292 2.37-18.43 6.887-26.55l.004-.007c4.494-8.08 10.936-14.942 18.809-19.789 4.316-2.657 8.697-4.845 13.038-6.643 6.478-2.683 13.143-4.56 19.869-5.684-16.598-2.757-33.969-1.036-50.179 5.677-4.341 1.798-8.723 3.985-13.038 6.642-7.873 4.848-14.315 11.709-18.809 19.789l-.004.007c-4.516 8.12-6.887 17.258-6.887 26.55v24.16c0 6.523 1.176 12.946 3.414 18.983l15.235 36.909v16.034l-2.631 15.153c-1.495 8.608-3.956 17.001-6.959 25.205-2.505 6.841-3.806 14.098-3.806 21.45v22.231c0 35.07 28.879 63.679 63.927 62.44.705-.025 1.417-.058 2.137-.101 4.066-.239 8.056-.746 11.964-1.491-27.315-6.462-47.718-31.366-47.718-60.841z" fill="#eb5569"/><g><path d="m292.381 458.083v-230.35c0-19.268 15.62-34.888 34.888-34.888h24.713c7.773 0 14.462-5.974 14.828-13.738.39-8.29-6.216-15.134-14.42-15.134h-25.121c-35.214 0-63.76 28.546-63.76 63.76v230.351c0 2.9 2.351 5.251 5.251 5.251h18.371c2.899-.001 5.25-2.352 5.25-5.252z" fill="#fae2c0"/><g><g><path d="m381.833 217.632c-2.013 0-4.02-.805-5.498-2.396-2.819-3.035-2.644-7.78.392-10.599 7.291-6.771 11.472-16.331 11.472-26.229s-4.181-19.457-11.472-26.229c-3.035-2.818-3.21-7.563-.392-10.599 2.819-3.034 7.564-3.211 10.6-.392 10.336 9.599 16.264 23.165 16.264 37.219s-5.928 27.62-16.264 37.219c-1.444 1.343-3.276 2.006-5.102 2.006z" fill="#eb5569"/></g></g></g></g></svg>