<svg id="Capa_1" enable-background="new 0 0 497 497" height="512" viewBox="0 0 497 497" width="512" xmlns="http://www.w3.org/2000/svg"><g><path d="m420.35 63.47v302.3h-139.93l-34.78 20.35c-19.45 33.18-62.11 44.31-95.29 24.86-17.46-10.23-28.81-26.89-32.82-45.21h-39.32v-302.3z" fill="#e94444"/><g fill="#d83131"><path d="m185.436 428.024c-13.244 0-26.65-3.406-38.878-10.574-18.511-10.846-31.762-29.098-36.354-50.077-.886-4.046 1.677-8.044 5.723-8.93 4.045-.885 8.044 1.677 8.93 5.723 3.699 16.901 14.373 31.605 29.285 40.342 29.56 17.33 67.702 7.377 85.028-22.182 2.095-3.573 6.691-4.771 10.263-2.677 3.573 2.095 4.772 6.689 2.677 10.263-14.341 24.466-40.176 38.112-66.674 38.112z"/><path d="m385.153 100.051c-37.658-42.665-103.004-46.739-145.669-9.08-20.667 18.243-32.994 43.441-34.708 70.955-1.492 23.929 5.203 47.115 18.973 66.348-9.382 4.553-17.81 11.252-24.492 19.866-5.275-6.808-11.89-12.752-19.763-17.366-33.123-19.417-75.864-8.264-95.278 24.859-2.095 3.573-.896 8.169 2.678 10.263 3.574 2.096 8.168.897 10.263-2.678 15.232-25.986 48.766-34.735 74.753-19.503 25.986 15.232 34.735 48.766 19.503 74.753-2.095 3.573-.896 8.169 2.678 10.263 1.192.699 2.497 1.031 3.786 1.031 2.574 0 5.081-1.327 6.477-3.709 11.834-20.189 12.293-43.943 3.362-63.819 15.498-25.211 48.49-33.555 74.141-18.519 25.986 15.232 34.736 48.766 19.504 74.753-2.095 3.573-.896 8.169 2.678 10.263 1.192.699 2.497 1.031 3.786 1.031 2.574 0 5.081-1.327 6.477-3.709 19.415-33.122 8.263-75.864-24.859-95.278-15.947-9.348-34.118-11.591-50.848-7.728-13.539-17.081-20.212-38.268-18.846-60.186 1.465-23.515 12-45.051 29.664-60.642 36.463-32.185 92.312-28.703 124.497 7.759 2.741 3.105 7.48 3.4 10.586.66 3.102-2.742 3.398-7.481.657-10.587z"/><path d="m178.58 173.45c-13.53 19.33-35.18 29.69-57.16 29.69-13.78 0-27.68-4.06-39.8-12.54-1.17-.82-2.31-1.66-3.41-2.55v-21.21c3.31 4.31 7.32 8.19 12 11.47 24.68 17.26 58.81 11.22 76.08-13.46 2.37-3.4 7.05-4.22 10.44-1.85 3.39 2.38 4.22 7.05 1.85 10.45z"/><path d="m420.35 121.45v36.44c-5.29-30.62-32.57-53.47-64.48-52.42-16.89.56-32.56 7.68-44.11 20.03-11.55 12.34-17.6 28.45-17.03 45.35.14 4.14-3.11 7.61-7.25 7.75h-.25c-4.03 0-7.36-3.2-7.49-7.25-.7-20.9 6.78-40.83 21.06-56.1 14.29-15.28 33.67-24.07 54.57-24.77 26.34-.88 50.13 11.43 64.98 30.97z"/><path d="m420.35 234.14v18.54c-10.78 6.54-23.3 10.17-36.21 10.17-6.89 0-13.9-1.04-20.82-3.21-17.75-5.57-32.26-17.73-40.86-34.21-8.61-16.49-10.27-35.34-4.7-53.09 1.24-3.95 5.45-6.15 9.4-4.9 3.96 1.24 6.15 5.45 4.91 9.4-4.37 13.92-3.06 28.71 3.69 41.65 6.75 12.93 18.13 22.47 32.05 26.84 18.9 5.94 38.66 1.04 52.54-11.19z"/></g><path d="m462.799 136.665c13.455 5.925 21.857 18.381 21.857 34.029v6.257c0 15.648-9.401 29.103-22.857 35.029-2.492 1.091-1.492 5.706 1 6.797 13.455 5.926 21.857 18.381 21.857 34.029v6.257c0 15.648-9.401 29.103-22.857 35.029-2.492 1.091-1.492 5.706 1 6.797 13.455 5.925 21.857 18.381 21.857 34.029v6.257c0 18.012-11.461 32.125-28.221 36.189-1.433.342-3.449 2.615-3.449 4.091v10.236c0 21.135-16.135 37.259-37.259 37.259h-6.257c-4.144 0-8.134.341-11.872-.876-10.385-3.384-18.818-11.089-23.167-20.991-1.091-2.492-4.706-2.492-5.808 0-5.915 13.466-19.381 22.867-35.029 22.867h-6.257c-21.13 0-38.259-17.129-38.259-38.259 0-1.306-1.313-2.196-2.533-1.731-27.321 10.409-46.785 36.894-46.785 67.831v28.515c0 5.907-4.789 10.696-10.696 10.696h-16.044c-5.907 0-10.696-4.789-10.696-10.696v-28.515c0-52.174 36.5-95.968 85.31-107.192.843-.194 1.443-.935 1.443-1.799v-3.229c0-21.13 17.129-38.259 38.259-38.259h6.257c10.995 0 20.9 4.642 27.884 12.054 1.54 1.636 4.236 1.23 5.198-.802 3.915-8.268 10.696-14.91 19.071-18.621 2.535-1.134 2.642-4.738.107-5.851-13.455-5.926-22.846-19.381-22.846-35.029v-6.257c0-15.648 9.391-29.103 22.846-35.029 2.492-1.091 2.492-4.706 0-5.797-13.455-5.925-22.846-19.381-22.846-35.029v-6.257c0-15.648 9.391-29.103 22.846-35.029 2.535-1.112 2.428-4.717-.107-5.851-8.332-3.701-15.092-10.289-19.006-18.493-.973-2.032-3.669-2.428-5.209-.792-6.974 7.455-16.921 12.118-27.937 12.118h-6.257c-15.573 0-28.975-9.305-34.943-22.664-1.155-2.578-4.738-2.578-5.893 0-5.968 13.359-19.37 22.664-34.943 22.664h-6.257c-15.648 0-29.103-9.391-35.029-22.846-1.091-2.492-4.706-2.492-5.797 0-5.925 13.455-19.381 22.846-35.029 22.846h-6.257c-10.953 0-20.835-4.61-27.809-11.979-1.529-1.615-4.214-1.219-5.177.792-1.779 3.678-4.128 7.029-6.933 9.936-3.403 3.526-8.477 6.401-13.02 8.418-2.535 1.134-1.642 5.738.893 6.851 13.455 5.925 21.846 18.381 21.846 34.029v6.257c0 15.648-9.391 29.103-22.846 35.029-2.492 1.091-1.492 5.706 1 6.797 13.455 5.926 21.846 18.381 21.846 34.029v6.257c0 15.648-9.391 29.103-22.846 35.029-2.492 1.091-1.492 5.706 1 6.797 13.455 5.925 21.846 18.381 21.846 34.029v6.257c0 21.13-16.129 37.259-37.259 37.259-1.223 0-3.214 1.991-3.214 3.214v1.979c0 33.499-20.648 61.035-50.682 71.357-7.208 2.475-14.59 1.3-19.402-3.56-3.299-3.332-5.391-7.927-5.391-13.152 0-7.926 4.941-15.102 12.439-17.637 15.445-5.209 26.6-19.83 26.6-37.007v-1.979c0-1.223-.991-2.214-2.214-2.214h-4.266c-21.13 0-38.259-17.129-38.259-38.259v-6.257c0-15.648 9.402-29.103 22.857-35.029 2.492-1.091 2.492-4.706 0-5.797-13.455-5.926-22.857-19.381-22.857-35.029v-6.257c0-15.648 9.402-29.103 22.857-35.029 2.492-1.091 2.492-4.706 0-5.797-13.455-5.925-22.857-19.381-22.857-35.029v-6.257c0-15.648 9.402-29.103 22.857-35.029 2.492-1.091 2.492-4.706 0-5.797-13.455-5.925-22.857-19.381-22.857-35.029v-6.257c0-18.012 12.461-33.125 29.221-37.189 1.433-.342 2.449-1.615 2.449-3.091v-10.044c.001-21.13 17.13-38.259 38.259-38.259h6.257c15.541 0 28.911 9.263 34.9 22.557 1.145 2.556 4.717 2.556 5.861 0 5.991-13.294 19.36-22.557 34.901-22.557h6.257c15.648 0 29.103 9.402 35.029 22.857 1.091 2.492 4.706 2.492 5.797 0 5.925-13.455 19.381-22.857 35.029-22.857h6.257c15.573 0 28.975 9.305 34.943 22.675 1.155 2.578 4.738 2.578 5.893 0 5.968-13.37 19.37-22.675 34.943-22.675h6.257c15.648 0 29.114 9.412 35.029 22.878 1.102 2.492 4.717 2.492 5.808 0 4.361-9.911 12.802-17.627 23.197-21.009 3.728-1.213 7.708-1.869 11.842-1.869l6.257 1c21.13 0 37.259 16.129 37.259 37.259v10.043c0 1.476 2.016 3.749 3.449 4.091 16.76 4.064 28.221 18.178 28.221 36.189v6.257c0 15.648-9.401 29.103-22.857 35.029-2.492 1.091-1.492 5.706 1 6.797z" fill="#f47c7c"/><path d="m462.799 135.67c13.46 5.92 22.86 19.38 22.86 35.02v6.26c0 15.65-9.4 29.1-22.86 35.03-2.49 1.09-2.49 4.71 0 5.8 13.46 5.92 22.86 19.38 22.86 35.03v6.25c0 15.65-9.4 29.11-22.86 35.03-2.49 1.09-2.49 4.71 0 5.8 13.46 5.92 22.86 19.38 22.86 35.03v6.25c0 18.02-12.46 33.13-29.22 37.19-1.44.34-2.45 1.62-2.45 3.09v10.24c0 21.13-17.14 38.26-38.26 38.26h-6.26c-4.14 0-8.14-.66-11.87-1.88 15.32-5 26.39-19.4 26.39-36.38v-10.24c0-1.47 1.01-2.75 2.45-3.09 16.76-4.06 29.22-19.17 29.22-37.19v-6.25c0-15.65-9.4-29.11-22.86-35.03-2.49-1.09-2.49-4.71 0-5.8 13.46-5.92 22.86-19.38 22.86-35.03v-6.25c0-15.65-9.4-29.11-22.86-35.03-2.49-1.09-2.49-4.71 0-5.8 13.46-5.93 22.86-19.38 22.86-35.03v-6.26c0-15.64-9.4-29.1-22.86-35.02-2.49-1.1-2.49-4.71 0-5.8 13.46-5.93 22.86-19.38 22.86-35.03v-6.26c0-18.01-12.46-33.12-29.22-37.19-1.44-.34-2.45-1.61-2.45-3.09v-10.04c0-16.99-11.07-31.39-26.39-36.38 3.73-1.22 7.73-1.88 11.87-1.88h6.26c21.13 0 38.26 17.13 38.26 38.26v10.04c0 1.48 1.01 2.75 2.45 3.09 16.76 4.07 29.22 19.18 29.22 37.19v6.26c0 15.65-9.4 29.1-22.86 35.03-2.49 1.09-2.49 4.7 0 5.8z" fill="#ee6161"/><path d="m133.989 170.69v6.26c0 15.65-9.39 29.1-22.84 35.03-2.5 1.09-2.5 4.71 0 5.8 13.45 5.92 22.84 19.38 22.84 35.03v6.25c0 15.65-9.39 29.11-22.84 35.03-2.5 1.09-2.5 4.71 0 5.8 13.45 5.92 22.84 19.38 22.84 35.03v6.25c0 21.13-17.13 38.26-38.26 38.26-.61 0-1.16.25-1.56.65s-.65.96-.65 1.57v1.97c0 33.5-21.65 62.04-51.68 72.36-7.21 2.47-14.59.3-19.41-4.56 24.4-12.79 41.09-38.38 41.09-67.8v-1.97c0-.61.25-1.17.65-1.57s.95-.65 1.56-.65c21.13 0 38.26-17.13 38.26-38.26v-6.25c0-15.65-9.39-29.11-22.84-35.03-2.5-1.09-2.5-4.71 0-5.8 13.45-5.92 22.84-19.38 22.84-35.03v-6.25c0-15.65-9.39-29.11-22.84-35.03-2.5-1.09-2.5-4.71 0-5.8 13.45-5.93 22.84-19.38 22.84-35.03v-6.26c0-15.64-9.39-29.1-22.84-35.02-2.54-1.12-2.43-4.72.1-5.86 8.29-3.67 15.02-10.21 18.95-18.35.97-2.01 3.65-2.41 5.18-.79 4.8 5.07 10.97 8.83 17.92 10.69-3.4 3.55-7.49 6.43-12.05 8.45-2.53 1.14-2.64 4.74-.1 5.86 13.45 5.92 22.84 19.38 22.84 35.02z" fill="#ee6161"/></g></svg>