<svg id="Capa_1" enable-background="new 0 0 496.998 496.998" height="512" viewBox="0 0 496.998 496.998" width="512" xmlns="http://www.w3.org/2000/svg"><g><path d="m300.417 8.704-17-1h-8c-2.761 0-5 2.238-5 5v58.502h34.999l-1-58.502c.001-2.761-1.238-4-3.999-4z" fill="#8aaadc"/><path d="m305.417 12.706v58.5h-17v-58.5c0-2.76-2.24-5-5-5h17c2.76 0 5 2.24 5 5z" fill="#7398d4"/><path d="m239.999 8.704-16.957-1h-8.042c-2.761 0-5 2.238-5 5v58.502h34.999l-1-58.502c0-2.761-1.238-4-4-4z" fill="#e94444"/><path d="m245 12.706v58.5h-17v-58.5c0-2.76-2.24-5-5-5h17c2.76 0 5 2.24 5 5z" fill="#d83131"/><path d="m286.764 296.413c0 28.959-23.476 52.435-52.435 52.435-9.393 0-18.208-2.47-25.833-6.795-3.163-1.794-6.122-3.908-8.832-6.298-10.896-9.608-17.77-23.673-17.77-39.342 0-28.959 23.476-52.435 52.435-52.435s52.435 23.475 52.435 52.435z" fill="#8aaadc"/><path d="m253.923 487.439-3.472-.532-5.678-2.504c-4.962-2.189-7.3-7.944-5.214-12.95 18.478-44.33 27.611-85.638 27.159-122.909-.451-37.214-10.539-71.793-29.982-102.777l24.41-15.946c22.42 35.725 34.051 75.547 34.57 118.359.503 41.427-9.433 86.801-29.544 135.002-2.15 5.153-7.14 6.511-12.249 4.257z" fill="#e94444"/><path d="m267.17 483.186c-2.15 5.15-8.14 7.51-13.25 5.25l-3.47-1.53c1.15-.98 2.1-2.23 2.72-3.72 20.11-48.2 30.05-93.58 29.55-135.01-.49-40.28-10.82-77.92-30.72-111.98l10.15-6.37c22.42 35.72 34.05 75.54 34.57 118.35.5 41.43-9.44 86.81-29.55 135.01z" fill="#d83131"/><path d="m491.51 91.536c-45.09 61.38-107.45 98.99-177.61 131.13-7.23 3.31-14.54 6.56-21.9 9.75-18.99 8.23-36.07 23.03-47.07 40.56-44.52 70.91-104.57 109.18-182.84 117.64-6.763.732-13.349 1.227-19.548-.323-24.216-6.054-42.542-28.059-42.542-54.627v-138.34c0-78.49 63.63-142.11 142.11-142.11h182.12l149.99 1c18.7 0 28.36 20.25 17.29 35.32z" fill="#f47c7c"/><path d="m492.51 91.536c-45.09 61.38-108.45 99.99-178.61 132.13-24.35-49.68-24.42-105 10.33-168.45h149.99c18.7 0 29.36 21.25 18.29 36.32z" fill="#e94444"/><path d="m308.64 211.886c1.59 3.96 3.35 7.89 5.26 11.78-7.23 3.31-14.54 6.56-21.9 9.75-18.99 8.23-35.07 22.03-46.07 39.56-44.52 70.91-105.57 110.18-183.84 118.64-6.76.73-13.35.23-19.55-1.33 73.28-10.73 130.87-49.59 173.39-117.31 11-17.53 27.08-31.33 46.07-39.56 7.36-3.19 14.67-6.44 21.9-9.75 8.35-3.83 16.6-7.74 24.74-11.78z" fill="#ee6161"/><path d="m492.51 91.536c-45.09 61.38-108.45 99.99-178.61 132.13-1.91-3.89-3.67-7.82-5.26-11.78 60.24-29.87 114.15-66.28 153.87-120.35 11.07-15.07.41-36.32-18.29-36.32h30c18.7 0 29.36 21.25 18.29 36.32z" fill="#d83131"/><g fill="#e94444"><path d="m59.055 348.307c-4.142 0-7.5-3.358-7.5-7.5 0-4.142 3.358-7.5 7.5-7.5 4.142 0 7.5 3.358 7.5 7.5 0 4.142-3.358 7.5-7.5 7.5z"/><path d="m91.536 331.607c-4.142 0-7.5-3.358-7.5-7.5 0-4.142 3.358-7.5 7.5-7.5 4.142 0 7.5 3.358 7.5 7.5 0 4.142-3.357 7.5-7.5 7.5z"/><path d="m59.055 312.482c-4.142 0-7.5-3.358-7.5-7.5 0-4.142 3.358-7.5 7.5-7.5 4.142 0 7.5 3.358 7.5 7.5 0 4.142-3.358 7.5-7.5 7.5z"/></g></g></svg>