<svg id="Capa_1" enable-background="new 0 0 512 512" height="512" viewBox="0 0 512 512" width="512" xmlns="http://www.w3.org/2000/svg"><g><path d="m289.691 409.69c5.545 4.445 11.489 8.566 17.815 12.308 28.171 16.66 59.267 23.036 88.445 20.311 5.763-.538 9.257-6.571 6.949-11.879-10.625-24.436-28.606-46.634-52.967-62.974l-53.241 6.915z" fill="#ccf49f"/><path d="m222.891 409.69c-5.545 4.445-11.489 8.566-17.815 12.308-28.171 16.66-59.267 23.036-88.445 20.311-5.763-.538-9.257-6.571-6.949-11.879 10.625-24.436 28.606-46.634 52.967-62.974l53.241 6.915z" fill="#95d6a4"/><path d="m36.805 144.466c-5.523-1.004-10.43 3.405-10.02 9.004 3.05 41.63 19.917 83.571 50.981 118.141 33.706 37.509 77.821 59.324 122.536 64.881-.762-45.053-17.754-91.241-51.459-128.75-31.064-34.571-70.97-55.81-112.038-63.276z" fill="#ff8086"/><path d="m133.603 261.143c-38.798-22.143-81.474-30.024-121.431-25.419l-3.672 9.776c15.996 38.555 40.135 69.463 80.5 92.5 43.797 24.996 89.775 37.956 133.966 29.157-14.901-42.523-45.566-81.017-89.363-106.014z" fill="#ff9a9f"/><path d="m98.265 333.678c-40.947-23.369-70.254-58.726-86.094-97.953-1.612.186-3.225.393-4.827.619-5.559.785-8.829 6.514-6.677 11.7 15.996 38.555 45.205 73.057 85.57 96.094 43.797 24.995 92.537 31.819 136.729 23.02-.961-2.743-2.17-5.415-3.262-8.122-39.964 4.609-82.634-3.212-121.439-25.358z" fill="#ff8086"/><path d="m475.195 144.466c-41.068 7.467-80.974 28.706-112.038 63.275-33.706 37.509-50.697 83.698-51.459 128.75l157.308-118.476c9.228-20.865 14.613-42.749 16.21-64.546.409-5.598-4.498-10.008-10.021-9.003z" fill="#ffb9b9"/><path d="m434.234 271.61c14.789-16.458 26.376-34.624 34.771-53.595-34.33 1.455-68.426 11.2-98.903 28.594-19.153 10.931-36.181 24.605-50.914 40.212-4.694 16.386-7.21 33.102-7.49 49.669 44.715-5.556 88.831-27.371 122.536-64.88z" fill="#ff9a9f"/><path d="m504.655 236.343c5.559.785 8.829 6.514 6.677 11.7-15.996 38.555-45.206 73.057-85.57 96.093-43.797 24.996-92.537 31.819-136.729 23.021 14.902-42.524 45.566-81.018 89.364-106.014 40.365-23.036 84.927-30.637 126.258-24.8z" fill="#ffb9b9"/><path d="m267.215 43.358-9.882-2.192c-43.536 33.583-72.583 76.286-72.583 124.834l71.367 103.084 75.439-104.117c.001-46.331-24.285-88.649-64.341-121.609z" fill="#ffb9b9"/><path d="m195.59 164.56c1.785-47.324 28.744-89.533 71.625-121.201-1.92-1.58-3.837-3.163-5.828-4.699-2.99-2.306-7.277-2.306-10.267 0-43.536 33.582-70.17 77.759-70.17 126.308z" fill="#ff9a9f"/><path d="m238.151 183.263c-22.9-45.27-61.374-77.177-106.336-93.827l-12.815 4.064c-10.31 42.134-5.419 87.364 13 128l74.051 47.584 32.101-85.82c-.001 0-.001 0-.001-.001z" fill="#ff9a9f"/><path d="m141.25 222.447c-19.217-42.395-21.377-89.289-9.434-133.011-2.74-1.015-5.475-1.963-8.262-2.865-4.515-1.461-9.436 1.285-10.564 5.895-10.31 42.135-7.416 86.73 11.003 127.366z" fill="#ff8086"/><path d="m275.792 183.264v-.001c24.291-48.02 66.104-81.004 114.598-96.692 4.515-1.461 9.436 1.285 10.564 5.895 8.296 33.904 8.043 69.401-1.969 103.146l-91.092 73.472z" fill="#ff9a9f"/><path d="m298.597 244.232 9.296 24.852 82.058-49.252c3.595-7.931 6.605-16.035 9.034-24.22-38.249 6.214-73.055 22.903-100.388 48.62z" fill="#ff8086"/><path d="m268.173 168.658-12.09-1.575c-43.536 33.582-66.417 78.035-66.417 126.583l66.451 99.981 75.439-104.117c.001-45.971-23.882-88.024-63.383-120.872z" fill="#ff8086"/><path d="m194.798 293.607c1.082-48.661 28.905-92.316 73.375-124.949-2.214-1.841-4.476-3.653-6.787-5.436-2.99-2.306-7.277-2.306-10.267 0-43.536 33.582-70.17 77.759-70.17 126.308z" fill="#e5646e"/><path d="m214.418 388.315c0 32.15 13.589 61.527 36.009 84.344 3.159 3.215 8.493 3.215 11.652 0 22.42-22.817 36.009-52.193 36.009-84.344z" fill="#b3e59f"/><path d="m431.991 209.438c4.554-.017 8.352 3.782 8.336 8.336-.173 46.986-16.635 91.97-50.337 125.672-35.658 35.658-83.947 52.017-133.873 50.202-1.815-49.926 14.544-98.215 50.202-133.873 33.702-33.702 78.687-50.165 125.672-50.337z" fill="#ff9a9f"/><path d="m80.243 209.438c-4.554-.017-8.352 3.782-8.336 8.336.173 46.986 16.635 91.97 50.337 125.672 35.658 35.658 83.947 52.017 133.873 50.202 1.815-49.926-14.544-98.215-50.202-133.873-33.702-33.702-78.686-50.165-125.672-50.337z" fill="#e5646e"/></g></svg>