<svg id="Layer_1" height="512" viewBox="0 0 512 512" width="512" xmlns="http://www.w3.org/2000/svg" xmlns:xlink="http://www.w3.org/1999/xlink" data-name="Layer 1"><linearGradient id="linear-gradient" gradientUnits="userSpaceOnUse" x1="206.733" x2="206.733" y1="436" y2="92.907"><stop offset=".322" stop-color="#a163f5"/><stop offset=".466" stop-color="#b074ee"/><stop offset=".752" stop-color="#d8a1dd"/><stop offset=".898" stop-color="#efbad3"/></linearGradient><linearGradient id="linear-gradient-2" x1="303.885" x2="303.885" xlink:href="#linear-gradient" y1="436" y2="92.907"/><linearGradient id="linear-gradient-3" x1="256" x2="256" xlink:href="#linear-gradient" y1="436" y2="92.907"/><linearGradient id="linear-gradient-4" x1="256.344" x2="256.344" xlink:href="#linear-gradient" y1="436" y2="92.906"/><linearGradient id="linear-gradient-5" x1="256" x2="256" xlink:href="#linear-gradient" y1="436" y2="92.906"/><linearGradient id="linear-gradient-6" x1="122.789" x2="122.789" xlink:href="#linear-gradient" y1="436" y2="92.906"/><linearGradient id="linear-gradient-7" x1="74.528" x2="74.528" xlink:href="#linear-gradient" y1="436" y2="92.907"/><linearGradient id="linear-gradient-8" x1="74.898" x2="74.898" xlink:href="#linear-gradient" y1="436" y2="92.907"/><linearGradient id="linear-gradient-9" x1="123.789" x2="123.789" xlink:href="#linear-gradient" y1="436" y2="92.907"/><linearGradient id="linear-gradient-10" x1="208.115" x2="208.115" xlink:href="#linear-gradient" y1="436" y2="92.906"/><linearGradient id="linear-gradient-11" x1="305.267" x2="305.267" xlink:href="#linear-gradient" y1="436" y2="92.906"/><linearGradient id="linear-gradient-12" x1="389.211" x2="389.211" xlink:href="#linear-gradient" y1="436" y2="92.907"/><linearGradient id="linear-gradient-13" x1="388.211" x2="388.211" xlink:href="#linear-gradient" y1="436" y2="92.907"/><path d="m206.733 93.282a18.384 18.384 0 1 0 -18.383-18.382 18.4 18.4 0 0 0 18.383 18.382zm0-28.767a10.384 10.384 0 1 1 -10.383 10.385 10.4 10.4 0 0 1 10.383-10.385z" fill="url(#linear-gradient)"/><path d="m294.692 90.449a18.383 18.383 0 1 0 -8.565-11.163 18.266 18.266 0 0 0 8.565 11.163zm.2-21.112a10.385 10.385 0 1 1 -1.037 7.879 10.391 10.391 0 0 1 1.037-7.879z" fill="url(#linear-gradient-2)"/><path d="m256 34.68a220.937 220.937 0 0 0 -156.226 377.162 220.937 220.937 0 0 0 312.452-312.451 219.488 219.488 0 0 0 -156.226-64.711zm0 299.62a78.3 78.3 0 1 1 78.3-78.3 78.384 78.384 0 0 1 -78.3 78.3zm67.022-24.017c11.357 20.2 29.681 35.738 53.773 45.68a157.869 157.869 0 0 1 -20.986 20.962 130.35 130.35 0 0 0 -45.146-54.2 87.035 87.035 0 0 0 12.359-12.447zm-53.061 30.871a85.491 85.491 0 0 0 16.942-4.6c-.258 23.191 7.861 45.8 23.779 66.436a155.857 155.857 0 0 1 -28.819 7.679 129.846 129.846 0 0 0 -11.902-69.52zm-8.642 52.556a5.716 5.716 0 1 1 -5.716-5.717 5.723 5.723 0 0 1 5.716 5.712zm-31.551 16.9a155.987 155.987 0 0 1 -28.634-7.68 129.922 129.922 0 0 0 24.447-66.178 85.528 85.528 0 0 0 16.9 4.486c-11.82 19.936-16.123 43.562-12.713 69.362zm-28.047-87.579c-20.216 11.36-35.76 29.676-45.711 53.746a157.7 157.7 0 0 1 -20.952-20.989 130.356 130.356 0 0 0 54.207-45.135 87.007 87.007 0 0 0 12.456 12.368zm-12.743-121.3c-11.337-20.16-29.647-35.706-53.739-45.72a157.83 157.83 0 0 1 21.18-21.111 131.351 131.351 0 0 0 45.222 54.151 87.034 87.034 0 0 0 -12.663 12.671zm53.14-30.885a85.545 85.545 0 0 0 -17.022 4.612c.255-23.128-7.839-45.746-23.7-66.462a155.923 155.923 0 0 1 28.733-7.651 130.885 130.885 0 0 0 11.989 69.492zm8.563-52.542a5.716 5.716 0 1 1 5.716 5.717 5.723 5.723 0 0 1 -5.716-5.721zm31.536-16.9a155.9 155.9 0 0 1 28.6 7.662 130.546 130.546 0 0 0 -24.413 66.19 85.641 85.641 0 0 0 -16.877-4.477c11.773-19.9 16.066-43.522 12.69-69.379zm28.061 87.581c20.16-11.336 35.7-29.646 45.719-53.736a157.751 157.751 0 0 1 20.884 20.905 130.37 130.37 0 0 0 -54.227 45.107 87.032 87.032 0 0 0 -12.376-12.283zm-7.182-5.233c-.073-.048-.147-.094-.22-.141l19.224-33.311a13.71 13.71 0 1 0 -6.93-4l-19.2 33.255c-.6-.314-1.2-.625-1.805-.925 1.839-31 14.262-58.321 36.955-81.237a147.225 147.225 0 0 1 29.38-22.925c-.673 20.532-6.929 83.626-57.4 109.277zm17.15-49.661a5.68 5.68 0 0 1 3.471-2.663 5.74 5.74 0 0 1 1.488-.2 5.718 5.718 0 1 1 -4.959 2.86zm35.88-66.347a154.162 154.162 0 0 0 -30.469 23.812 145.329 145.329 0 0 0 -9.794 10.9 163.788 163.788 0 0 0 -34.973-9.356q-.964-5.065-2.305-10.231a184.641 184.641 0 0 0 -15.75-40.069 211.478 211.478 0 0 1 93.291 24.937zm-95.441 102.1c-.1 0-.191-.015-.288-.02v-38.4a13.716 13.716 0 1 0 -8 0v38.376c-.619.026-1.235.061-1.851.1-13.9-27.765-16.832-57.632-8.694-88.82a147.173 147.173 0 0 1 13.886-34.521c9.688 18.121 35.785 75.846 4.947 123.278zm-12.047-127.023a154.142 154.142 0 0 0 -14.449 35.937 145.268 145.268 0 0 0 -3.009 14.332 163.835 163.835 0 0 0 -35.089 9.373q-3.362-3.9-7.1-7.692a184.649 184.649 0 0 0 -33.6-26.78 211.459 211.459 0 0 1 93.247-25.17zm-65.184 57.726c23.769 24.178 35.037 50.584 33.527 78.522l-.247.127-19.215-33.282a13.722 13.722 0 1 0 -13.578 3.881 13.823 13.823 0 0 0 3.573.473 13.529 13.529 0 0 0 3.073-.361l19.207 33.267c-.431.275-.864.546-1.29.828-25.946-17.095-43.488-41.46-52.109-72.505a147.114 147.114 0 0 1 -5.325-36.752 178.165 178.165 0 0 1 32.384 25.802zm9.559 37.478a5.714 5.714 0 1 1 -5.532-7.2 5.787 5.787 0 0 1 1.49.2 5.719 5.719 0 0 1 4.042 7zm-49.956-62.842a154.091 154.091 0 0 0 5.547 38.156 145.38 145.38 0 0 0 4.589 13.893 165.717 165.717 0 0 0 -25.807 25.768q-4.876-1.7-10.03-3.126a184.765 184.765 0 0 0 -42.3-6.388 214.6 214.6 0 0 1 68.001-68.303zm40.688 133.717c-.048.073-.094.147-.141.22l-33.304-19.22a13.727 13.727 0 1 0 -4 6.926l33.259 19.2c-.287.548-.571 1.1-.847 1.652-31.006-1.837-58.342-14.235-81.282-36.884a147.15 147.15 0 0 1 -22.946-29.288c20.544.674 83.616 6.938 109.261 57.394zm-41.851-19.243a5.715 5.715 0 1 1 -2.093-7.808 5.722 5.722 0 0 1 2.093 7.812zm27.943 61.654c0 .1-.015.191-.02.288h-38.4a13.716 13.716 0 1 0 0 8h38.383c.027.637.063 1.272.1 1.906-27.764 13.9-57.63 16.823-88.82 8.668a147.189 147.189 0 0 1 -34.529-13.913c18.119-9.683 75.849-35.787 123.286-4.945zm-68.437-21.528a156.034 156.034 0 0 1 7.7-28.707 130.838 130.838 0 0 0 66.209 24.371 85.619 85.619 0 0 0 -4.538 17.032c-19.892-11.779-43.515-16.072-69.371-12.696zm22.615 25.82a5.717 5.717 0 1 1 -5.717-5.716 5.723 5.723 0 0 1 5.714 5.713zm-9.241 26.974a130 130 0 0 0 56.075-12.643 85.554 85.554 0 0 0 4.6 16.969c-23.178-.259-45.79 7.848-66.445 23.741a155.883 155.883 0 0 1 -7.664-28.744c4.294.42 8.771.677 13.431.677zm-46.935-126.555a154.3 154.3 0 0 0 23.749 30.249 145.474 145.474 0 0 0 10.9 9.765 163.892 163.892 0 0 0 -9.388 35.074q-5.065.964-10.231 2.3a184.776 184.776 0 0 0 -39.691 15.547 211.475 211.475 0 0 1 24.661-92.935zm-24.611 107.578a154.492 154.492 0 0 0 35.53 14.242 146.128 146.128 0 0 0 14.335 3 163.742 163.742 0 0 0 9.392 35.127q-3.788 3.285-7.473 6.93a182.6 182.6 0 0 0 -26.558 33.479 211.477 211.477 0 0 1 -25.226-92.778zm135.844 31.43c.041.08.082.16.124.24l-33.282 19.215a13.72 13.72 0 1 0 -12.914 23.273 13.82 13.82 0 0 0 3.572.472 13.734 13.734 0 0 0 13.347-16.821l33.26-19.2c.342.537.677 1.077 1.03 1.6-17.088 25.926-41.4 43.373-72.338 51.824a145.262 145.262 0 0 1 -36.676 5.109c10.717-17.38 47.343-68.753 103.877-65.716zm-37 30.962a5.716 5.716 0 1 1 -.571-4.338 5.678 5.678 0 0 1 .566 4.334zm1.681 110.494a214.6 214.6 0 0 1 -68.063-67.729 152.3 152.3 0 0 0 37.984-5.323c4.29-1.163 8.894-2.625 13.693-4.457a165.735 165.735 0 0 0 25.654 25.653q-1.636 4.724-3 9.707a182.088 182.088 0 0 0 -6.273 42.145zm14.043-40.245c8.964-32.475 26.155-55.333 51.106-67.987.075.05.152.1.227.146l-19.229 33.3a13.716 13.716 0 1 0 6.928 4l19.2-33.255c.592.31 1.185.617 1.784.914-1.836 30.991-14.205 58.206-36.794 80.924a144.757 144.757 0 0 1 -29.259 22.687 175.506 175.506 0 0 1 6.032-40.733zm33.963-18.321a5.717 5.717 0 1 1 -2.093-7.81 5.68 5.68 0 0 1 2.088 7.806zm-35.563 65.747a151.881 151.881 0 0 0 30.278-23.52c3.121-3.127 6.364-6.667 9.59-10.619a163.854 163.854 0 0 0 35.049 9.375q.939 4.881 2.236 9.85a181.719 181.719 0 0 0 15.651 39.672 211.472 211.472 0 0 1 -92.809-24.762zm95.124-101.5c.1 0 .191.015.288.02v38.4a13.716 13.716 0 1 0 8 0v-38.387c.647-.027 1.291-.065 1.934-.106 13.9 27.75 16.79 57.484 8.587 88.421a144.482 144.482 0 0 1 -13.989 34.228c-9.648-17.918-35.675-75.143-4.825-122.58zm11.959 126.252a151.5 151.5 0 0 0 14.5-35.545c1.139-4.257 2.175-8.931 2.993-13.952a163.837 163.837 0 0 0 35.24-9.42q3.267 3.756 6.89 7.412a182.09 182.09 0 0 0 33.45 26.468 211.472 211.472 0 0 1 -93.078 25.033zm65.148-57.3c-23.689-23.965-34.915-50.259-33.4-78.186l.247-.127 19.215 33.282a13.7 13.7 0 1 0 6.928-4l-19.2-33.26c.543-.346 1.091-.686 1.626-1.044 25.926 17.087 43.369 41.371 51.815 72.263a144.831 144.831 0 0 1 5.1 36.624 175.526 175.526 0 0 1 -32.336-25.554zm-9.435-37.142a5.719 5.719 0 1 1 .571 4.337 5.68 5.68 0 0 1 -.576-4.339zm49.776 62.188a151.945 151.945 0 0 0 -5.318-37.927c-1.158-4.269-2.614-8.853-4.438-13.628a165.731 165.731 0 0 0 25.653-25.667q4.758 1.644 9.776 3.018a182.726 182.726 0 0 0 42.219 6.246 214.6 214.6 0 0 1 -67.897 67.956zm27.566-81.98c-32.536-8.948-55.424-26.13-68.079-51.079.05-.076.1-.153.147-.228l33.298 19.222a13.717 13.717 0 1 0 4-6.927l-33.255-19.2c.305-.582.607-1.166.9-1.755 31 1.835 58.247 14.192 81.033 36.76a145.263 145.263 0 0 1 22.762 29.222 176.152 176.152 0 0 1 -40.811-6.017zm-26.223-31.844a5.717 5.717 0 1 1 2.093 7.808 5.726 5.726 0 0 1 -2.098-7.81zm-27.943-61.654c0-.1.015-.191.02-.288h38.4a13.716 13.716 0 1 0 0-8h-38.388c-.028-.674-.068-1.345-.112-2.016 27.758-13.9 57.558-16.8 88.622-8.615a145.921 145.921 0 0 1 34.391 13.964c-18.008 9.676-75.501 35.803-122.938 4.953zm68.437 21.513a155.948 155.948 0 0 1 -7.676 28.639 130.333 130.333 0 0 0 -66.2-24.393 85.553 85.553 0 0 0 4.5-16.934c15.5 9.178 33.236 13.828 52.518 13.828a128.807 128.807 0 0 0 16.858-1.14zm-22.617-25.8a5.717 5.717 0 1 1 5.717 5.716 5.723 5.723 0 0 1 -5.717-5.716zm-46.853-14.436a85.49 85.49 0 0 0 -4.587-16.872c.356 0 .711.021 1.066.021 22.772 0 45.016-8.094 65.4-23.725a155.911 155.911 0 0 1 7.63 28.637 130.287 130.287 0 0 0 -69.509 11.936zm122.574 60.606a18.971 18.971 0 1 0 -4.117 15.478 211.685 211.685 0 0 1 -15.739 37.745 152.321 152.321 0 0 0 -23.627-30.278c-3.146-3.129-6.708-6.38-10.686-9.614a163.894 163.894 0 0 0 9.366-35.051c3.315-.637 6.659-1.383 10.036-2.266a183.158 183.158 0 0 0 39.858-15.725 212.466 212.466 0 0 1 -5.091 39.711zm-9.164 8.8a10.984 10.984 0 1 1 1.1-8.334 11 11 0 0 1 -1.1 8.335zm4.963-118.47a18.979 18.979 0 1 0 3.91 14.454 212.321 212.321 0 0 1 5.391 41.255 152.863 152.863 0 0 0 -35.757-14.5 144.389 144.389 0 0 0 -14.152-3.009 163.83 163.83 0 0 0 -9.37-35.03q3.865-3.339 7.631-7.045a184.1 184.1 0 0 0 26.71-33.555 211.77 211.77 0 0 1 15.637 37.43zm-3.878 11.777a10.983 10.983 0 1 1 -10.983-10.977 11 11 0 0 1 10.983 10.981zm-44.249-21.192c-24.131 23.746-50.509 35.012-78.449 33.493-.043-.083-.085-.166-.128-.248l33.282-19.215a13.7 13.7 0 1 0 -4-6.928l-33.26 19.2c-.366-.575-.725-1.155-1.1-1.72 17.092-25.924 41.472-43.377 72.548-51.845a146.723 146.723 0 0 1 36.877-5.132 177.57 177.57 0 0 1 -25.77 32.399zm-41.448 2.523a5.727 5.727 0 0 1 5.513-4.24 5.755 5.755 0 0 1 1.489.2 5.717 5.717 0 1 1 -7 4.042zm28.531-37.583a144.625 144.625 0 0 0 -13.892 4.518 165.719 165.719 0 0 0 -25.572-25.557q1.7-4.878 3.126-10.03a184.66 184.66 0 0 0 6.39-42.441 214.58 214.58 0 0 1 68.174 68.167 153.766 153.766 0 0 0 -38.226 5.347z" fill="url(#linear-gradient-3)"/><path d="m256.345 199.773a55.777 55.777 0 1 0 55.776 55.777 55.841 55.841 0 0 0 -55.776-55.777zm0 103.554a47.777 47.777 0 1 1 47.776-47.777 47.831 47.831 0 0 1 -47.776 47.777z" fill="url(#linear-gradient-4)"/><path d="m256 12a244 244 0 0 0 -172.534 416.534 244 244 0 1 0 345.068-345.068 242.4 242.4 0 0 0 -172.534-71.466zm166.877 410.877a236 236 0 1 1 -333.754-333.754 236 236 0 1 1 333.754 333.754z" fill="url(#linear-gradient-5)"/><path d="m131.975 139.716a18.392 18.392 0 1 0 -9.16 2.46 18.256 18.256 0 0 0 9.16-2.46zm-18.185-10.729a10.385 10.385 0 1 1 14.185 3.8 10.4 10.4 0 0 1 -14.185-3.8z" fill="url(#linear-gradient-6)"/><path d="m90.449 217.308a18.439 18.439 0 1 0 -11.163 8.565 18.4 18.4 0 0 0 11.163-8.565zm-6.927-4a10.382 10.382 0 1 1 -3.8-14.185 10.316 10.316 0 0 1 3.8 14.185z" fill="url(#linear-gradient-7)"/><path d="m74.9 286.883a18.384 18.384 0 1 0 18.384 18.384 18.4 18.4 0 0 0 -18.384-18.384zm0 28.767a10.384 10.384 0 1 1 10.384-10.383 10.4 10.4 0 0 1 -10.384 10.383z" fill="url(#linear-gradient-8)"/><path d="m128.554 371.46a18.384 18.384 0 1 0 11.162 8.565 18.257 18.257 0 0 0 -11.162-8.565zm.433 26.75a10.385 10.385 0 1 1 3.8-14.185 10.4 10.4 0 0 1 -3.8 14.185z" fill="url(#linear-gradient-9)"/><path d="m217.308 421.551a18.383 18.383 0 1 0 8.565 11.163 18.4 18.4 0 0 0 -8.565-11.163zm-.2 21.112a10.382 10.382 0 1 1 1.038-7.879 10.4 10.4 0 0 1 -1.038 7.879z" fill="url(#linear-gradient-10)"/><path d="m305.267 418.718a18.384 18.384 0 1 0 18.383 18.382 18.4 18.4 0 0 0 -18.383-18.382zm0 28.767a10.384 10.384 0 1 1 10.383-10.385 10.4 10.4 0 0 1 -10.383 10.385z" fill="url(#linear-gradient-11)"/><path d="m380.025 372.284a18.384 18.384 0 0 0 4.434 33.678 18.453 18.453 0 0 0 4.787.635 18.387 18.387 0 1 0 -9.221-34.313zm18.185 10.729a10.385 10.385 0 1 1 -14.185-3.8 10.4 10.4 0 0 1 14.185 3.8z" fill="url(#linear-gradient-12)"/><path d="m379.013 106.862a18.384 18.384 0 1 0 25.112 6.73 18.405 18.405 0 0 0 -25.112-6.73zm19.221 18.609a10.382 10.382 0 1 1 -1.037-7.879 10.315 10.315 0 0 1 1.037 7.879z" fill="url(#linear-gradient-13)"/></svg>