<svg id="Capa_1" enable-background="new 0 0 512 512" height="512" viewBox="0 0 512 512" width="512" xmlns="http://www.w3.org/2000/svg"><g><g><g><g><path d="m441.842 404.273 9.976.549c4.117.226 7.102-3.865 5.628-7.716l-3.57-9.331c-3.933-10.28-4.502-21.62-1.19-32.117 5.626-17.831-.782-38.093-17.399-49.123-18.553-12.315-43.79-8.356-57.691 9.04-5.385 6.739-23.033 30.935-27.805 38.122-12.318 18.551-8.377 43.791 9.017 57.695 15.579 12.453 36.831 12.365 52.09 1.56 8.983-6.361 19.954-9.284 30.944-8.679z" fill="#fca62f"/></g><g><path d="m451.82 404.826-9.98-.55c-5.62-.31-11.23.3-16.58 1.83-3.38-9.83-3.72-20.52-.58-30.45 5.62-17.83-.79-38.09-17.4-49.12-10.14-6.73-22.27-8.6-33.45-6.07 1.54-2.04 2.84-3.72 3.77-4.89 13.9-17.4 39.13-21.36 57.69-9.04 16.61 11.03 23.02 31.29 17.4 49.12-3.32 10.5-2.75 21.84 1.19 32.12l3.57 9.33c1.47 3.85-1.51 7.94-5.63 7.72z" fill="#fb9927"/></g></g><g><g><g><path d="m70.157 107.726-9.976-.549c-4.118-.226-7.102 3.865-5.628 7.716l3.57 9.331c3.933 10.28 4.502 21.62 1.19 32.117-5.626 17.831.782 38.093 17.399 49.123 18.553 12.315 43.79 8.356 57.691-9.04 5.385-6.739 23.033-30.935 27.805-38.122 12.318-18.551 8.377-43.791-9.017-57.695-15.579-12.453-36.831-12.365-52.09-1.56-8.983 6.361-19.954 9.283-30.944 8.679z" fill="#fca62f"/></g></g><g><g><path d="m162.211 158.307c-2.2 3.3-7.12 10.21-12.32 17.37 4.33-16.19-1.03-34.14-14.71-45.07-15.58-12.45-36.83-12.36-52.09-1.56-6.49 4.6-14.02 7.4-21.85 8.36-.44-4.49-1.49-8.92-3.12-13.18l-3.57-9.33c-1.47-3.85 1.51-7.95 5.63-7.72l9.98.55c10.99.6 21.96-2.32 30.94-8.68 15.26-10.8 36.51-10.89 52.09 1.56 17.4 13.9 21.34 39.14 9.02 57.7z" fill="#fb9927"/></g></g></g><g><g><path d="m57.555 386.927-3.604 9.318c-1.488 3.846 1.481 7.948 5.599 7.737l9.977-.512c10.993-.564 21.953 2.399 30.912 8.793 15.219 10.861 36.471 11.028 52.096-1.368 17.445-13.839 21.479-39.065 9.23-57.661-4.745-7.204-22.303-31.465-27.664-38.224-13.837-17.447-39.059-21.499-57.657-9.253-16.658 10.968-23.141 31.207-17.581 49.059 3.273 10.508 2.663 21.845-1.308 32.111z" fill="#fca62f"/></g><g><path d="m152.531 410.896c-15.62 12.39-36.87 12.23-52.09 1.37-8.96-6.4-19.92-9.36-30.91-8.8l-9.98.52c-4.12.21-7.09-3.9-5.6-7.74l3.6-9.32c1.64-4.24 2.7-8.65 3.16-13.1 7.79 1.01 15.27 3.84 21.72 8.44 15.22 10.86 36.47 11.02 52.1-1.37 13.81-10.96 19.21-29.07 14.78-45.36 5.25 7.28 10.24 14.34 12.45 17.7 12.25 18.59 8.22 43.82-9.23 57.66z" fill="#fb9927"/></g></g><g><g><g><path d="m454.444 125.071 3.604-9.318c1.488-3.846-1.481-7.948-5.599-7.737l-9.977.512c-10.993.564-21.953-2.399-30.912-8.793-15.219-10.861-36.471-11.028-52.096 1.368-17.445 13.839-21.479 39.065-9.23 57.661 4.745 7.204 22.303 31.465 27.664 38.224 13.837 17.447 39.059 21.499 57.657 9.253 16.658-10.968 23.141-31.207 17.581-49.059-3.273-10.508-2.663-21.845 1.308-32.111z" fill="#fca62f"/></g></g><g><g><path d="m454.44 125.067c-3.97 10.27-4.58 21.61-1.3 32.12 5.56 17.85-.93 38.09-17.58 49.06-18.6 12.24-43.83 8.19-57.66-9.26-.9-1.14-2.16-2.78-3.64-4.75 11.12 2.5 23.18.66 33.29-5.99 16.65-10.97 23.14-31.21 17.58-49.06-3.12-9.98-2.72-20.71.74-30.57 5.35 1.56 10.97 2.2 16.6 1.91l9.98-.51c4.12-.21 7.09 3.89 5.6 7.74z" fill="#fb9927"/></g></g></g><g><g><g><path d="m18.497 245.279-8.393 5.42c-3.464 2.237-3.474 7.301-.018 9.551l8.373 5.451c9.225 6.005 16.35 14.845 19.84 25.284 5.929 17.732 23.024 30.358 42.95 29.514 22.248-.942 40.338-18.979 41.359-41.224.395-8.618.451-38.565.087-47.184-.939-22.248-18.962-40.352-41.207-41.376-19.924-.918-37.065 11.645-43.059 29.356-3.528 10.424-10.685 19.237-19.932 25.208z" fill="#fcc16d"/></g><g><path d="m122.611 279.276c-1.02 22.24-19.11 40.28-41.36 41.22-5.5.23-10.78-.56-15.67-2.2 16.53-5.55 28.7-20.89 29.53-39.02.39-8.62.45-38.57.09-47.19-.77-18.19-12.96-33.6-29.53-39.18 4.94-1.66 10.27-2.45 15.82-2.19 22.24 1.02 40.27 19.12 41.21 41.37.36 8.62.3 38.57-.09 47.19z" fill="#fcb44d"/></g></g><g><g><g><path d="m493.502 266.719 8.393-5.42c3.464-2.237 3.474-7.301.018-9.551l-8.373-5.451c-9.225-6.005-16.35-14.845-19.84-25.284-5.929-17.732-23.024-30.358-42.95-29.514-22.248.942-40.338 18.979-41.359 41.224-.395 8.618-.451 38.565-.087 47.184.939 22.248 18.962 40.352 41.207 41.376 19.924.918 37.065-11.645 43.059-29.356 3.528-10.424 10.686-19.237 19.932-25.208z" fill="#fcc16d"/></g></g><g><g><path d="m501.9 261.296-8.4 5.42c-9.24 5.97-16.4 14.79-19.93 25.21-6 17.71-23.14 30.28-43.06 29.36-4.69-.22-9.2-1.19-13.4-2.81 11.97-4.6 21.39-14.36 25.51-26.55 3.53-10.42 10.69-19.24 19.93-25.21l8.4-5.42c3.46-2.23 3.47-7.3.01-9.55l-8.37-5.45c-9.22-6-16.35-14.84-19.84-25.28-4.1-12.26-13.53-22.08-25.56-26.7 4.24-1.63 8.81-2.62 13.56-2.82 19.93-.84 37.02 11.79 42.95 29.52 3.49 10.44 10.62 19.28 19.84 25.28l8.37 5.45c3.46 2.25 3.45 7.32-.01 9.55z" fill="#fcb44d"/></g></g></g></g><g><g><path d="m172.412 478.565 2.561 9.657c1.057 3.986 5.87 5.56 9.078 2.968l7.771-6.279c8.562-6.917 19.17-10.962 30.177-11.056 18.696-.159 35.987-12.515 41.342-31.728 5.979-21.45-5.585-44.229-26.425-52.074-8.074-3.039-36.538-12.346-44.848-14.664-21.449-5.982-44.236 5.565-52.085 26.404-7.03 18.665-.378 38.849 14.613 50.023 8.824 6.579 14.994 16.11 17.816 26.749z" fill="#fcc16d"/></g><g><path d="m263.34 442.129c-5.35 19.21-22.64 31.57-41.34 31.73-11.01.09-21.62 4.13-30.18 11.05l-7.77 6.28c-3.21 2.59-8.02 1.02-9.08-2.97l-2.56-9.65c-1.15-4.35-2.87-8.52-5.11-12.38 6.07-2.78 12.67-4.31 19.42-4.37 18.69-.16 35.99-12.52 41.34-31.73 5.71-20.49-4.58-42.19-23.69-50.93 11.67 3.71 26.97 8.8 32.55 10.89 20.84 7.85 32.4 30.63 26.42 52.08z" fill="#fcb44d"/></g></g><g><g><g><path d="m339.587 33.433-2.561-9.657c-1.057-3.986-5.87-5.56-9.078-2.968l-7.771 6.279c-8.562 6.917-19.17 10.962-30.177 11.056-18.697.159-35.987 12.515-41.342 31.728-5.979 21.45 5.585 44.229 26.425 52.074 8.074 3.039 36.538 12.346 44.848 14.664 21.449 5.982 44.236-5.565 52.085-26.404 7.03-18.665.378-38.849-14.613-50.023-8.824-6.578-14.994-16.109-17.816-26.749z" fill="#fcc16d"/></g></g><g><g><path d="m372.019 110.209c-7.85 20.83-30.64 32.38-52.09 26.4-8.31-2.32-36.77-11.63-44.85-14.66-.94-.35-1.86-.74-2.76-1.16 5.24 1.67 9.76 3.06 12.33 3.78 21.45 5.98 44.24-5.57 52.09-26.41 7.03-18.66.37-38.84-14.62-50.02-5.21-3.89-9.5-8.8-12.7-14.37 3.83-1.76 7.45-4 10.76-6.68l7.77-6.28c3.21-2.59 8.02-1.02 9.08 2.97l2.56 9.65c2.82 10.64 8.99 20.17 17.81 26.75 15 11.18 21.65 31.36 14.62 50.03z" fill="#fcb44d"/></g></g></g><g><g><g><path d="m319.196 485.19 7.748 6.307c3.198 2.603 8.017 1.048 9.089-2.935l2.596-9.647c2.861-10.629 9.066-20.137 17.915-26.682 15.032-11.118 21.758-31.278 14.797-49.969-7.771-20.868-30.516-32.499-51.987-26.596-8.318 2.287-36.817 11.489-44.902 14.498-20.869 7.768-32.517 30.504-26.618 51.976 5.284 19.232 22.529 31.652 41.225 31.88 11.008.135 21.601 4.219 30.137 11.168z" fill="#fcc16d"/></g><g><path d="m356.54 452.236c-8.85 6.54-15.05 16.05-17.91 26.68l-2.6 9.65c-1.07 3.98-5.89 5.54-9.09 2.93l-7.74-6.31c-2.8-2.28-5.82-4.24-9-5.86 3.35-7.24 8.41-13.61 14.88-18.39 15.03-11.12 21.76-31.28 14.8-49.97-6.82-18.31-25.17-29.51-44.07-27.99 9.5-3.08 19.23-6.12 23.54-7.31 21.48-5.9 44.22 5.73 51.99 26.6 6.96 18.69.24 38.85-14.8 49.97z" fill="#fcb44d"/></g></g><g><g><g><path d="m192.803 26.808-7.748-6.307c-3.198-2.603-8.017-1.048-9.089 2.935l-2.596 9.647c-2.861 10.629-9.066 20.137-17.915 26.682-15.032 11.118-21.758 31.278-14.797 49.969 7.771 20.868 30.516 32.499 51.987 26.596 8.318-2.287 36.817-11.489 44.902-14.498 20.869-7.768 32.517-30.504 26.618-51.976-5.284-19.232-22.529-31.652-41.225-31.88-11.008-.135-21.601-4.219-30.137-11.168z" fill="#fcc16d"/></g></g><g><g><path d="m237.55 121.827c-4.64 1.73-16 5.5-26.42 8.82 17.65-9.31 26.97-30.03 21.57-49.7-5.28-19.24-22.53-31.66-41.22-31.89-7.75-.09-15.3-2.14-22.07-5.79 1.68-3.23 3.01-6.64 3.96-10.18l2.6-9.65c1.07-3.98 5.89-5.54 9.08-2.94l7.75 6.31c8.54 6.95 19.13 11.03 30.14 11.17 18.69.23 35.94 12.65 41.22 31.88 5.9 21.47-5.75 44.21-26.61 51.97z" fill="#fcb44d"/></g></g></g></g><g><g><circle cx="255.999" cy="255.999" fill="#fc7d4b" r="139.702"/><path d="m395.703 255.999c0 77.156-62.548 139.704-139.704 139.704-5.298 0-10.531-.296-15.681-.878 69.769-7.794 124.014-66.977 124.014-138.826s-54.245-131.032-124.014-138.826c5.15-.582 10.383-.878 15.681-.878 77.156 0 139.704 62.548 139.704 139.704z" fill="#fb6a3b"/></g><g><circle cx="255.999" cy="255.999" fill="#ffd496" r="108.334"/><path d="m364.332 255.999c0 59.83-48.503 108.333-108.333 108.333-5.03 0-9.985-.342-14.83-1.017 52.812-7.221 93.503-52.516 93.503-107.316s-40.691-100.095-93.503-107.316c4.845-.675 9.801-1.017 14.83-1.017 59.829 0 108.333 48.504 108.333 108.333z" fill="#fcc16d"/></g><g><circle cx="255.999" cy="255.999" fill="#6d81d5" r="77.948"/><circle cx="255.999" cy="255.999" fill="#fcb44d" r="77.948"/><path d="m333.95 255.999c0 43.049-34.903 77.951-77.951 77.951-14.479 0-28.033-3.948-39.655-10.836 3.042.37 6.139.555 9.274.555 43.048 0 77.942-34.894 77.942-77.942 0-28.579-15.376-53.57-38.305-67.125 38.683 4.568 68.695 37.483 68.695 77.397z" fill="#fca62f"/><path d="m323.396 217.046-67.397 116.735-67.397-116.735z" fill="#fee7c9"/><path d="m323.391 217.047-67.392 116.737-15.191-26.313 52.211-90.424z" fill="#ffd496"/></g></g></g><g><path d="m401.816 353.159-4.551-3.319c-3.346-2.441-8.039-1.707-10.479 1.64s-1.706 8.039 1.641 10.479l4.551 3.319c1.333.973 2.88 1.441 4.413 1.441 2.314 0 4.598-1.068 6.065-3.081 2.441-3.347 1.707-8.039-1.64-10.479z"/><path d="m110.183 158.841 4.551 3.319c1.334.973 2.881 1.441 4.414 1.441 2.314 0 4.597-1.068 6.065-3.081 2.44-3.347 1.707-8.039-1.64-10.48l-4.551-3.319c-3.349-2.441-8.038-1.707-10.48 1.64-2.439 3.347-1.706 8.039 1.641 10.48z"/><path d="m114.305 349.202-4.563 3.302c-3.355 2.429-4.106 7.118-1.678 10.473 1.467 2.026 3.758 3.103 6.081 3.103 1.524 0 3.063-.463 4.392-1.425l4.563-3.302c3.355-2.429 4.106-7.118 1.678-10.473-2.429-3.355-7.119-4.105-10.473-1.678z"/><path d="m393.303 164.223c1.524 0 3.063-.463 4.391-1.425l4.563-3.302c3.356-2.428 4.107-7.117 1.68-10.473-2.429-3.356-7.12-4.107-10.473-1.679l-4.563 3.302c-3.356 2.428-4.107 7.117-1.68 10.473 1.467 2.027 3.758 3.104 6.082 3.104z"/><path d="m506.006 245.464-8.373-5.45c-7.973-5.191-13.946-12.782-16.819-21.377-3.996-11.952-12.257-21.677-22.705-27.754 5.059-11.248 5.902-24.012 2.189-35.93-2.695-8.652-2.289-18.303 1.143-27.176l3.604-9.317c1.62-4.187 1.017-8.856-1.615-12.493s-6.886-5.667-11.362-5.441l-9.979.512c-9.487.49-18.794-2.143-26.171-7.408-10.141-7.236-22.505-10.429-34.749-9.157-2.495-11.849-9.157-22.759-19.281-30.305-7.267-5.417-12.611-13.463-15.05-22.658l-2.561-9.656c-1.15-4.339-4.385-7.762-8.651-9.157-4.266-1.394-8.897-.543-12.389 2.277l-7.772 6.278c-7.399 5.979-16.465 9.313-25.526 9.391-12.457.106-24.336 4.791-33.494 13.016-8.984-8.12-20.786-13.03-33.413-13.184-9.062-.11-18.115-3.479-25.492-9.484l-7.749-6.308c-3.48-2.834-8.107-3.703-12.38-2.323-4.271 1.379-7.519 4.79-8.686 9.126l-2.596 9.647c-2.473 9.186-7.848 17.213-15.133 22.602-10.134 7.495-16.829 18.354-19.379 30.169-12.26-1.339-24.647 1.799-34.849 9.022-7.396 5.237-16.713 7.834-26.198 7.311l-9.976-.548c-4.478-.251-8.737 1.771-11.383 5.398-2.645 3.627-3.267 8.295-1.662 12.486l3.569 9.332c3.399 8.884 3.77 18.537 1.043 27.179-3.759 11.911-2.975 24.628 2.022 35.875-10.497 6.035-18.808 15.744-22.856 27.705-2.906 8.585-8.908 16.155-16.898 21.314l-8.395 5.42c-3.77 2.435-6.025 6.568-6.034 11.057-.008 4.488 2.232 8.63 5.994 11.08l8.373 5.451c7.972 5.189 13.945 12.781 16.818 21.376 3.998 11.955 12.259 21.673 22.708 27.749-5.059 11.251-5.901 24.025-2.191 35.935 2.695 8.652 2.289 18.303-1.143 27.175l-3.604 9.317c-1.62 4.187-1.017 8.856 1.615 12.493s6.899 5.668 11.362 5.44l9.979-.512c9.501-.49 18.794 2.144 26.171 7.408 8.687 6.199 19.019 9.445 29.507 9.445 1.745 0 3.495-.104 5.242-.285 2.496 11.849 9.158 22.757 19.281 30.304 7.267 5.416 12.611 13.462 15.05 22.657l2.56 9.656c1.15 4.339 4.385 7.762 8.651 9.157 1.352.442 2.739.658 4.115.658 2.971 0 5.889-1.008 8.273-2.935l7.772-6.279c7.398-5.979 16.464-9.313 25.526-9.391 12.439-.106 24.333-4.793 33.494-13.016 8.984 8.12 20.786 13.03 33.413 13.184 9.063.11 18.115 3.479 25.493 9.484l7.747 6.307c2.393 1.947 5.325 2.966 8.313 2.966 1.36 0 2.732-.211 4.068-.643 4.271-1.378 7.519-4.79 8.686-9.125l2.596-9.646c2.473-9.187 7.848-17.213 15.133-22.602 10.132-7.495 16.827-18.352 19.378-30.165 1.831.199 3.666.31 5.496.31 10.423 0 20.695-3.206 29.354-9.336 7.397-5.237 16.697-7.831 26.198-7.311l9.976.549c4.463.247 8.737-1.772 11.382-5.398 2.646-3.626 3.268-8.294 1.663-12.487l-3.569-9.332c-3.399-8.884-3.77-18.537-1.043-27.18 3.751-11.886 2.965-24.63-2.032-35.884 10.498-6.035 18.819-15.736 22.867-27.696 2.905-8.585 8.906-16.154 16.897-21.315l8.395-5.42c3.771-2.436 6.026-6.569 6.034-11.058.011-4.485-2.23-8.626-5.992-11.076zm-98.802-139.623c10.122 7.224 22.779 10.841 35.652 10.178l7.192-.369-2.599 6.716c-4.648 12.019-5.172 25.176-1.474 37.049 2.681 8.605 1.998 17.839-1.808 25.908-4.431-1.047-9.043-1.516-13.736-1.315-14.52.615-28.096 7.685-37.182 18.793-9.229-23.73-24.438-44.497-43.775-60.432 13.437-5.088 24.357-15.705 29.56-29.521 1.647-4.375 2.641-8.88 3.035-13.393 8.84-1.079 17.812 1.161 25.135 6.386zm-117.139-60.198c12.435-.105 24.804-4.624 34.826-12.722l5.602-4.525 1.847 6.959c3.302 12.455 10.612 23.407 20.583 30.839 12.714 9.477 17.68 26.487 12.076 41.366-4.962 13.175-17.323 22.227-31.491 23.062-.133.008-.261.028-.392.043-20.084-12.402-43.354-20.112-68.276-21.596 7.809-11.985 10.455-27.012 6.556-41.201-1.238-4.508-3.083-8.737-5.417-12.62 6.517-6.067 15.091-9.528 24.086-9.605zm-130.15 20.152c9.997-7.395 17.348-18.32 20.697-30.763l1.871-6.953 5.585 4.546c9.993 8.135 22.345 12.699 34.778 12.851 15.856.193 29.873 11.036 34.085 26.368 3.765 13.7-1.158 28.507-12.245 37.395-23.628 1.815-45.847 9.26-65.202 21.066-14.354-.735-26.813-9.797-31.799-23.189-5.548-14.899-.52-31.891 12.23-41.321zm-93.449 92.803c3.742-11.86 3.267-25.019-1.338-37.053l-2.572-6.726 7.189.396c12.865.711 25.541-2.86 35.69-10.046 7.366-5.216 16.352-7.413 25.202-6.284.373 4.536 1.352 9.066 2.991 13.467 5.172 13.89 15.99 24.504 29.371 29.627-19.353 15.781-34.682 36.411-44.033 60.17-9.012-11.161-22.495-18.251-37.134-18.926-4.67-.216-9.26.231-13.672 1.249-3.76-8.072-4.409-17.271-1.694-25.874zm-21.054 130.008c-3.943-11.794-12.063-22.161-22.861-29.19l-6.035-3.929 6.05-3.906c10.824-6.989 18.981-17.326 22.97-29.106 5.083-15.021 19.731-25.015 35.609-24.268 13.772.634 26.101 9.356 31.409 22.22.113.274.244.534.385.787-1.27 5.244-2.267 10.6-2.961 16.06-.521 4.109 2.386 7.864 6.495 8.386 4.116.521 7.863-2.386 8.386-6.495 8.355-65.77 64.733-115.367 131.141-115.367 72.897 0 132.202 59.306 132.202 132.202 0 72.897-59.306 132.203-132.202 132.203-66.655 0-123.058-49.809-131.198-115.86-.507-4.112-4.267-7.03-8.36-6.526-4.111.507-7.033 4.25-6.526 8.361.68 5.521 1.669 10.938 2.938 16.24-.309.421-.582.878-.805 1.374-5.536 12.32-17.749 20.647-31.114 21.213-15.855.671-30.493-9.359-35.523-24.399zm87.552 110.546c-1.648 4.376-2.641 8.882-3.035 13.396-8.84 1.078-17.816-1.166-25.133-6.388-10.123-7.225-22.791-10.84-35.652-10.178l-7.192.369 2.599-6.716c4.648-12.019 5.172-25.176 1.474-37.048-2.678-8.597-1.999-17.838 1.804-25.908 3.757.888 7.646 1.359 11.605 1.359.708 0 1.423-.015 2.135-.045 14.523-.615 28.074-7.667 37.155-18.757 9.236 23.82 24.461 44.517 43.734 60.38-13.406 5.059-24.256 15.629-29.494 29.536zm88.971 67.205c-12.436.106-24.804 4.624-34.826 12.722l-5.602 4.525-1.846-6.96c-3.303-12.456-10.612-23.408-20.583-30.839-12.715-9.477-17.681-26.487-12.077-41.367 4.972-13.201 17.747-22.395 31.91-23.065 20.157 12.412 43.461 20.08 68.27 21.558-7.8 12.012-10.451 27.097-6.577 41.2 1.239 4.51 3.084 8.74 5.419 12.623-6.519 6.067-15.107 9.526-24.088 9.603zm130.15-20.151c-9.997 7.395-17.348 18.319-20.697 30.763l-1.871 6.953-5.584-4.546c-9.993-8.135-22.345-12.699-34.779-12.851-15.856-.194-29.873-11.037-34.084-26.368-3.739-13.605 1.178-28.508 12.224-37.383 23.761-1.811 45.961-9.291 65.251-21.082 14.336.748 26.795 9.831 31.771 23.192 5.547 14.899.518 31.891-12.231 41.322zm93.449-92.804c-3.742 11.86-3.267 25.02 1.338 37.053l2.572 6.726-7.189-.396c-12.88-.706-25.541 2.86-35.69 10.046-7.35 5.204-16.35 7.415-25.202 6.29-.373-4.537-1.352-9.07-2.991-13.472-5.166-13.872-15.998-24.495-29.385-29.623 19.389-15.841 34.682-36.513 44.014-60.168 9.008 11.241 22.417 18.241 37.166 18.921.776.036 1.548.053 2.319.053 3.871 0 7.675-.453 11.355-1.304 3.758 8.073 4.401 17.293 1.693 25.874zm43.901-92.982c-10.825 6.991-18.982 17.327-22.97 29.106-5.084 15.02-19.756 25.004-35.609 24.268-13.37-.616-25.19-8.632-30.847-20.921-.286-.621-.651-1.178-1.07-1.677 2.778-11.282 4.263-23.068 4.263-35.196 0-11.865-1.421-23.402-4.084-34.462.349-.451.657-.943.904-1.485 5.566-12.23 17.752-20.495 31.045-21.058 15.851-.669 30.492 9.36 35.52 24.399 3.943 11.793 12.063 22.16 22.862 29.191l6.035 3.928z"/><path d="m86.555 263.116h.015c4.136 0 7.492-3.349 7.5-7.486.008-4.142-3.344-7.506-7.485-7.514l-5.632-.011c-.006 0-.01 0-.015 0-4.136 0-7.492 3.349-7.5 7.486-.008 4.142 3.344 7.506 7.485 7.514z"/><path d="m431.076 248.895-5.632-.01c-.005 0-.009 0-.014 0-4.136 0-7.492 3.349-7.5 7.486-.008 4.142 3.344 7.506 7.486 7.514l5.632.01h.014c4.136 0 7.492-3.349 7.5-7.486.008-4.143-3.343-7.507-7.486-7.514z"/><path d="m315.129 414.953c-1.272-3.943-5.498-6.105-9.442-4.833-3.941 1.272-6.105 5.5-4.833 9.441l1.73 5.36c1.025 3.176 3.97 5.198 7.136 5.198.764 0 1.54-.118 2.307-.365 3.941-1.272 6.105-5.5 4.833-9.441z"/><path d="m196.87 97.048c1.025 3.176 3.969 5.198 7.136 5.198.764 0 1.54-.118 2.306-.365 3.942-1.272 6.106-5.5 4.834-9.441l-1.73-5.36c-1.272-3.942-5.502-6.106-9.441-4.833-3.942 1.272-6.106 5.5-4.834 9.441z"/><path d="m205.608 409.89c-3.939-1.29-8.172.862-9.459 4.799l-1.75 5.354c-1.287 3.937.861 8.172 4.799 9.459.773.253 1.56.373 2.331.373 3.157 0 6.094-2.008 7.128-5.172l1.75-5.354c1.287-3.937-.862-8.171-4.799-9.459z"/><path d="m306.392 102.11c.773.253 1.56.373 2.331.373 3.157 0 6.094-2.008 7.128-5.172l1.75-5.354c1.287-3.937-.861-8.172-4.799-9.459-3.939-1.289-8.172.862-9.459 4.799l-1.75 5.354c-1.287 3.937.862 8.172 4.799 9.459z"/><path d="m237.923 370.428c.394.062.785.091 1.171.091 3.63 0 6.82-2.641 7.4-6.339.642-4.092-2.155-7.93-6.247-8.571-23.475-3.681-45.002-15.672-60.618-33.766-15.776-18.279-24.465-41.662-24.465-65.842 0-55.6 45.234-100.834 100.835-100.834 21.319 0 41.698 6.575 58.936 19.014 3.357 2.423 8.045 1.667 10.471-1.692 2.424-3.359 1.666-8.047-1.693-10.471-19.808-14.295-43.223-21.851-67.713-21.851-63.872 0-115.835 51.963-115.835 115.834 0 27.776 9.982 54.64 28.108 75.643 17.935 20.779 42.671 34.553 69.65 38.784z"/><path d="m356.834 256c0 23.98-8.562 47.214-24.107 65.424-15.377 18.012-36.631 30.086-59.846 33.997-4.085.688-6.838 4.558-6.149 8.642.617 3.663 3.792 6.255 7.387 6.255.413 0 .833-.034 1.255-.105 26.682-4.496 51.102-18.364 68.762-39.049 17.862-20.922 27.699-47.616 27.699-75.163 0-24.382-7.493-47.711-21.671-67.465-2.415-3.365-7.101-4.135-10.466-1.72s-4.136 7.101-1.72 10.466c12.335 17.189 18.856 37.493 18.856 58.718z"/><path d="m341.447 256.001c0-47.116-38.331-85.448-85.447-85.448s-85.448 38.332-85.448 85.448 38.332 85.448 85.448 85.448 85.447-38.332 85.447-85.448zm-85.447-70.449c21.059 0 39.975 9.3 52.896 23.995h-105.793c12.92-14.695 31.837-23.995 52.897-23.995zm-54.408 38.995h108.814l-54.406 94.235zm-16.041 31.454c0-7.942 1.34-15.572 3.774-22.7l53.005 91.806c-32.324-6.384-56.779-34.938-56.779-69.106zm84.118 69.105 53.004-91.806c2.434 7.128 3.774 14.759 3.774 22.7 0 34.169-24.455 62.723-56.778 69.106z"/></g></g></svg>