<svg id="Capa_1" enable-background="new 0 0 512 512" height="512" viewBox="0 0 512 512" width="512" xmlns="http://www.w3.org/2000/svg"><g><g><g><path d="m378.788 237.353c28.758 28.758 75.384 28.758 104.143 0s28.758-75.384 0-104.143c-20.483-20.483-26.358-50.023-17.661-75.72 1.035-3.057.237-6.434-2.045-8.716s-5.659-3.079-8.716-2.045c-25.698 8.698-55.238 2.822-75.72-17.661-28.758-28.758-75.384-28.758-104.143 0s-28.758 75.384 0 104.143z" fill="#f82f40"/><path d="m482.934 237.357c-21.59 21.58-53.25 26.96-79.861 16.14 16.17-1.7 31.88-8.75 44.27-21.14 28.75-28.76 28.75-75.391 0-104.151-20.49-20.48-26.36-50.02-17.66-75.721.21-.61.34-1.24.39-1.88 8.26.09 16.53-1.2 24.44-3.88 3.05-1.03 6.43-.23 8.71 2.05s3.08 5.66 2.05 8.71c-8.7 25.7-2.83 55.24 17.66 75.721 28.752 28.761 28.752 75.391.001 104.151z" fill="#e22334"/><path d="m133.211 274.647c-28.758-28.758-75.384-28.758-104.143 0s-28.758 75.384 0 104.143c20.483 20.483 26.358 50.023 17.661 75.72-1.035 3.057-.237 6.434 2.045 8.716s5.659 3.079 8.716 2.045c25.698-8.698 55.238-2.822 75.72 17.661 28.758 28.758 75.384 28.758 104.143 0 28.758-28.758 28.758-75.384 0-104.143z" fill="#f82f40"/><path d="m237.352 482.93c-19.54 19.54-47.32 25.8-72.141 18.79 11.72-3.31 22.77-9.57 31.99-18.79 28.76-28.76 28.76-75.381 0-104.141l-104.14-104.141c-9.22-9.22-20.27-15.48-31.99-18.79 24.82-7.01 52.6-.75 72.141 18.79l104.141 104.141c28.759 28.76 28.759 75.38-.001 104.141z" fill="#e22334"/><g><g><path d="m400.201 158.93c1.494-16.98 2.268-30.376 6.495-42.866 1.035-3.057.237-6.434-2.045-8.716s-5.659-3.079-8.716-2.045c-12.49 4.227-25.886 5.002-42.866 6.495z" fill="#fcb5ba"/></g><g><path d="m158.93 400.202c-16.98 1.494-30.376 2.268-42.866 6.495-3.057 1.035-6.434.237-8.716-2.045s-3.079-5.659-2.045-8.716c4.227-12.49 5.002-25.886 6.495-42.866z" fill="#fcb5ba"/></g></g></g><g><path d="m237.353 133.212c28.758-28.758 28.758-75.384 0-104.143s-75.384-28.758-104.143 0c-20.483 20.483-50.023 26.358-75.72 17.661-3.057-1.035-6.434-.237-8.716 2.045s-3.079 5.659-2.045 8.716c8.698 25.698 2.822 55.238-17.661 75.72-28.758 28.758-28.758 75.384 0 104.143s75.384 28.758 104.143 0z" fill="#fb4a59"/><path d="m237.352 133.216-104.141 104.141c-19.54 19.53-47.32 25.79-72.141 18.78 11.72-3.3 22.77-9.56 31.99-18.78l104.141-104.141c28.76-28.76 28.76-75.391 0-104.151-9.22-9.21-20.27-15.48-31.99-18.78 24.82-7.01 52.6-.75 72.141 18.78 28.76 28.761 28.76 75.391 0 104.151z" fill="#f82f40"/><path d="m274.647 378.788c-28.758 28.758-28.758 75.384 0 104.143s75.384 28.758 104.143 0c20.483-20.483 50.023-26.358 75.72-17.661 3.057 1.035 6.434.237 8.716-2.045s3.079-5.659 2.045-8.716c-8.698-25.698-2.822-55.238 17.661-75.72 28.758-28.758 28.758-75.384 0-104.143-28.758-28.758-75.384-28.758-104.143 0z" fill="#fb4a59"/><path d="m482.934 378.789c-20.49 20.48-26.36 50.02-17.66 75.721 1.03 3.06.23 6.43-2.05 8.72-2.28 2.28-5.66 3.08-8.71 2.04-7.91-2.68-16.18-3.97-24.44-3.88-.05-.63-.18-1.26-.39-1.88-8.7-25.7-2.83-55.241 17.66-75.721 28.75-28.76 28.75-75.381 0-104.141-12.39-12.39-28.1-19.44-44.27-21.15 26.61-10.82 58.271-5.44 79.861 16.15 28.75 28.76 28.75 75.38-.001 104.141z" fill="#f82f40"/><g><g><path d="m158.93 111.798c-16.98-1.494-30.376-2.268-42.866-6.495-3.057-1.035-6.434-.237-8.716 2.045s-3.079 5.659-2.045 8.716c4.227 12.49 5.002 25.886 6.495 42.866z" fill="#fcb5ba"/></g><g><path d="m400.202 353.07c1.494 16.98 2.268 30.376 6.495 42.866 1.035 3.057.237 6.434-2.045 8.716s-5.659 3.079-8.716 2.045c-12.49-4.227-25.886-5.001-42.866-6.495z" fill="#fcb5ba"/></g></g></g><g><circle cx="255.999" cy="255.999" fill="#fb8189" r="177.593"/><path d="m433.595 255.999c0 98.083-79.512 177.595-177.595 177.595-6.735 0-13.387-.376-19.934-1.117 88.692-9.908 157.65-85.142 157.65-176.479s-68.959-166.57-157.651-176.478c6.547-.74 13.199-1.117 19.934-1.117 98.083.001 177.596 79.513 177.596 177.596z" fill="#fb6672"/></g><g><circle cx="255.999" cy="255.999" fill="#fcb5ba" r="139.936"/><path d="m395.934 255.999c0 77.282-62.652 139.935-139.935 139.935-6.497 0-12.898-.442-19.156-1.314 68.218-9.327 120.778-67.836 120.778-138.621s-52.561-129.294-120.778-138.621c6.258-.872 12.659-1.314 19.156-1.314 77.283.001 139.935 62.653 139.935 139.935z" fill="#fc9aa1"/></g><circle cx="255.999" cy="255.999" fill="#6d81d5" r="110.728"/><circle cx="255.999" cy="255.999" fill="#fc9aa1" r="110.728"/><path d="m366.732 255.999c0 61.152-49.581 110.732-110.732 110.732-20.568 0-39.822-5.608-56.332-15.393 4.321.525 8.721.788 13.173.788 61.152 0 110.719-49.567 110.719-110.719 0-40.597-21.842-76.098-54.414-95.352 54.953 6.488 97.586 53.245 97.586 109.944z" fill="#fb8189"/><path d="m178.081 178.077h155.842v155.842h-155.842z" fill="#fb4a59"/><path d="m304.228 178.077h29.695v155.842h-29.695z" fill="#f82f40"/><g><path d="m303.448 223.06-43.115 74.678c-1.925 3.333-6.736 3.333-8.66 0l-43.115-74.678c-1.925-3.333.481-7.5 4.33-7.5h86.231c3.848-.001 6.253 4.166 4.329 7.5z" fill="#fcb5ba"/><path d="m303.452 223.057-43.121 74.682c-1.924 3.333-6.735 3.333-8.66.001l-11.42-19.772 36.03-62.411h22.84c3.85 0 6.256 4.167 4.331 7.5z" fill="#fc9aa1"/></g></g><g><path d="m488.227 269.335c-5.27-5.27-11.185-9.739-17.562-13.332 6.383-3.593 12.259-8.052 17.561-13.354 31.636-31.635 31.636-83.11 0-114.745-17.916-17.917-23.993-43.977-15.858-68.011 1.961-5.796.487-12.089-3.846-16.422-4.334-4.334-10.626-5.807-16.424-3.846-24.034 8.135-50.093 2.058-68.009-15.859-15.325-15.326-35.7-23.766-57.373-23.766s-42.048 8.44-57.373 23.765c-5.232 5.232-9.724 11.174-13.343 17.592-3.598-6.393-8.071-12.319-13.344-17.592-15.324-15.325-35.699-23.765-57.372-23.765s-42.048 8.44-57.373 23.765c-17.917 17.916-43.978 23.993-68.009 15.859-5.796-1.961-12.09-.489-16.424 3.846-4.333 4.333-5.807 10.626-3.846 16.423 8.134 24.034 2.058 50.094-15.859 68.01-31.636 31.635-31.636 83.11 0 114.745 5.254 5.254 11.19 9.714 17.592 13.316-6.396 3.597-12.284 8.061-17.592 13.37-31.636 31.635-31.636 83.11 0 114.745 17.916 17.916 23.993 43.977 15.859 68.01-1.962 5.797-.489 12.089 3.845 16.423 4.335 4.334 10.627 5.807 16.424 3.846 24.031-8.135 50.092-2.058 68.009 15.859 15.528 15.528 36.246 23.783 57.366 23.783 10.135 0 20.365-1.902 30.154-5.814 3.846-1.537 5.718-5.901 4.181-9.747s-5.898-5.719-9.747-4.181c-24.611 9.835-52.615 4.085-71.347-14.646-21.981-21.981-53.945-29.438-83.425-19.461-.347.117-.743.021-1.008-.244-.265-.266-.361-.661-.244-1.008 9.977-29.478 2.52-61.444-19.461-83.425-25.787-25.787-25.787-67.746 0-93.533 7.295-7.296 15.914-12.651 25.616-15.915.226-.076.445-.164.659-.26 3.447.902 6.959 1.576 10.517 2.016 1.843 35.186 13.565 67.793 32.428 95.112-1.18 13.597-2.263 23.367-5.395 32.625-1.962 5.797-.489 12.089 3.845 16.423 3.066 3.066 7.111 4.7 11.267 4.7 1.72 0 3.46-.28 5.156-.854 9.454-3.2 19.865-4.291 32.494-5.385.042-.004.081-.013.123-.017 27.32 18.866 59.929 30.59 95.117 32.433.435 3.523 1.095 7 1.98 10.41-2.727 8.437-7.053 16.129-12.886 22.861-2.713 3.13-2.374 7.866.757 10.579 1.418 1.229 3.167 1.832 4.908 1.832 2.1 0 4.188-.877 5.671-2.589 3.591-4.144 6.714-8.587 9.364-13.291 3.599 6.396 8.072 12.325 13.344 17.598 15.325 15.325 35.7 23.765 57.373 23.765s42.048-8.44 57.373-23.765c17.916-17.916 43.975-23.994 68.009-15.859 5.797 1.961 12.089.488 16.424-3.846 4.333-4.333 5.807-10.626 3.846-16.423-8.134-24.034-2.058-50.094 15.859-68.01 31.634-31.636 31.634-83.111-.001-114.746zm-453.847-130.826c21.981-21.981 29.437-53.947 19.461-83.424-.118-.347-.022-.743.244-1.009s.662-.36 1.008-.244c29.478 9.977 61.443 2.52 83.425-19.461 12.492-12.492 29.101-19.371 46.767-19.371s34.275 6.88 46.766 19.371c9.971 9.97 16.448 22.801 18.589 36.616-36.877 1.054-71.082 12.952-99.543 32.605-13.168-1.142-23.293-2.238-32.622-5.396-5.795-1.961-12.089-.488-16.424 3.846-4.334 4.334-5.807 10.627-3.845 16.423 3.187 9.419 4.264 19.615 5.339 31.966.018.209.049.414.084.618-19.667 28.467-31.575 62.681-32.632 99.571-13.801-2.144-26.686-8.647-36.616-18.577-25.788-25.788-25.788-67.747-.001-93.534zm82.523-4.481c-.953-7.103-2.282-13.845-4.491-20.373-.117-.347-.021-.742.244-1.008.267-.266.665-.36 1.008-.244 6.53 2.21 13.099 3.527 20.368 4.495-6.074 5.333-11.796 11.056-17.129 17.13zm139.097-48.125c63.254 0 120.919 34.785 150.492 90.78 1.934 3.662 6.472 5.064 10.134 3.129 3.662-1.934 5.064-6.471 3.129-10.134-3.437-6.507-7.242-12.734-11.346-18.697 1.139-13.121 2.241-23.223 5.387-32.517 1.962-5.797.489-12.09-3.845-16.423-4.333-4.334-10.625-5.807-16.424-3.846-9.297 3.147-19.363 4.245-32.435 5.38-27.731-19.131-60.572-30.568-95.296-32.388-.437-3.544-1.101-7.041-1.993-10.47 3.232-9.992 8.657-18.857 16.147-26.347 12.492-12.492 29.1-19.371 46.767-19.371 17.666 0 34.275 6.88 46.767 19.371 15.535 15.535 36.052 23.815 57.158 23.814 8.758 0 17.621-1.427 26.267-4.353.345-.117.742-.022 1.008.244s.361.662.244 1.008c-9.977 29.478-2.52 61.444 19.46 83.425 25.787 25.787 25.787 67.746 0 93.533-7.372 7.372-16.089 12.759-25.907 16.013-.134.044-.26.1-.39.151-3.436-.895-6.94-1.564-10.494-2.002-.759-14.476-3.2-28.779-7.289-42.644-1.172-3.974-5.346-6.243-9.315-5.073-3.973 1.172-6.244 5.342-5.073 9.315 4.601 15.604 6.934 31.817 6.934 48.188 0 93.786-76.301 170.088-170.088 170.088s-170.087-76.3-170.087-170.087 76.301-170.087 170.088-170.087zm143.587 27.753c-2.193 6.479-3.507 13.004-4.474 20.217-5.307-6.055-10.985-11.724-16.982-16.995 7.199-.965 13.717-2.279 20.204-4.474.347-.116.742-.022 1.008.245.27.269.364.654.244 1.007zm.001 284.672c.119.352.026.738-.245 1.008-.266.265-.66.36-1.008.244-6.509-2.203-13.086-3.522-20.373-4.493 6.074-5.332 11.797-11.055 17.129-17.129.958 7.166 2.278 13.814 4.497 20.37zm-285.924 1.251c-.346.116-.742.022-1.008-.244-.265-.266-.361-.661-.244-1.008 2.193-6.48 3.513-13.066 4.489-20.377 5.334 6.076 11.057 11.799 17.133 17.133-7.172.958-13.822 2.28-20.37 4.496zm344.496 57.319c.118.347.022.743-.244 1.009s-.662.361-1.009.244c-29.478-9.978-61.443-2.52-83.424 19.461-12.492 12.492-29.101 19.371-46.767 19.371s-34.275-6.88-46.767-19.371c-9.967-9.967-16.445-22.803-18.586-36.618 36.875-1.055 71.077-12.952 99.537-32.603 13.185 1.143 23.338 2.252 32.626 5.396 1.697.575 3.436.854 5.157.854 4.156 0 8.202-1.635 11.266-4.7 4.335-4.333 5.808-10.627 3.846-16.423-3.198-9.45-4.287-19.832-5.379-32.422-.006-.065-.019-.126-.026-.191 19.656-28.462 31.557-62.668 32.613-99.547 13.816 2.138 26.632 8.597 36.617 18.582 25.787 25.787 25.787 67.746 0 93.533-21.98 21.982-29.437 53.948-19.46 83.425z"/><path d="m256 403.422c81.294 0 147.431-66.137 147.431-147.432 0-74.443-55.648-137.354-129.442-146.336-4.119-.499-7.85 2.427-8.351 6.538-.5 4.112 2.427 7.85 6.538 8.351 66.277 8.068 116.255 64.578 116.255 131.447 0 73.023-59.409 132.432-132.432 132.432s-132.432-59.409-132.432-132.432c0-66.451 49.623-122.919 115.427-131.35 4.108-.526 7.012-4.284 6.486-8.392-.527-4.108-4.286-7.008-8.392-6.486-73.269 9.387-128.521 72.251-128.521 146.228.001 81.295 66.138 147.432 147.433 147.432z"/><path d="m137.775 255.99c0 65.189 53.035 118.224 118.224 118.224s118.224-53.035 118.224-118.224-53.035-118.224-118.224-118.224-118.224 53.036-118.224 118.224zm188.646 70.418h-140.837v-140.838h140.837zm-155.837-128.316v115.798c-11.235-16.522-17.809-36.457-17.809-57.899s6.574-41.378 17.809-57.899zm27.519 143.315h115.792c-16.521 11.234-36.455 17.807-57.896 17.807s-41.375-6.573-57.896-17.807zm143.317-27.526v-115.781c11.232 16.52 17.804 36.452 17.804 57.89s-6.572 41.371-17.804 57.891zm-27.529-143.31h-115.784c16.521-11.232 36.453-17.805 57.892-17.805s41.372 6.573 57.892 17.805z"/><path d="m245.177 301.478c2.26 3.913 6.306 6.249 10.825 6.249s8.566-2.336 10.825-6.25l43.114-74.676c2.26-3.913 2.26-8.586 0-12.5-2.259-3.913-6.306-6.25-10.825-6.25h-86.228c-4.519 0-8.565 2.336-10.825 6.249-2.259 3.913-2.26 8.586 0 12.5zm49.609-78.426-38.784 67.176-38.784-67.176z"/></g></g></svg>