<svg id="Layer_1" enable-background="new 0 0 496 496" height="512" viewBox="0 0 496 496" width="512" xmlns="http://www.w3.org/2000/svg"><path d="m271.959 9h-47.918c-6.46 0-11.697 5.237-11.697 11.697v135.133h71.313v-135.133c-.001-6.46-5.238-11.697-11.698-11.697z" fill="#e4f4ff"/><path d="m234.002 303.319h28.035v42.691h-28.035z" fill="#de9191"/><path d="m276.642 46.944c-18.594 6.097-38.652 6.1-57.248.009l-7.05-2.309v47.584l7.05 2.309c18.595 6.09 38.654 6.087 57.248-.009l7.015-2.3v-47.584z" fill="#abb8ff"/><path d="m248.004 107.138c-15.537 0-25.729-3.239-36.938-6.91h-8.381c-4.418 0-8-3.582-8-8s3.582-8 8-8c13.102 0 8.993-.636 19.199 2.707 17.098 5.6 35.171 5.597 52.265-.008 10.169-3.336 6.1-2.699 19.159-2.699 4.418 0 8 3.582 8 8s-3.582 8-8 8c-10.048 0-6.87-.493-14.173 1.902-10.183 3.338-20.657 5.008-31.131 5.008z" fill="#846069"/><path d="m248.005 59.554c-16.026.001-26.626-3.533-36.938-6.909h-8.382c-4.418 0-8-3.582-8-8s3.582-8 8-8c13.104 0 8.993-.636 19.198 2.706 17.098 5.601 35.17 5.597 52.266-.008 10.166-3.333 6.101-2.698 19.159-2.698 4.418 0 8 3.582 8 8s-3.582 8-8 8c-10.05 0-6.87-.493-14.174 1.901-10.181 3.339-20.657 5.007-31.129 5.008z" fill="#846069"/><path d="m347.456 89.144c-.38.611-24.102 38.422-84.649 51.821-9.746 2.157-19.868 2.157-29.614 0-60.545-13.398-84.268-51.208-84.649-51.821-34.333 46.781 4.391 121.977 4.391 121.977-.284.392 28.985 16.792 57.474 85.531 6.393 1.9 12.649 3.059 18.438 3.332 2.873.136 5.155 2.447 5.155 5.318 0 .75-3.103.518 27.997.518 0-3.674 2.398-5.706 5.155-5.836 5.789-.273 12.044-1.432 18.438-3.332 27.318-65.913 56.508-84.893 57.486-85.514-.354-.492 39.275-74.444 4.378-121.994zm-161.047 96.373c-9.855 0-17.843-7.989-17.843-17.844 0-9.854 7.989-17.843 17.843-17.843s17.843 7.989 17.843 17.843c.001 9.855-7.988 17.844-17.843 17.844zm30.726 49.084c-8.597 0-15.567-6.969-15.567-15.566s6.969-15.567 15.567-15.567 15.567 6.97 15.567 15.567-6.969 15.566-15.567 15.566zm30.865 44.637c-8.09 0-14.649-6.559-14.649-14.649s6.558-14.648 14.649-14.648 14.649 6.559 14.649 14.648c0 8.09-6.559 14.649-14.649 14.649zm30.865-44.637c-8.597 0-15.567-6.969-15.567-15.566s6.969-15.567 15.567-15.567 15.567 6.97 15.567 15.567-6.97 15.566-15.567 15.566zm30.726-49.084c-9.855 0-17.843-7.989-17.843-17.844 0-9.854 7.989-17.843 17.843-17.843s17.843 7.989 17.843 17.843c0 9.855-7.989 17.844-17.843 17.844z" fill="#ffa991"/><path d="m464.196 64.946c-51.28-24.341-94.899 4.364-116.761 24.168 34.37 46.779-4.37 122.005-4.37 122.005 30.235 40.056-34.679 86.918-75.912 88.863-2.873.136-5.155 2.447-5.155 5.318 0 32.711-1.86 42.197 7.202 55.902 56.015 84.713 121.722 18.813 120.875-26.832-.796-42.902 41.515-97.68 41.515-97.68 60.327-104.331 72.14-152.979 32.606-171.744zm-139.709 290.603c-17.015 4.076-33.349-7.135-29.946-17.156s27.465-21.803 36.129-17.156c7.664 4.11 10.832 30.235-6.183 34.312z" fill="#ffd3be"/><path d="m464.196 64.946c-29.387-13.949-56.255-10.475-77.957-1.24 17.621-3.729 37.558-2.766 58.817 7.325 39.534 18.765 27.72 67.413-32.606 171.745 0 0-42.311 54.778-41.515 97.68.367 19.776-11.767 43.34-30.187 56.821-1.33 1.437-2.713 2.82-4.147 4.143 30.737-5.303 53.979-39.784 53.474-67.048-.796-42.902 41.515-97.68 41.515-97.68 60.327-104.333 72.14-152.981 32.606-171.746z" fill="#ffa991"/><path d="m228.847 299.983c-41.233-1.944-106.146-48.807-75.912-88.863 0 0-38.74-75.226-4.37-122.005-21.862-19.805-65.481-48.51-116.761-24.169-39.534 18.765-27.72 67.413 32.606 171.745 0 0 42.311 54.778 41.515 97.68-.847 45.644 64.86 111.544 120.875 26.832 9.068-13.713 7.202-23.29 7.202-55.902 0-2.871-2.283-5.182-5.155-5.318zm-57.334 55.566c-17.015-4.077-13.846-30.202-6.183-34.312 8.664-4.647 32.726 7.134 36.129 17.156 3.403 10.021-12.932 21.232-29.946 17.156z" fill="#ffd3be"/><path d="m129.175 340.103c.796-42.902-41.515-97.68-41.515-97.68-60.326-104.333-72.139-152.98-32.606-171.745 17.915-8.504 34.893-10.528 50.337-8.725-20.895-7.864-46.143-10.034-73.587 2.993-39.534 18.765-27.72 67.413 32.606 171.745 0 0 42.311 54.778 41.515 97.68-.551 29.68 27.042 67.909 61.809 67.74-23.023-11.756-38.979-39.369-38.559-62.008z" fill="#ffe7dc"/><path d="m95.106 244.358c31.571-5.395 53.698 58.832 42.606 70.535-19.34 20.406-42.606 10.567-42.606 10.567s-13.189 16.707-13.189 42.099c0 20.477 3.676 85.6 5.099 110.047.297 5.101-3.76 9.393-8.87 9.393h-23.798c-5.319 0-9.444-4.636-8.824-9.918 3.461-29.464 10.662-114.853-21.073-121.747-33.838-7.351-27.127-46.559-12.235-58.253 22.352-17.553 44.265 11.962 48.033-1.1 3.769-13.063-11.733-43.661 34.857-51.623z" fill="#d4deff"/><path d="m23.128 312.262c22.352-17.552 44.265 11.962 48.033-1.1 3.768-13.063-11.733-43.661 34.857-51.622 9.116-1.558 17.442 2.695 24.411 9.807-8.211-15.15-20.76-27.477-35.323-24.988-46.59 7.961-31.088 38.559-34.857 51.622-3.768 13.063-25.681-16.452-48.033 1.1-12.73 9.997-19.476 40.091-.036 53.213-3.999-14.02 1.993-31 10.948-38.032z" fill="#e4f4ff"/><path d="m400.894 244.358c-31.571-5.395-53.698 58.832-42.606 70.535 19.34 20.406 42.606 10.567 42.606 10.567s13.189 16.707 13.189 42.099c0 20.477-3.676 85.6-5.099 110.047-.297 5.101 3.76 9.393 8.87 9.393h23.798c5.319 0 9.444-4.636 8.824-9.918-3.461-29.464-10.662-114.853 21.073-121.747 33.838-7.351 27.127-46.559 12.235-58.253-22.352-17.553-44.265 11.962-48.033-1.1-3.769-13.063 11.733-43.661-34.857-51.623z" fill="#d4deff"/><path d="m483.784 297.081c-22.352-17.553-44.265 11.962-48.033-1.1-3.768-13.063 11.733-43.661-34.857-51.622-14.025-2.396-26.183 8.949-34.396 23.324 6.119-4.948 13.091-7.606 20.598-6.324 46.59 7.961 31.088 38.559 34.857 51.622 3.768 13.063 25.681-16.453 48.033 1.1 8.93 7.013 14.914 23.917 10.981 37.915 22.903-12.009 16.133-44.459 2.817-54.915z" fill="#abb8ff"/><ellipse cx="36.444" cy="325.017" fill="#e4f4ff" rx="8.417" ry="7.498"/><ellipse cx="454.356" cy="103.064" fill="#ffa991" rx="8.379" ry="7.291" transform="matrix(.707 -.707 .707 .707 60.201 351.465)"/><path d="m148.544 103.217c.381.613 24.104 38.422 84.649 51.821 9.746 2.157 19.868 2.157 29.614 0 60.546-13.399 84.269-51.21 84.649-51.821 3.621 4.934 6.049-5.831 0-14.073-.38.611-24.102 38.422-84.649 51.821-9.746 2.157-19.868 2.157-29.614 0-60.545-13.398-84.268-51.208-84.649-51.821-6.049 8.242-3.62 19.006 0 14.073z" fill="#de9191"/><ellipse cx="466.913" cy="327.432" fill="#abb8ff" rx="3.627" ry="5.535" transform="matrix(.791 -.612 .612 .791 -102.742 354.138)"/></svg>