<svg id="Capa_1" enable-background="new 0 0 512 512" height="512" viewBox="0 0 512 512" width="512" xmlns="http://www.w3.org/2000/svg"><g><g><path d="m117.358 70.128c-11.336 5.728-24.091 6.644-35.672 3.22-2.379-.703-4.951-.122-6.705 1.633-1.754 1.754-2.336 4.326-1.633 6.705 3.424 11.581 2.508 24.337-3.22 35.672-9.766 19.325-5.555 42.781 10.322 57.503l64.048-30.363 30.363-64.048c-14.722-15.877-38.178-20.088-57.503-10.322z" fill="#d2a0f5"/></g><g><path d="m394.642 441.872c11.336-5.728 24.091-6.644 35.672-3.22 2.379.703 4.951.122 6.705-1.633 1.754-1.754 2.336-4.326 1.633-6.705-3.424-11.581-2.508-24.337 3.22-35.672 9.766-19.325 5.555-42.781-10.322-57.503l-64.048 30.363-30.363 64.048c14.722 15.877 38.178 20.088 57.503 10.322z" fill="#d2a0f5"/></g><g><path d="m289.397 26.534c-12.066-3.965-21.733-12.337-27.501-22.947-1.185-2.18-3.415-3.587-5.896-3.587-2.481 0-4.711 1.407-5.896 3.587-5.768 10.61-15.435 18.982-27.501 22.947-20.57 6.759-34.179 26.323-33.362 47.96l66.759 23.818 66.758-23.819c.818-21.636-12.791-41.2-33.361-47.959z" fill="#d2a0f5"/></g><g><path d="m222.603 485.466c12.066 3.965 21.733 12.337 27.501 22.947 1.185 2.18 3.415 3.587 5.896 3.587 2.481 0 4.711-1.407 5.896-3.587 5.768-10.61 15.435-18.982 27.501-22.947 20.57-6.759 34.179-26.323 33.362-47.96l-66.759-23.818-66.758 23.819c-.818 21.636 12.791 41.2 33.361 47.959z" fill="#d2a0f5"/></g><g><path d="m441.872 117.358c-5.728-11.336-6.644-24.091-3.22-35.672.703-2.379.122-4.951-1.633-6.705-1.754-1.754-4.326-2.336-6.705-1.633-11.581 3.424-24.337 2.508-35.672-3.22-19.325-9.766-42.781-5.555-57.503 10.322l30.363 64.048 64.048 30.363c15.877-14.722 20.088-38.178 10.322-57.503z" fill="#d2a0f5"/></g><g><path d="m70.128 394.642c5.728 11.336 6.644 24.091 3.22 35.672-.703 2.379-.122 4.951 1.633 6.705 1.754 1.754 4.326 2.336 6.705 1.633 11.581-3.424 24.337-2.508 35.672 3.22 19.325 9.766 42.781 5.555 57.503-10.322l-30.363-64.048-64.048-30.363c-15.877 14.722-20.088 38.178-10.322 57.503z" fill="#d2a0f5"/></g><g><path d="m485.466 289.397c3.965-12.066 12.337-21.733 22.947-27.501 2.18-1.185 3.587-3.415 3.587-5.896 0-2.481-1.407-4.711-3.587-5.896-10.61-5.768-18.982-15.435-22.947-27.501-6.759-20.57-26.323-34.179-47.96-33.362l-23.818 66.759 23.819 66.758c21.636.818 41.2-12.791 47.959-33.361z" fill="#d2a0f5"/></g><g><path d="m26.534 222.603c-3.965 12.066-12.337 21.733-22.947 27.501-2.18 1.185-3.587 3.415-3.587 5.896 0 2.481 1.407 4.711 3.587 5.896 10.61 5.768 18.982 15.435 22.947 27.501 6.759 20.57 26.323 34.179 47.96 33.362l23.818-66.759-23.819-66.758c-21.636-.818-41.2 12.791-47.959 33.361z" fill="#d2a0f5"/></g><g><path d="m204.009 50.825c-11.56.871-22.637-2.812-31.207-9.745-1.761-1.424-4.132-1.832-6.225-.965-2.092.867-3.481 2.832-3.719 5.084-1.158 10.963-6.386 21.399-15.176 28.958-14.986 12.886-19.628 34.137-11.381 52.098l64.618-3.233 47.977-43.406c-6.869-18.532-25.178-30.276-44.887-28.791z" fill="#b674f2"/></g><g><path d="m307.991 461.175c11.56-.871 22.637 2.812 31.207 9.745 1.761 1.424 4.132 1.832 6.225.965 2.092-.867 3.481-2.832 3.719-5.084 1.158-10.963 6.386-21.399 15.176-28.958 14.986-12.886 19.628-34.137 11.381-52.098l-64.618 3.233-47.978 43.406c6.87 18.532 25.18 30.276 44.888 28.791z" fill="#b674f2"/></g><g><path d="m364.318 74.157c-8.79-7.558-14.018-17.995-15.176-28.958-.238-2.252-1.627-4.217-3.719-5.084-2.092-.867-4.464-.459-6.225.965-8.571 6.933-19.647 10.616-31.207 9.745-19.708-1.485-38.018 10.259-44.887 28.791l47.978 43.406 64.618 3.233c8.246-17.962 3.603-39.213-11.382-52.098z" fill="#b674f2"/></g><g><path d="m147.682 437.843c8.79 7.558 14.018 17.995 15.176 28.958.238 2.252 1.627 4.217 3.719 5.084 2.092.867 4.464.459 6.225-.965 8.571-6.933 19.647-10.616 31.207-9.745 19.708 1.485 38.018-10.259 44.887-28.791l-47.977-43.406-64.618-3.233c-8.247 17.962-3.604 39.213 11.381 52.098z" fill="#b674f2"/></g><g><path d="m461.175 204.009c-.871-11.56 2.812-22.637 9.745-31.207 1.424-1.761 1.832-4.132.965-6.225-.867-2.092-2.832-3.481-5.084-3.719-10.963-1.158-21.399-6.386-28.958-15.176-12.886-14.986-34.137-19.628-52.098-11.381l3.233 64.618 43.406 47.977c18.532-6.869 30.276-25.178 28.791-44.887z" fill="#b674f2"/></g><g><path d="m50.825 307.991c.871 11.56-2.812 22.637-9.745 31.207-1.424 1.761-1.832 4.132-.965 6.225.867 2.092 2.832 3.481 5.084 3.719 10.963 1.158 21.399 6.386 28.958 15.176 12.886 14.986 34.137 19.628 52.098 11.381l-3.233-64.618-43.406-47.978c-18.532 6.87-30.276 25.18-28.791 44.888z" fill="#b674f2"/></g><g><path d="m437.843 364.318c7.558-8.79 17.995-14.018 28.958-15.176 2.252-.238 4.217-1.627 5.084-3.719.867-2.092.459-4.464-.965-6.225-6.933-8.571-10.616-19.647-9.745-31.207 1.485-19.708-10.259-38.018-28.791-44.887l-43.406 47.978-3.233 64.618c17.962 8.246 39.213 3.603 52.098-11.382z" fill="#b674f2"/></g><g><path d="m74.157 147.682c-7.558 8.79-17.995 14.018-28.958 15.176-2.252.238-4.217 1.627-5.084 3.719-.867 2.092-.459 4.464.965 6.225 6.933 8.571 10.616 19.647 9.745 31.207-1.485 19.708 10.259 38.018 28.791 44.887l43.406-47.977 3.233-64.618c-17.962-8.247-39.213-3.604-52.098 11.381z" fill="#b674f2"/></g><g><path d="m284.889 78.111c-10.437-3.43-18.799-10.672-23.789-19.85-1.025-1.886-2.954-3.102-5.1-3.102-2.146 0-4.075 1.217-5.1 3.102-4.99 9.178-13.352 16.42-23.789 19.85-17.794 5.847-29.565 22.77-28.859 41.486h115.495c.707-18.716-11.064-35.639-28.858-41.486z" fill="#c78ff5"/></g><g><path d="m227.111 433.889c10.437 3.43 18.799 10.672 23.789 19.85 1.025 1.886 2.954 3.103 5.1 3.103 2.146 0 4.075-1.217 5.1-3.103 4.99-9.178 13.352-16.42 23.789-19.85 17.794-5.847 29.565-22.77 28.859-41.486h-115.495c-.707 18.716 11.064 35.639 28.858 41.486z" fill="#c78ff5"/></g><g><path d="m402.214 150.641c-4.955-9.806-5.747-20.839-2.785-30.857.608-2.058.105-4.282-1.412-5.8-1.518-1.518-3.742-2.021-5.8-1.412-10.018 2.962-21.052 2.17-30.857-2.785-16.717-8.448-37.007-4.805-49.741 8.929l81.667 81.667c13.733-12.736 17.376-33.026 8.928-49.742z" fill="#c78ff5"/></g><g><path d="m109.786 361.359c4.955 9.806 5.747 20.839 2.785 30.857-.608 2.058-.105 4.282 1.412 5.8 1.518 1.518 3.742 2.021 5.8 1.412 10.018-2.962 21.052-2.17 30.857 2.785 16.717 8.448 37.006 4.805 49.741-8.929l-81.667-81.667c-13.733 12.736-17.376 33.026-8.928 49.742z" fill="#c78ff5"/></g><g><path d="m433.889 284.889c3.43-10.437 10.672-18.799 19.85-23.789 1.886-1.025 3.103-2.954 3.103-5.1 0-2.146-1.217-4.075-3.103-5.1-9.178-4.99-16.42-13.352-19.85-23.789-5.847-17.794-22.77-29.565-41.486-28.859v115.495c18.716.707 35.639-11.064 41.486-28.858z" fill="#c78ff5"/></g><g><path d="m78.111 227.111c-3.43 10.437-10.672 18.799-19.85 23.789-1.886 1.025-3.102 2.954-3.102 5.1 0 2.146 1.217 4.075 3.102 5.1 9.178 4.99 16.42 13.352 19.85 23.789 5.847 17.794 22.77 29.565 41.486 28.859v-115.495c-18.716-.707-35.639 11.064-41.486 28.858z" fill="#c78ff5"/></g><g><path d="m361.359 402.214c9.806-4.955 20.839-5.747 30.857-2.785 2.058.608 4.282.105 5.8-1.412 1.518-1.518 2.021-3.742 1.412-5.8-2.962-10.018-2.17-21.052 2.785-30.857 8.448-16.717 4.805-37.007-8.929-49.741l-81.667 81.667c12.736 13.733 33.026 17.376 49.742 8.928z" fill="#c78ff5"/></g><g><path d="m150.641 109.786c-9.806 4.955-20.839 5.747-30.857 2.785-2.058-.608-4.282-.105-5.8 1.412-1.518 1.518-2.021 3.742-1.412 5.8 2.962 10.018 2.17 21.052-2.785 30.857-8.448 16.717-4.805 37.006 8.929 49.741l81.667-81.667c-12.736-13.733-33.026-17.376-49.742-8.928z" fill="#c78ff5"/></g><g><g><circle cx="256" cy="256" fill="#e0b8ff" r="150.922"/></g></g><g><g><path d="m317.996 344.926c-83.352 0-150.922-67.57-150.922-150.922 0-25.723 6.443-49.939 17.791-71.134-47.483 25.425-79.787 75.502-79.787 133.13 0 83.352 67.57 150.922 150.922 150.922 57.628 0 107.705-32.304 133.13-79.787-21.195 11.348-45.411 17.791-71.134 17.791z" fill="#d2a0f5"/></g></g><g><circle cx="256" cy="256" fill="#c78ff5" r="89.111"/></g><g><path d="m283.153 340.875c-55.366-13.086-98.942-56.662-112.028-112.028-2.746 8.565-4.235 17.687-4.235 27.152 0 49.136 39.975 89.111 89.111 89.111 9.464.001 18.587-1.488 27.152-4.235z" fill="#b674f2"/></g></g></svg>