<svg id="Layer_3" enable-background="new 0 0 64 64" height="512" viewBox="0 0 64 64" width="512" xmlns="http://www.w3.org/2000/svg"><path d="m62 17.549c0-1.605-.756-3.116-2.039-4.079l-.601-.45c-.883-.662-1.956-1.02-3.06-1.02h-2.8l.095-.127c.912-1.216 1.405-2.695 1.405-4.215 0-1.091-.254-2.166-.742-3.142l-1.258-2.516h-10l1.689 2.252c.851 1.135 1.311 2.515 1.311 3.933 0 1.188-.323 2.353-.934 3.372l-1.126 1.876c-.473.788-.774 1.662-.888 2.568h-.851c-2.072 0-4.083-.705-5.702-2s-3.629-2-5.702-2h-3.756c-1.975 0-3.896.641-5.476 1.825l-1.565 1.174-.005.005c-.737-.703-1.581-1.298-2.506-1.761l-.309-.154c-1.434-.717-3.015-1.09-4.618-1.09h-2.724c-2.12 0-3.838 1.718-3.838 3.838 0 .758.224 1.498.645 2.129l.711 1.066c.42.631.644 1.371.644 2.129v.676c0 .758-.224 1.498-.645 2.129l-.711 1.066c-.42.631-.644 1.371-.644 2.129 0 1.853 1.313 3.399 3.059 3.759l-.059.079-1.93 2.573c-.695.926-1.07 2.053-1.07 3.211 0 .072.001.144.004.216h-.004c-2.518 1.889-4 4.852-4 8v1.5c0 1.381 1.119 2.5 2.5 2.5h1.499c-.041 4.628-1.43 9.146-3.999 13h7c1.474-2.457 2.426-5.18 2.809-8h5.394c.646 2.308 2.765 4 5.279 4h6.978c.252.553.602 1.062 1.04 1.5 1.601 1.601 3.772 2.5 6.036 2.5h.45c1.325 0 2.632-.309 3.817-.901l2.455-1.227c.776-.388 1.344-1.07 1.597-1.871h3.145c.601 0 1.176-.106 1.71-.3l.29.299c1.281 1.281 3.017 2 4.828 2h2.869c1.272 0 2.303-1.031 2.303-2.303 0-.455-.135-.899-.387-1.277l-.454-.682c-.756-1.133-1.159-2.465-1.159-3.827 0-1.25-.34-2.477-.983-3.55l-2.017-3.361h.697c1.272 0 2.303-1.031 2.303-2.303 0-.455-.135-.899-.387-1.277l-1.226-1.84c-.252-.378-.387-.823-.387-1.277v-.88c0-.872.488-1.667 1.268-2.057.644-.322 1.451-.725 2.214-1.106 1.544-.771 2.518-2.348 2.518-4.084 0-2.591-1.359-4.992-3.581-6.325l-1.132-.679c1.001-.406 1.944-.957 2.8-1.641 1.209-.968 1.913-2.433 1.913-3.982z" fill="#f4b2b0"/><g fill="#b3404a"><path d="m63 17.549c0-1.909-.912-3.733-2.439-4.879l-.601-.45c-1.049-.787-2.348-1.22-3.659-1.22h-1.057c.48-1.047.756-2.187.756-3.342 0-1.239-.293-2.479-.847-3.589l-1.259-2.517-1.789.895 1.259 2.516c.416.833.636 1.765.636 2.695 0 1.295-.428 2.579-1.205 3.615l-.792 1.056c-.647.862-1.003 1.931-1.003 3.009 0 1.339.521 2.598 1.469 3.544l.824.825 1.414-1.414-.824-.825c-.562-.561-.883-1.337-.883-2.13 0-.648.214-1.29.603-1.808l.397-.53h2.301c.881 0 1.754.291 2.459.82l.601.45c1.026.771 1.64 1.996 1.64 3.279 0 1.252-.561 2.419-1.539 3.201-1.812 1.451-4.09 2.25-6.413 2.25h-2.732c-1.267 0-2.509-.436-3.499-1.228l-.715-.572c-1.337-1.068-2.103-2.661-2.103-4.372 0-1.015.276-2.011.798-2.881l1.126-1.876c.704-1.175 1.076-2.519 1.076-3.886 0-1.624-.536-3.233-1.511-4.532l-1.689-2.253-1.6 1.2 1.689 2.252c.716.956 1.111 2.139 1.111 3.333 0 1.006-.273 1.994-.791 2.857l-1.126 1.876c-.39.65-.668 1.353-.849 2.082h-.033c-1.838 0-3.641-.632-5.076-1.781-1.789-1.431-4.036-2.219-6.326-2.219h-3.757c-2.177 0-4.335.719-6.075 2.025l-.93.698c-.645-.528-1.344-.995-2.101-1.374l-.308-.154c-1.565-.781-3.316-1.195-5.066-1.195h-2.724c-2.668 0-4.838 2.17-4.838 4.838 0 .958.281 1.886.812 2.684l.711 1.066c.312.468.477 1.012.477 1.574v.676c0 .562-.165 1.106-.477 1.574l-.711 1.067c-.531.797-.812 1.726-.812 2.683 0 1.807 1.008 3.368 2.48 4.198l-1.209 1.613c-.766 1.022-1.195 2.273-1.249 3.547-2.519 2.077-4.022 5.203-4.022 8.48v1.5c0 1.93 1.57 3.5 3.5 3.5h.456c-.216 4.087-1.506 8.023-3.788 11.445l1.664 1.109c2.727-4.089 4.168-8.849 4.168-13.765v-2.789h-2v2h-.5c-.827 0-1.5-.673-1.5-1.5v-1.5c0-2.257.875-4.424 2.378-6.07.312.871.809 1.672 1.482 2.345l1.865 1.865c.823.822 1.275 1.915 1.275 3.077v.783h2v-.783c0-1.696-.661-3.292-1.86-4.491l-1.866-1.866c-.822-.822-1.274-1.915-1.274-3.077 0-.935.309-1.861.87-2.61l1.654-2.205c.106.007.206.032.314.032h.331c2.783 0 5.526-.538 8.095-1.553l2.336 1.752c.251.189.4.488.4.801 0 1.654 1.346 3 3 3h7.056c-.034.299-.056.601-.056.908v1.092h2v-1.092c0-3.258 2.65-5.908 5.908-5.908.513 0 1.017-.067 1.514-.164l1.396 1.396c1.573 1.573 3.603 2.521 5.791 2.725l.591.443c1.753 1.315 2.8 3.408 2.8 5.6h2c0-2.324-.926-4.553-2.512-6.214 1.765-.376 3.388-1.248 4.694-2.554l1.525-1.525-1.414-1.414-1.525 1.525c-1.408 1.407-3.278 2.182-5.268 2.182s-3.86-.775-5.268-2.182l-.71-.709c.262-.135.524-.271.772-.437l1.26-.84-1.109-1.664-1.26.84c-.973.649-2.107.992-3.277.992-3.333 0-6.185 2.076-7.347 5h-7.561c-.552 0-1-.448-1-1 0-.938-.448-1.835-1.2-2.4l-1.457-1.093c.396-.206.788-.42 1.172-.65l-1.029-1.715c-3.116 1.87-6.683 2.858-10.317 2.858h-.331c-1.565 0-2.838-1.273-2.838-2.838 0-.562.165-1.106.477-1.574l.711-1.067c.531-.797.812-1.726.812-2.683v-.676c0-.958-.281-1.886-.813-2.684l-.711-1.066c-.311-.468-.476-1.012-.476-1.574 0-1.565 1.273-2.838 2.838-2.838h2.725c1.44 0 2.883.34 4.171.985l.308.154c2.045 1.022 3.639 2.755 4.488 4.878.441 1.102 1.269 2 2.328 2.53l2.695 1.348.895-1.789-2.695-1.348c-.622-.311-1.106-.838-1.365-1.484-.462-1.154-1.114-2.206-1.906-3.135l.685-.514c1.396-1.048 3.128-1.625 4.875-1.625h3.757c1.838 0 3.641.632 5.076 1.781 1.739 1.391 3.911 2.168 6.134 2.211.048 2.259 1.073 4.355 2.843 5.771l.318.255-.32.214c-.754.502-1.632.768-2.539.768-1.223 0-2.372-.476-3.237-1.341l-3.732-3.732c-1.243-1.243-2.896-1.927-4.653-1.927h-3.689v2h3.689c1.223 0 2.372.476 3.237 1.341l2.66 2.659-.842.842c-1.391 1.391-3.242 2.158-5.21 2.158-1.459 0-2.873-.428-4.088-1.237l-3.892-2.595-1.109 1.664 3.892 2.595c1.101.733 2.333 1.208 3.62 1.427-.151 1.298-.726 2.501-1.664 3.439l1.414 1.414c1.286-1.287 2.069-2.942 2.251-4.728 2.342-.104 4.532-1.055 6.201-2.724l.858-.858c1.193 1.034 2.699 1.603 4.294 1.603 1.304 0 2.565-.382 3.649-1.105l1.031-.687c1.033.503 2.166.792 3.324.792h.685v.171c0 1.557-.606 3.021-1.707 4.122l1.414 1.414c1.479-1.479 2.293-3.445 2.293-5.536v-.171h.048c1.415 0 2.815-.251 4.135-.724l.721.433c1.909 1.145 3.096 3.24 3.096 5.467 0 1.362-.753 2.584-1.965 3.189l-2.213 1.106c-1.124.562-1.822 1.693-1.822 2.952v.88c0 .654.191 1.288.555 1.832l1.227 1.84c.143.214.218.464.218.722 0 .719-.584 1.303-1.303 1.303h-5.432c-1.194 0-2.316-.465-3.16-1.309l-.855-.855c-1.829-1.829-4.26-2.836-6.846-2.836-1.755 0-3.477.478-4.979 1.38l-.995.596c-1.117.67-2.396 1.024-3.698 1.024h-.341c-1.92 0-3.726-.748-5.083-2.105-1.221-1.222-2.845-1.895-4.574-1.895-1.398 0-2.735-.668-3.575-1.787l-1.359-1.813-1.6 1.2 1.359 1.813c.543.724 1.236 1.309 2.01 1.744-1.6 1.08-2.569 2.873-2.569 4.843h2c0-1.47.816-2.79 2.131-3.447l1.158-.579c.148.01.296.026.445.026 1.194 0 2.316.465 3.16 1.309.622.622 1.32 1.14 2.07 1.553-.171 2.712-1.132 5.361-2.764 7.538l1.6 1.199c1.732-2.309 2.8-5.083 3.102-7.947.801.225 1.635.348 2.49.348h.341c1.065 0 2.11-.205 3.103-.562 2.037 2.759 3.164 6.126 3.164 9.562h2c0-3.733-1.183-7.394-3.329-10.437l.782-.468c1.193-.716 2.56-1.095 3.951-1.095 2.052 0 3.98.799 5.432 2.25l.855.855c.156.156.32.303.489.441l-.012.008c1.198 1.799 1.832 3.891 1.832 6.051v.395h2v-.395c0-1.627-.306-3.22-.893-4.713.379.069.766.108 1.159.108h4.168l1.725 2.876c.55.916.841 1.966.841 3.035 0 1.564.459 3.079 1.327 4.382l.454.682c.144.214.219.464.219.722 0 .719-.584 1.303-1.303 1.303h-2.869c-1.213 0-2.403-.394-3.385-1.094 1.544-1.086 2.557-2.878 2.557-4.906v-1h-2v1c0 2.206-1.794 4-4 4h-2.004c-.011-.874-.301-1.739-.827-2.44l-1.315-1.754c-.55-.735-.854-1.645-.854-2.562 0-.659.156-1.319.451-1.909l1.443-2.888-1.789-.895-1.443 2.888c-.433.866-.662 1.835-.662 2.804 0 1.347.445 2.683 1.254 3.761l1.315 1.754c.278.371.431.83.431 1.292 0 .821-.456 1.56-1.19 1.926l-2.455 1.228c-1.041.52-2.206.795-3.37.795h-.45c-2.013 0-3.904-.784-5.328-2.207-.767-.768-1.207-1.829-1.207-2.914v-.758c0-1.085.44-2.146 1.207-2.914 1.156-1.156 1.793-2.693 1.793-4.328v-.879h-2v.879c0 1.085-.44 2.146-1.207 2.914-1.156 1.156-1.793 2.693-1.793 4.328v.758c0 .38.038.755.105 1.121h-5.624c-2.47 0-4.481-2.011-4.481-4.481 0-.813.221-1.61.639-2.306l2.219-3.698-1.715-1.029-2.219 3.698c-.605 1.005-.924 2.159-.924 3.335 0 .163.013.322.024.481h-3.109c.051-.608.085-1.218.085-1.831v-2.169h-2v2.169c0 3.634-.988 7.201-2.857 10.316l1.715 1.029c1.392-2.32 2.328-4.871 2.795-7.515h3.844c.976 2.346 3.29 4 5.986 4h6.38c.258.433.566.841.932 1.207 1.799 1.802 4.193 2.794 6.74 2.794h.45c1.473 0 2.947-.349 4.264-1.007l2.454-1.228c.792-.395 1.408-1.019 1.805-1.766h2.492c.49 0 .965-.066 1.421-.177 1.446 1.383 3.404 2.178 5.407 2.178h2.869c1.822 0 3.303-1.481 3.303-3.303 0-.654-.191-1.288-.555-1.832l-.454-.682c-.648-.972-.991-2.104-.991-3.272 0-1.432-.39-2.837-1.126-4.064l-1.205-2.009c1.345-.418 2.331-1.66 2.331-3.141 0-.654-.191-1.288-.555-1.832l-1.227-1.84c-.143-.214-.218-.464-.218-.722v-.88c0-.496.274-.941.717-1.162l2.212-1.106c1.894-.946 3.071-2.854 3.071-4.979 0-2.767-1.406-5.366-3.68-6.914.482-.286.95-.598 1.39-.95 1.455-1.164 2.29-2.899 2.29-4.763z"/><path d="m11.862 23.608-2.058.412.393 1.961 2.059-.412c1.466-.293 2.647-1.274 3.267-2.557.264.148.534.287.82.401l1.286.515.742-1.856-1.286-.515c-1.874-.749-3.085-2.538-3.085-4.557h-2c0 1.812.698 3.488 1.885 4.741-.273.93-1.036 1.669-2.023 1.867z"/><path d="m49 4h2v2h-2z"/><path d="m47 13h2v2h-2z"/><path d="m56 16h2v2h-2z"/><path d="m30 22h2v2h-2z"/><path d="m17 18h2v2h-2z"/><path d="m24 28h2v2h-2z"/><path d="m46 37h2v2h-2z"/><path d="m40 34h2v2h-2z"/><path d="m27 38h2v2h-2z"/><path d="m10 37h2v2h-2z"/><path d="m48 53h2v2h-2z"/><path d="m52 48h2v2h-2z"/><path d="m39 56h2v2h-2z"/><path d="m33 54h2v2h-2z"/><path d="m22 53h2v2h-2z"/><path d="m19 42h2v2h-2z"/></g></svg>