<svg height="512" viewBox="0 0 44 60" width="512" xmlns="http://www.w3.org/2000/svg"><g id="Page-1" fill="none" fill-rule="evenodd"><g id="040---Spinal-Chord" fill-rule="nonzero"><path id="Shape" d="m42.81 45.12c-.4012457 1.3523825-1.4110039 2.4398143-2.73 2.94-1.4331136.5320048-3.0350147.3382865-4.3-.52-.3243872-.2476981-.7417273-.3392201-1.14-.25-1.4456649.3486024-2.8333473.9043489-4.12 1.65-.4639891.262942-.6399861.8437321-.4 1.32.4101496.8230213.6224526 1.7304453.62 2.65 0 3.61-4.98 6.09-8.74 6.09s-8.74-2.48-8.74-6.09c-.0024526-.9195547.2098504-1.8269787.62-2.65.2399861-.4762679.0639891-1.057058-.4-1.32-1.28584-.747319-2.6737718-1.3031654-4.12-1.65-.39827274-.0892201-.81561282.0023019-1.14.25-1.26498534.8582865-2.86688641 1.0520048-4.3.52-1.31899613-.5001857-2.3287543-1.5876175-2.73-2.94-.41420954-1.3887074-.14567785-2.8915528.72382083-4.0508844.86949869-1.1593316 2.23704144-1.8379187 3.68617917-1.8291156.42529061.0060276.84831878.0631028 1.26.17 2.17014507.7050799 4.5372577-.2092016 5.67-2.19.0010568-.0075808.0045695-.0146061.01-.02.4408259-.8368313 1.1146547-1.5280268 1.94-1.99-.0683298-.1328562-.1284427-.2697802-.18-.41-.1392807-.3885159-.2136091-.7973223-.22-1.21-.0009696-.7927125.1767692-1.5754466.52-2.29.2404561-.4792604.0649297-1.0628857-.4-1.33-1.1431107-.6366654-2.3677359-1.1144039-3.64-1.42-.3509634-.0785145-.71860504.0060431-1 .23-1.15109726.7797319-2.60937035.9512934-3.91.46-1.86893071-.6773667-2.9691847-2.6118107-2.5960825-4.5643788.3731022-1.9525682 2.10907596-3.3450578 4.0960825-3.2856212.38545502-.0089655.76998382.0416304 1.14.15 1.9612562.6266912 4.095667-.1814837 5.15-1.95 0-.01.01-.02.01-.03.4388155-.8151679 1.1251201-1.4699585 1.96-1.87-.3151493-.5040912-.4847345-1.085526-.49-1.68-.0001254-.7132217.1497873-1.4184927.44-2.07.2222943-.4746347.0495119-1.040497-.4-1.31-1.0041431-.5688551-2.0805481-.9994171-3.2-1.28-.3237364-.0523483-.6549675.0268592-.92.22-1.0118903.7050469-2.30631392.8659146-3.46.43-1.08589353-.4061185-1.91382712-1.3045935-2.23-2.42-.33735057-1.13185832-.12282298-2.35646856.57919002-3.30625086.702013-.94978229 1.80978633-1.51416742 2.99080998-1.52374914.34396366.00256138.68638979.04620392 1.02.13 1.7590117.58934148 3.6882317-.1588092 4.59-1.78.1441852-.27379283.267858-.557906.37-.85.2304866-.73205003.9026659-1.23517827 1.67-1.25h11.26c.7673341.01482173 1.4395134.51794997 1.67 1.25.102142.292094.2258148.57620717.37.85.9017683 1.6211908 2.8309883 2.36934148 4.59 1.78.3336102-.08379608.6760363-.12743862 1.02-.13 1.1810236.00958172 2.288797.57396685 2.99081 1.52374914.702013.9497823.9165406 2.17439254.57919 3.30625086-.3161729 1.1154065-1.1441065 2.0138815-2.23 2.42-1.1536861.4359146-2.4481097.2750469-3.46-.43-.2650325-.1931408-.5962636-.2723483-.92-.22-1.1194519.2805829-2.1958569.7111449-3.2 1.28-.4495119.269503-.6222943.8353653-.4 1.31.2902127.6515073.4401254 1.3567783.44 2.07-.0052655.594474-.1748507 1.1759088-.49 1.68h.01c.8300244.4034102 1.5121933 1.0575927 1.95 1.87 0 .01.01.02.01.03 1.054333 1.7685163 3.1887438 2.5766912 5.15 1.95.3700162-.1083696.754545-.1589655 1.14-.15 1.9870065-.0594366 3.7229803 1.333053 4.0960825 3.2856212.3731022 1.9525681-.7271518 3.8870121-2.5960825 4.5643788-1.3006296.4912934-2.7589027.3197319-3.91-.46-.281395-.2239569-.6490366-.3085145-1-.23-1.2722641.3055961-2.4968893.7833346-3.64 1.42-.4649297.2671143-.6404561.8507396-.4 1.33.3432308.7145534.5209696 1.4972875.52 2.29-.0063909.4126777-.0807193.8214841-.22 1.21-.0515573.1402198-.1116702.2771438-.18.41.8253453.4619732 1.4991741 1.1531687 1.94 1.99.0054305.0053939.0089432.0124192.01.02 1.1327423 1.9807984 3.4998549 2.8950799 5.67 2.19.4116812-.1068972.8347094-.1639724 1.26-.17 1.4491377-.0088031 2.8166805.669784 3.6861792 1.8291156.8694986 1.1593316 1.1380303 2.662177.7238208 4.0508844z" fill="#ffe0b2"/><g fill="#dfc49c"><path id="Shape" d="m35.85 9.58c-.3042301 1.0489257-1.0623003 1.906433-2.066 2.337.8979573.3981214 1.9162963.4279247 2.836.083 1.0858935-.4061185 1.9138271-1.3045935 2.23-2.42.3373506-1.13185832.122823-2.35646856-.57919-3.30625086-.702013-.94978229-1.8097864-1.51416742-2.99081-1.52374914-.3439637.00256138-.6863898.04620392-1.02.13-.2063066.05824363-.4165074.10168735-.629.13 1.8077155.72293251 2.7688331 2.70234095 2.219 4.57z"/><path id="Shape" d="m25.6 17.69c.8300244.4034102 1.5121933 1.0575927 1.95 1.87 0 .01.01.02.01.03 1.054333 1.7685163 3.1887438 2.5766912 5.15 1.95.068-.022.146-.03.218-.047-1.0094267-.2954709-1.8608064-.978588-2.368-1.9 0-.01-.01-.02-.01-.03-.4378067-.8124073-1.1199756-1.4665898-1.95-1.87h-.01c.3151493-.5040912.4847345-1.085526.49-1.68.0001254-.7132217-.1497873-1.4184927-.44-2.07-.2222943-.4746347-.0495119-1.040497.4-1.31.5238566-.2944928 1.0682686-.5508242 1.629-.767-.1770828-.084177-.3472738-.1821455-.509-.293-.2650325-.1931408-.5962636-.2723483-.92-.22-1.1194519.2805829-2.1958569.7111449-3.2 1.28-.4495119.269503-.6222943.8353653-.4 1.31.2902127.6515073.4401254 1.3567783.44 2.07-.0052655.594474-.1748507 1.1759088-.49 1.68z"/><path id="Shape" d="m26.3 2.25c.102142.292094.2258148.57620717.37.85.9017683 1.6211908 2.8309883 2.36934148 4.59 1.78.117-.029.243-.049.369-.07-.846698-.30013593-1.5472192-.91161684-1.959-1.71-.1441852-.27379283-.267858-.557906-.37-.85-.2304866-.73205003-.9026659-1.23517827-1.67-1.25h-3c.7673341.01482173 1.4395134.51794997 1.67 1.25z"/><path id="Shape" d="m35.71 21.54c-.153.041-.307.061-.461.088 1.6314147.5383303 2.7415054 2.0525543 2.7640722 3.7703448.0225669 1.7177905-1.0473623 3.2606538-2.6640722 3.8416552h-.008c.9696244.3640351 2.0383756.3640351 3.008 0 1.8689307-.6773667 2.9691847-2.6118107 2.5960825-4.5643788-.3731022-1.9525682-2.109076-3.3450578-4.0960825-3.2856212-.3851209-.0088624-.7693045.0417324-1.139.15z"/><path id="Shape" d="m26.52 35.21c.8253453.4619732 1.4991741 1.1531687 1.94 1.99.0054305.0053939.0089432.0124192.01.02 1.1327423 1.9807984 3.4998549 2.8950799 5.67 2.19.02 0 .041-.007.061-.012-1.16887-.3239533-2.1551187-1.1104966-2.731-2.178-.0010568-.0075808-.0045695-.0146061-.01-.02-.4408259-.8368313-1.1146547-1.5280268-1.94-1.99.0683298-.1328562.1284427-.2697802.18-.41.1392807-.3885159.2136091-.7973223.22-1.21.0009696-.7927125-.1767692-1.5754466-.52-2.29-.2404561-.4792604-.0649297-1.0628857.4-1.33.6634987-.3657825 1.3546091-.6790725 2.067-.937-.1470642-.0760806-.2896328-.1605533-.427-.253-.281395-.2239569-.6490366-.3085145-1-.23-1.2722641.3055961-2.4968893.7833346-3.64 1.42-.4649297.2671143-.6404561.8507396-.4 1.33.3432308.7145534.5209696 1.4972875.52 2.29-.0063909.4126777-.0807193.8214841-.22 1.21-.0515573.1402198-.1116702.2771438-.18.41z"/><path id="Shape" d="m30.52 48.94c.828186-.4758589 1.6985484-.8742171 2.6-1.19-.117-.067-.233-.134-.342-.21-.3243872-.2476981-.7417273-.3392201-1.14-.25-1.4456649.3486024-2.8333473.9043489-4.12 1.65-.4639891.262942-.6399861.8437321-.4 1.32.4101496.8230213.6224526 1.7304453.62 2.65 0 3.145-3.78 5.431-7.24 5.968.4968279.0788684.9989566.1196538 1.502.122 3.76 0 8.74-2.48 8.74-6.09.0024526-.9195547-.2098504-1.8269787-.62-2.65-.2399861-.4762679-.0639891-1.057058.4-1.32z"/><path id="Shape" d="m38.4 39.24c-.4252906.0060276-.8483188.0631028-1.26.17-.1.029-.2.039-.306.062 1.8413472.5880425 3.1106828 2.2746612 3.1660292 4.2068336.0553463 1.9321724-1.1153622 3.6886852-2.9200292 4.3811664-.052.018-.1.028-.156.045 1.0275205.3377712 2.1385276.3219299 3.156-.045 1.3189961-.5001857 2.3287543-1.5876175 2.73-2.94.4142095-1.3887074.1456778-2.8915528-.7238208-4.0508844-.8694987-1.1593316-2.2370415-1.8379187-3.6861792-1.8291156z"/></g><path id="Shape" d="m25 55c-.5522847 0-1-.4477153-1-1 .1067224-4.125155-.8947232-8.2034561-2.9-11.81-2.1369122-3.8816037-3.20658-8.2603406-3.1-12.69-.10658-4.4296594.9630878-8.8083963 3.1-12.69 2.0052768-3.6065439 3.0067224-7.68484498 2.9-11.81 0-.55228475.4477153-1 1-1s1 .44771525 1 1c.10658 4.42965935-.9630878 8.8083963-3.1 12.69-2.0052768 3.6065439-3.0067224 7.684845-2.9 11.81-.1067224 4.125155.8947232 8.2034561 2.9 11.81 2.1369122 3.8816037 3.20658 8.2603406 3.1 12.69 0 .2652165-.1053568.5195704-.2928932.7071068s-.4418903.2928932-.7071068.2928932z" fill="#02a9f4"/><path id="Shape" d="m19 55c-.5522847 0-1-.4477153-1-1-.1065939-4.4293429.9630804-8.8077611 3.1-12.689 2.0054049-3.606856 3.0068532-7.6855132 2.9-11.811.1067224-4.125155-.8947232-8.2034561-2.9-11.81-2.1370468-3.8815513-3.2067236-8.26032511-3.1-12.69 0-.55228475.4477153-1 1-1s1 .44771525 1 1c-.1068532 4.12548681.8945951 8.204144 2.9 11.811 2.1369196 3.8812389 3.2065939 8.2596571 3.1 12.689.1067236 4.4296749-.9629532 8.8084487-3.1 12.69-2.0052768 3.6065439-3.0067224 7.684845-2.9 11.81 0 .2652165-.1053568.5195704-.2928932.7071068s-.4418903.2928932-.7071068.2928932z" fill="#ef314c"/><path id="Shape" d="m38.4 38.24c-.5182953.0065366-1.0338242.0767291-1.535.209-1.7092711.5746142-3.5872923-.1277657-4.5-1.683-.0047276-.0116086-.0100685-.0229579-.016-.034-.3955569-.7482291-.9469505-1.4029451-1.617-1.92.1185476-.3968716.1831276-.8078963.192-1.222.0011207-.9517366-.2157576-1.8910865-.634-2.746 1.0679638-.593655 2.2118103-1.0390822 3.4-1.324.028-.009.092.011.2.088 1.4125517.96259 3.2054524 1.1767679 4.805.574 1.4878403-.5589545 2.6339121-1.774049 3.105-3.292.4450493-1.5337346.1403804-3.1875453-.822-4.462-.9844565-1.2840008-2.5100346-2.0371811-4.128-2.038-.4733552-.0110843-.9455842.0509801-1.4.184-1.490331.4881166-3.1226631-.0862148-3.979-1.4-.013-.03-.028-.06-.043-.09-.3837895-.7036665-.9194107-1.3130723-1.568-1.784.1418746-.4140819.2161584-.8483044.22-1.286.0001247-.8663576-.1857287-1.7226475-.545-2.511.9069518-.5159585 1.8789271-.9081119 2.89-1.166.0581315-.0009882.1147624.0184786.16.055 1.279706.8899663 2.9143419 1.0962106 4.375.552 1.3912593-.5149001 2.4519038-1.6647681 2.853-3.093.4189007-1.45588162.1272792-3.02404196-.787-4.232-.8844736-1.17838171-2.2726117-1.87096849-3.746-1.869-.4386352.00264588-.8752678.05940811-1.3.169-1.3058852.45378127-2.7495582-.08969936-3.432-1.292-.1167636-.22578696-.2170257-.45973193-.3-.7-.3722919-1.13500742-1.4236324-1.90885511-2.618-1.927h-11.26c-1.1889212.01560575-2.2372144.78325669-2.611 1.912-.0877885.25086763-.1940806.49487156-.318.73-.6951599 1.20292613-2.1510787 1.73663672-3.459 1.268-1.86051838-.49649178-3.83693796.17639068-5.008 1.705-.915435 1.21094357-1.20634904 2.78262057-.785 4.241.40199156 1.4229099 1.45955012 2.5681648 2.846 3.082 1.45530596.5463307 3.0859072.345354 4.365-.538.07-.046.138-.071.116-.077 1.0334622.2505523 2.0218564.6597407 2.93 1.213-.3476647.7794596-.5269041 1.6235205-.526 2.477.0038387.4380222.0781211.8725744.22 1.287-.649795.4707125-1.1859163 1.0809818-1.569 1.786-.015.03-.03.06-.043.09-.8409433 1.3040339-2.4507957 1.8836627-3.93 1.415-.46928246-.1417751-.95785665-.2092577-1.448-.2-1.61901988-.0001139-3.14590184.7531627-4.131 2.038-.96636712 1.2832311-1.26827248 2.9481613-.814 4.489.47609979 1.5065622 1.61962104 2.7098417 3.1 3.262 1.61850049.6080297 3.43226844.383831 4.854-.6.0448013-.0416741.1049939-.0627053.166-.058 1.1854864.2794237 2.3228964.7333767 3.375 1.347-.4075829.8490911-.6184788 1.7791522-.617 2.721.0091122.4141569.0740305.8251937.193 1.222-.6694953.5166844-1.220242 1.171101-1.615 1.919l-.012.021c-.9170835 1.5786735-2.8241014 2.2863117-4.549 1.688-.49008607-.1270103-.99375702-.1941665-1.5-.2-2.68944992-.014586-5.00405607 1.8972762-5.49768042 4.5410781-.49362436 2.6438019.97516257 5.2620616 3.48868042 6.2189219 1.73208499.6308479 3.66149135.3944119 5.19-.636.09619547-.0821562.22241758-.1202405.348-.105 1.3548833.3241821 2.654072.8479018 3.855 1.554-.4772858.9610938-.7247904 2.0199204-.723 3.093 0 4.394 5.673 7.094 9.739 7.094s9.739-2.7 9.739-7.09c.0002619-1.0746873-.2456968-2.1351493-.719-3.1 1.2117999-.7049572 2.5203701-1.22852 3.884-1.554.109061.000671.2147264.0380061.3.106 1.5368433 1.0378998 3.4784218 1.2752039 5.22.638 2.5114053-.9616306 3.9756187-3.5818112 3.4784846-6.2246785-.4971342-2.6428673-2.8133186-4.5519396-5.5024846-4.5353215zm3.449 6.606c-.3140913 1.0391042-1.0884365 1.8761344-2.1 2.27-1.1338847.4307237-2.4065737.2814347-3.41-.4-.5546114-.4100948-1.2611818-.556307-1.933-.4-1.5420176.3702444-3.0216514.9638498-4.392 1.762-.9107075.5321159-1.2558945 1.6772114-.791 2.624.3397895.6860277.5160626 1.441435.515 2.207.002 2.82-4.231 5.091-7.738 5.091s-7.74-2.271-7.74-5.09c-.0008607-.7656568.1757614-1.5210927.516-2.207.4655995-.9472093.1192701-2.0931971-.793-2.624-1.3594324-.793677-2.827637-1.3842604-4.358-1.753-.68557615-.1695041-1.41102789-.024707-1.979.395-.99494528.6730709-2.25440284.8221633-3.379.4-1.77600455-.7015284-2.68617529-2.6758171-2.06621592-4.4819136.61995936-1.8060965 2.55077152-2.8051915 4.38321592-2.2680864 2.62512798.848467 5.4840802-.2751862 6.829-2.684v-.005l.008-.016c.2102956-.3924187.4859046-.7461452.815-1.046.3369418.4175772.720421.7953529 1.143 1.126.4346481.3407597 1.0632403.2646481 1.404-.17s.2646481-1.0632403-.17-1.404c-.5095731-.3825277-.9324917-.8684923-1.241-1.426-.0160583-.0317658-.0340937-.0624928-.054-.092-.029-.062-.055-.121-.076-.179-.1032167-.2843219-.1592885-.583597-.166-.886-.000935-.6454578.1443683-1.2827406.425-1.864.4592842-.9552244.1021646-2.1029841-.818-2.629-1.2197443-.6787684-2.5260117-1.188761-3.883-1.516-.6254574-.1503469-1.28537994-.0139629-1.8.372-.8879321.5994601-2.01229495.7285771-3.013.346-.88691215-.3292176-1.57365328-1.0472915-1.863-1.948-.28013163-.930503-.09838198-1.9388605.489-2.713.60192034-.7922187 1.54208052-1.2543313 2.537-1.247.29792802-.0076837.59521498.0314596.881.116 2.4090243.7442282 5.0134753-.2670723 6.289-2.442.0159868-.0279982.0300202-.0570674.042-.087.2036039-.3546894.4695299-.6697353.785-.93.2915016.3368679.612437.6470943.959.927.4274684.3501485 1.0578515.2874684 1.408-.14s.2874684-1.0578515-.14-1.408c-.4188466-.3213656-.7773959-.7144494-1.059-1.161-.0137351-.0298173-.0290914-.0588607-.046-.087-.2206447-.3470558-.3401208-.7487725-.345-1.16-.0002798-.5752051.121039-1.1439721.356-1.669.4211122-.9437105.0680518-2.0532061-.821-2.58-1.1008458-.6235253-2.2822614-1.092592-3.511-1.394-.5886017-.1002538-1.1928839.03831-1.679.385-.74438416.5193572-1.69821361.6347911-2.545.308-.7831128-.2931762-1.37960532-.9420383-1.606-1.747-.24942906-.85378003-.08234147-1.77516991.451-2.487.50633905-.67984393 1.30332042-1.08148401 2.151-1.084.25065121.00197878.5002609.032509.744.091 2.2119489.72913435 4.629133-.22478483 5.747-2.268.1697701-.32200205.3151771-.65627091.435-1 .0927163-.32700989.3844365-.55788789.724-.573h11.26c.3446582.01697971.6388894.25462803.728.588.117348.33314081.2587194.65732569.423.97 1.1063474 2.04074306 3.5094969 3.00385177 5.719 2.292 1.0852461-.30429851 2.2464674.08211543 2.933.976.5313523.70761731.7001546 1.62344367.456 2.474-.2262915.8101749-.8260669 1.4634619-1.614 1.758-.8514398.3258199-1.8092641.2058106-2.554-.32-.5021247-.3460464-1.1225317-.4751026-1.721-.358-1.2117024.3032259-2.376422.7701903-3.462 1.388-.8840841.5306046-1.2312809 1.6387983-.808 2.579.2339645.5231633.3546057 1.0899041.354 1.663-.0048792.4112275-.1243553.8129442-.345 1.16-.017.03-.034.061-.049.093l-.01.015c-.2774715.4443514-.6336275.8343948-1.051 1.151-.4274684.3501485-.4901485.9805316-.14 1.408s.9805316.4901485 1.408.14c.3465747-.2798734.6678168-.5897381.96-.926.3143339.260747.5797992.5753097.784.929.0119798.0299326.0260132.0590018.042.087 1.2891518 2.1869056 3.9176846 3.1938601 6.338 2.428.2706483-.0753789.5511982-.1090988.832-.1.9952704-.0076474 1.9358683.4544982 2.538 1.247.58453.7647849.7701825 1.76211.5 2.686-.2910557.9146345-.9893698 1.6428605-1.891 1.972-.9822605.3767452-2.0859427.2564721-2.964-.323-.5195605-.4034486-1.1936296-.5504648-1.834-.4-1.3585513.3296373-2.6661304.8419715-3.887 1.523-.9224116.5276954-1.2792871 1.679132-.817 2.636.2788275.5799941.4230819 1.2154655.422 1.859-.0062983.298511-.0610097.5940205-.162.875-.024.065-.05.127-.079.189-.0238231.0348129-.0452076.0712333-.064.109-.3016783.5581525-.7222505 1.0432443-1.232 1.421-.4170753.3457793-.4829413.960805-.1485471 1.3870627.3343941.4262578.9474176.5087026 1.3825471.1859373.425051-.3320921.8108734-.7115401 1.15-1.131.3225005.2956955.5929431.6435524.8 1.029.005.011.011.022.017.033 1.3367573 2.4017442 4.1815048 3.5279295 6.8 2.692.3322876-.0866357.6736631-.1336294 1.017-.14 1.1359267-.007032 2.2080092.5245577 2.89 1.433.6833693.9053713.8909028 2.0836262.558 3.168z" fill="#000"/></g></g></svg>