<svg id="Capa_1" enable-background="new 0 0 497.001 497.001" height="512" viewBox="0 0 497.001 497.001" width="512" xmlns="http://www.w3.org/2000/svg"><g><path d="m495.819 257.875c-4.807 124.429-105.605 223.436-230.51 226.556-4.501.112-8.974 1.1-13.417.967-1.827-.055-3.629-.171-5.407-.347-55.116-5.442-86.05-67.707-56.249-115.738 22.444-36.175 35.4-78.816 35.4-124.473 0-43.81-11.928-84.845-32.725-120.051-27.716-46.918 2.719-105.545 54.781-112.587 3.261-.441 6.607.32 10.029.299.492-.003.985-.005 1.478-.005 134.453.001 241.842 110.204 236.62 245.379z" fill="#e94444"/><path d="m312.086 295.047c-2.704 12.494-6.387 24.622-10.997 36.298-12.257-2.542-20.702-7.066-27.95-10.943-9.284-4.954-15.984-8.541-31.408-8.541-15.413 0-22.123 3.587-31.397 8.541-10.825 5.795-24.31 13.001-49.169 13.001-24.87 0-38.355-7.206-49.18-13.001-9.284-4.954-15.984-8.541-31.408-8.541-15.413 0-22.123 3.587-31.397 8.541-6.894 3.687-14.857 7.945-26.143 10.555-11.786 2.725-23.037-6.273-23.037-18.369 0-8.699 5.936-16.359 14.414-18.31 6.47-1.489 11.234-4.034 16.994-7.115 10.825-5.795 24.31-13.001 49.169-13.001 24.87 0 38.355 7.206 49.18 13.001 9.274 4.965 15.984 8.541 31.408 8.541 15.413 0 22.123-3.576 31.397-8.541 10.825-5.795 24.31-13.001 49.169-13.001 24.87 0 38.344 7.206 49.18 13.001 6.925 3.705 12.418 6.646 21.175 7.884z" fill="#8aaadc"/><path d="m316.038 219.027c-20.939-1.088-33.023-7.55-42.9-12.839-9.284-4.955-15.984-8.541-31.408-8.541-15.413 0-22.123 3.587-31.397 8.541-10.825 5.795-24.31 13-49.169 13-24.87 0-38.355-7.206-49.18-13-9.284-4.955-15.984-8.541-31.408-8.541-15.413 0-22.123 3.587-31.397 8.541-6.894 3.687-14.856 7.945-26.141 10.555-11.786 2.725-23.038-6.274-23.038-18.371 0-8.698 5.934-16.357 14.409-18.31 6.472-1.491 11.238-4.038 16.999-7.113 10.825-5.795 24.31-13.001 49.169-13.001 24.87 0 38.355 7.206 49.18 13.001 9.274 4.955 15.984 8.541 31.408 8.541 15.413 0 22.123-3.587 31.397-8.541 10.825-5.795 24.31-13.001 49.169-13.001 24.87 0 38.344 7.206 49.18 13.001 5.924 3.167 10.792 5.773 17.567 7.238 3.564 12.559 6.117 25.538 7.56 38.84z" fill="#f47c7c"/><g fill="#d83131"><path d="m281.532 377.62c-1.359 0-2.735-.369-3.972-1.144-3.511-2.198-4.576-6.826-2.378-10.337 22.739-36.324 34.759-78.268 34.759-121.299 0-40.749-10.852-80.767-31.382-115.727-2.098-3.571-.902-8.168 2.669-10.265 3.57-2.1 8.167-.903 10.265 2.669 21.882 37.261 33.448 79.905 33.448 123.322 0 45.848-12.81 90.545-37.045 129.258-1.423 2.275-3.866 3.523-6.364 3.523z"/><path d="m496.82 257.873c-4.81 124.43-106.61 224.44-231.51 227.56-4.5.11-8.98.1-13.42-.03-2.15-.06-4.26-.21-6.34-.45 120.18-8.15 216.59-106.07 221.27-227.08 4.98-128.91-93.38-236.03-219.13-245.67 3.26-.44 6.61-.68 10.03-.7.49 0 .99-.01 1.48-.01 134.45 0 242.84 111.21 237.62 246.38z"/></g></g></svg>