<svg id="Capa_1" enable-background="new 0 0 512 512" height="512" viewBox="0 0 512 512" width="512" xmlns="http://www.w3.org/2000/svg"><g><path d="m503.709 242.584c-7.887-3.943-14.966-9.666-20.473-16.55-8.069-10.086-18.235-17.896-29.634-23.023 7.322-10.168 12.245-22.019 14.173-34.678 1.328-8.717 4.597-17.213 9.454-24.569 3.131-4.741 3.313-10.845.473-15.765-2.84-4.921-8.224-7.833-13.889-7.473-8.806.532-17.792-.889-26.003-4.097-12.031-4.701-24.741-6.383-37.176-5.123 1.257-12.466-.405-25.191-5.065-37.118-3.208-8.212-4.625-17.203-4.097-26.004.341-5.671-2.552-11.048-7.472-13.889-4.922-2.84-11.023-2.657-15.765.472-7.358 4.858-15.854 8.128-24.568 9.455-12.767 1.944-24.612 6.841-34.751 14.149-5.145-11.424-12.952-21.61-22.952-29.61-6.884-5.507-12.606-12.586-16.55-20.473-2.539-5.078-7.732-8.288-13.414-8.288-5.681 0-10.875 3.21-13.416 8.292-3.942 7.885-9.666 14.964-16.55 20.472-10.086 8.069-17.896 18.234-23.022 29.633-10.168-7.322-22.019-12.245-34.678-14.172-8.715-1.327-17.211-4.597-24.569-9.455-4.74-3.129-10.844-3.312-15.765-.472-4.92 2.841-7.813 8.218-7.473 13.889.528 8.801-.888 17.792-4.097 26.003-4.7 12.032-6.382 24.741-5.121 37.176-12.466-1.257-25.191.406-37.118 5.065-8.211 3.208-17.201 4.624-26.003 4.097-5.675-.348-11.048 2.552-13.889 7.473-2.841 4.92-2.658 11.022.472 15.765 4.857 7.357 8.127 15.854 9.454 24.568 1.944 12.766 6.841 24.612 14.149 34.75-11.424 5.145-21.61 12.952-29.61 22.951-5.507 6.884-12.586 12.606-20.472 16.55-5.082 2.54-8.292 7.733-8.292 13.415s3.21 10.875 8.292 13.416c7.886 3.943 14.965 9.666 20.472 16.55 8.069 10.086 18.234 17.896 29.633 23.022-7.322 10.168-12.245 22.019-14.173 34.679-1.327 8.715-4.597 17.211-9.454 24.568-3.13 4.742-3.313 10.845-.472 15.765 2.841 4.921 8.221 7.812 13.889 7.473 8.8-.533 17.792.89 26.003 4.097 9.463 3.697 19.346 5.528 29.185 5.528 2.67 0 5.336-.139 7.99-.408-1.257 12.467.405 25.192 5.065 37.121 3.208 8.211 4.625 17.202 4.096 26.003-.34 5.671 2.553 11.048 7.473 13.889 2.326 1.343 4.915 2.01 7.5 2.01 2.884 0 5.764-.831 8.265-2.481 7.358-4.858 15.854-8.127 24.569-9.454 12.767-1.945 24.612-6.842 34.75-14.15 5.145 11.424 12.952 21.61 22.951 29.61 6.885 5.508 12.608 12.587 16.55 20.472 2.54 5.08 7.734 8.29 13.416 8.29 5.682 0 10.876-3.21 13.416-8.292 3.943-7.885 9.666-14.964 16.55-20.472 10.086-8.069 17.897-18.234 23.023-29.634 10.168 7.322 22.02 12.245 34.68 14.174 8.714 1.327 17.209 4.596 24.568 9.454 2.501 1.65 5.38 2.481 8.265 2.481 2.585 0 5.175-.667 7.5-2.01 4.92-2.841 7.812-8.218 7.472-13.889-.528-8.801.889-17.792 4.097-26.003 4.7-12.03 6.382-24.739 5.122-37.173 2.668.269 5.347.412 8.028.412 9.848-.001 19.716-1.818 29.09-5.48 8.212-3.209 17.197-4.624 26.004-4.097 5.674.34 11.047-2.552 13.889-7.472 2.841-4.921 2.658-11.023-.472-15.765-4.858-7.358-8.128-15.854-9.455-24.568-1.944-12.767-6.841-24.612-14.149-34.751 11.424-5.145 21.61-12.952 29.61-22.952 5.508-6.884 12.587-12.606 20.472-16.55 5.08-2.537 8.29-7.731 8.29-13.413s-3.21-10.875-8.291-13.416z" fill="#bceaf9"/><path d="m503.709 242.584c-7.887-3.943-14.966-9.666-20.473-16.55-8.069-10.086-18.235-17.896-29.634-23.023 7.322-10.168 12.245-22.019 14.173-34.678 1.328-8.717 4.597-17.213 9.454-24.569 3.131-4.741 3.313-10.845.473-15.765-2.84-4.921-8.224-7.833-13.889-7.473-8.806.532-17.792-.889-26.003-4.097-12.031-4.701-24.741-6.383-37.176-5.123 1.257-12.466-.405-25.191-5.065-37.118-3.208-8.212-4.625-17.203-4.097-26.004.341-5.671-2.552-11.048-7.472-13.889-4.922-2.84-11.023-2.657-15.765.472-7.358 4.858-15.854 8.128-24.568 9.455-12.767 1.944-24.612 6.841-34.751 14.149-5.145-11.424-12.952-21.61-22.952-29.61-6.884-5.507-12.606-12.586-16.55-20.473-2.539-5.078-7.732-8.288-13.414-8.288v512c5.682 0 10.876-3.21 13.416-8.292 3.943-7.885 9.666-14.964 16.55-20.472 10.086-8.069 17.897-18.234 23.023-29.634 10.168 7.322 22.02 12.245 34.68 14.174 8.714 1.327 17.209 4.596 24.568 9.454 2.501 1.65 5.38 2.481 8.265 2.481 2.585 0 5.175-.667 7.5-2.01 4.92-2.841 7.812-8.218 7.472-13.889-.528-8.801.889-17.792 4.097-26.003 4.7-12.03 6.382-24.739 5.122-37.173 2.668.269 5.347.412 8.028.412 9.848-.001 19.716-1.818 29.09-5.48 8.212-3.209 17.197-4.624 26.004-4.097 5.674.34 11.047-2.552 13.889-7.472 2.841-4.921 2.658-11.023-.472-15.765-4.858-7.358-8.128-15.854-9.455-24.568-1.944-12.767-6.841-24.612-14.149-34.751 11.424-5.145 21.61-12.952 29.61-22.952 5.508-6.884 12.587-12.606 20.472-16.55 5.08-2.537 8.29-7.731 8.29-13.413s-3.21-10.875-8.291-13.416z" fill="#acceff"/><g><path d="m256 441c-102.009 0-185-82.99-185-185s82.991-185 185-185c102.01 0 185 82.99 185 185s-82.99 185-185 185z" fill="#acceff"/></g><path d="m441 256c0-102.01-82.99-185-185-185v370c102.01 0 185-82.99 185-185z" fill="#989dec"/><g><path d="m256 441c-5.359 0-10.311-2.859-12.99-7.5l-147.224-255c-2.68-4.641-2.68-10.359 0-15 2.679-4.641 7.631-7.5 12.99-7.5h294.449c5.359 0 10.311 2.859 12.99 7.5s2.68 10.359 0 15l-147.225 255c-2.679 4.641-7.631 7.5-12.99 7.5zm-121.243-255 121.243 210 121.244-210z" fill="#e2dff4"/></g><path d="m403.225 156h-147.225v30h121.244l-121.244 210v45c5.359 0 10.311-2.859 12.99-7.5l147.225-255c2.68-4.641 2.68-10.359 0-15s-7.631-7.5-12.99-7.5z" fill="#bebcdd"/><path d="m256 356c-55.14 0-100-44.859-100-100s44.86-100 100-100c55.141 0 100 44.859 100 100s-44.859 100-100 100zm0-170c-38.598 0-70 31.402-70 70s31.402 70 70 70 70-31.402 70-70-31.402-70-70-70z" fill="#f9f9f9"/><path d="m326 256c0 38.598-31.402 70-70 70v30c55.141 0 100-44.859 100-100s-44.859-100-100-100v30c38.598 0 70 31.402 70 70z" fill="#e2dff4"/></g></svg>